%TF.GenerationSoftware,KiCad,Pcbnew,9.0.0*%
%TF.CreationDate,2025-04-02T13:50:02+09:00*%
%TF.ProjectId,MEZ68K8_RAM_R2.1,4d455a36-384b-4385-9f52-414d5f52322e,Rev 2.1*%
%TF.SameCoordinates,PX65317e4PY8319cac*%
%TF.FileFunction,Copper,L2,Bot*%
%TF.FilePolarity,Positive*%
%FSLAX46Y46*%
G04 Gerber Fmt 4.6, Leading zero omitted, Abs format (unit mm)*
G04 Created by KiCad (PCBNEW 9.0.0) date 2025-04-02 13:50:02*
%MOMM*%
%LPD*%
G01*
G04 APERTURE LIST*
G04 Aperture macros list*
%AMRoundRect*
0 Rectangle with rounded corners*
0 $1 Rounding radius*
0 $2 $3 $4 $5 $6 $7 $8 $9 X,Y pos of 4 corners*
0 Add a 4 corners polygon primitive as box body*
4,1,4,$2,$3,$4,$5,$6,$7,$8,$9,$2,$3,0*
0 Add four circle primitives for the rounded corners*
1,1,$1+$1,$2,$3*
1,1,$1+$1,$4,$5*
1,1,$1+$1,$6,$7*
1,1,$1+$1,$8,$9*
0 Add four rect primitives between the rounded corners*
20,1,$1+$1,$2,$3,$4,$5,0*
20,1,$1+$1,$4,$5,$6,$7,0*
20,1,$1+$1,$6,$7,$8,$9,0*
20,1,$1+$1,$8,$9,$2,$3,0*%
G04 Aperture macros list end*
%TA.AperFunction,ComponentPad*%
%ADD10RoundRect,0.250000X-0.550000X-0.550000X0.550000X-0.550000X0.550000X0.550000X-0.550000X0.550000X0*%
%TD*%
%TA.AperFunction,ComponentPad*%
%ADD11C,1.600000*%
%TD*%
%TA.AperFunction,ComponentPad*%
%ADD12R,1.800000X1.800000*%
%TD*%
%TA.AperFunction,ComponentPad*%
%ADD13C,1.800000*%
%TD*%
%TA.AperFunction,ComponentPad*%
%ADD14O,1.600000X1.600000*%
%TD*%
%TA.AperFunction,ComponentPad*%
%ADD15R,1.600000X1.600000*%
%TD*%
%TA.AperFunction,ComponentPad*%
%ADD16R,1.700000X1.700000*%
%TD*%
%TA.AperFunction,ComponentPad*%
%ADD17O,1.700000X1.700000*%
%TD*%
%TA.AperFunction,ViaPad*%
%ADD18C,0.605000*%
%TD*%
%TA.AperFunction,Conductor*%
%ADD19C,0.152400*%
%TD*%
%TA.AperFunction,Conductor*%
%ADD20C,1.000000*%
%TD*%
%TA.AperFunction,Conductor*%
%ADD21C,0.400000*%
%TD*%
G04 APERTURE END LIST*
D10*
X34365000Y60630000D03*
D11*
X34365000Y58090000D03*
X34365000Y55550000D03*
X34365000Y53010000D03*
X34365000Y50470000D03*
X34365000Y47930000D03*
X34365000Y45390000D03*
X34365000Y42850000D03*
X34365000Y40310000D03*
X34365000Y37770000D03*
X41985000Y37770000D03*
X41985000Y40310000D03*
X41985000Y42850000D03*
X41985000Y45390000D03*
X41985000Y47930000D03*
X41985000Y50470000D03*
X41985000Y53010000D03*
X41985000Y55550000D03*
X41985000Y58090000D03*
X41985000Y60630000D03*
D10*
X34360000Y27740000D03*
D11*
X34360000Y25200000D03*
X34360000Y22660000D03*
X34360000Y20120000D03*
X34360000Y17580000D03*
X34360000Y15040000D03*
X34360000Y12500000D03*
X34360000Y9960000D03*
X34360000Y7420000D03*
X34360000Y4880000D03*
X41980000Y4880000D03*
X41980000Y7420000D03*
X41980000Y9960000D03*
X41980000Y12500000D03*
X41980000Y15040000D03*
X41980000Y17580000D03*
X41980000Y20120000D03*
X41980000Y22660000D03*
X41980000Y25200000D03*
X41980000Y27740000D03*
D10*
X12095000Y62690000D03*
D11*
X12095000Y60150000D03*
X12095000Y57610000D03*
X12095000Y55070000D03*
X12095000Y52530000D03*
X12095000Y49990000D03*
X12095000Y47450000D03*
X12095000Y44910000D03*
X12095000Y42370000D03*
X12095000Y39830000D03*
X12095000Y37290000D03*
X12095000Y34750000D03*
X12095000Y32210000D03*
X12095000Y29670000D03*
X12095000Y27130000D03*
X12095000Y24590000D03*
X12095000Y22050000D03*
X12095000Y19510000D03*
X12095000Y16970000D03*
X12095000Y14430000D03*
X12095000Y11890000D03*
X12095000Y9350000D03*
X12095000Y6810000D03*
X12095000Y4270000D03*
X27335000Y4270000D03*
X27335000Y6810000D03*
X27335000Y9350000D03*
X27335000Y11890000D03*
X27335000Y14430000D03*
X27335000Y16970000D03*
X27335000Y19510000D03*
X27335000Y22050000D03*
X27335000Y24590000D03*
X27335000Y27130000D03*
X27335000Y29670000D03*
X27335000Y32210000D03*
X27335000Y34750000D03*
X27335000Y37290000D03*
X27335000Y39830000D03*
X27335000Y42370000D03*
X27335000Y44910000D03*
X27335000Y47450000D03*
X27335000Y49990000D03*
X27335000Y52530000D03*
X27335000Y55070000D03*
X27335000Y57610000D03*
X27335000Y60150000D03*
X27335000Y62690000D03*
D12*
X3700000Y62860000D03*
D13*
X6240000Y62860000D03*
D10*
X46225000Y55610000D03*
D11*
X46225000Y53070000D03*
X46225000Y50530000D03*
X46225000Y47990000D03*
X46225000Y45450000D03*
X46225000Y42910000D03*
X46225000Y40370000D03*
X46225000Y37830000D03*
X46225000Y35290000D03*
X46225000Y32750000D03*
X46225000Y30210000D03*
X46225000Y27670000D03*
X46225000Y25130000D03*
X46225000Y22590000D03*
X46225000Y20050000D03*
X46225000Y17510000D03*
X61465000Y17510000D03*
X61465000Y20050000D03*
X61465000Y22590000D03*
X61465000Y25130000D03*
X61465000Y27670000D03*
X61465000Y30210000D03*
X61465000Y32750000D03*
X61465000Y35290000D03*
X61465000Y37830000D03*
X61465000Y40370000D03*
X61465000Y42910000D03*
X61465000Y45450000D03*
X61465000Y47990000D03*
X61465000Y50530000D03*
X61465000Y53070000D03*
X61465000Y55610000D03*
X6240000Y51500000D03*
D14*
X6240000Y59120000D03*
D11*
X61460000Y58740000D03*
X58960000Y58740000D03*
X6245000Y33820000D03*
X6245000Y31320000D03*
D15*
X6200000Y24870000D03*
D14*
X6200000Y22330000D03*
X6200000Y19790000D03*
X6200000Y17250000D03*
X6200000Y14710000D03*
D11*
X41980000Y30850000D03*
X39480000Y30850000D03*
D15*
X46751144Y60630000D03*
D11*
X49251144Y60630000D03*
D16*
X60170000Y6750000D03*
D17*
X57630000Y6750000D03*
X55090000Y6750000D03*
X52550000Y6750000D03*
X50010000Y6750000D03*
X47470000Y6750000D03*
D11*
X41995000Y63690000D03*
X39495000Y63690000D03*
D16*
X2970000Y38295000D03*
D17*
X2970000Y40835000D03*
X2970000Y43375000D03*
X2970000Y45915000D03*
X2970000Y48455000D03*
D11*
X52880000Y12310000D03*
D14*
X45260000Y12310000D03*
D16*
X29870000Y57610000D03*
D17*
X29870000Y55070000D03*
X29870000Y52530000D03*
X29870000Y49990000D03*
X29870000Y47450000D03*
X29870000Y44910000D03*
X29870000Y42370000D03*
X29870000Y39830000D03*
X29870000Y37290000D03*
X29870000Y34750000D03*
X29870000Y32210000D03*
X29870000Y29670000D03*
X29870000Y27130000D03*
X29870000Y24590000D03*
X29870000Y22050000D03*
X29870000Y19510000D03*
X29870000Y16970000D03*
X29870000Y14430000D03*
X29870000Y11890000D03*
X29870000Y9350000D03*
D16*
X9550000Y57610000D03*
D17*
X9550000Y55070000D03*
X9550000Y52530000D03*
X9550000Y49990000D03*
X9550000Y47450000D03*
X9550000Y44910000D03*
X9550000Y42370000D03*
X9550000Y39830000D03*
X9550000Y37290000D03*
X9550000Y34750000D03*
X9550000Y32210000D03*
X9550000Y29670000D03*
X9550000Y27130000D03*
X9550000Y24590000D03*
X9550000Y22050000D03*
X9550000Y19510000D03*
X9550000Y16970000D03*
X9550000Y14430000D03*
X9550000Y11890000D03*
X9550000Y9350000D03*
D18*
X16760000Y42140000D03*
X16530000Y34420000D03*
X18440000Y38370000D03*
X18450000Y42030000D03*
X18400000Y34860000D03*
X18430000Y29960000D03*
X18340000Y48770000D03*
X21630000Y47520000D03*
X51600000Y34060000D03*
X39770000Y34340000D03*
X39770000Y45390000D03*
X40110000Y23490000D03*
X19680000Y4110000D03*
X50000000Y12300000D03*
X35980000Y65270000D03*
X19680000Y42370000D03*
X22340000Y65250000D03*
X38180000Y4450000D03*
X19680000Y32210000D03*
X38590000Y26880000D03*
X35980000Y60630000D03*
X34798000Y29670000D03*
X17220000Y17730000D03*
X17000000Y13790000D03*
X14732000Y65532000D03*
X23670000Y62550000D03*
X58928000Y61976000D03*
X15890000Y4290000D03*
X36390000Y4880000D03*
X15890000Y7630000D03*
X5588000Y9144000D03*
X44840000Y4850000D03*
X53340000Y32766000D03*
X16500000Y10600000D03*
X21950000Y59920000D03*
X3556000Y31496000D03*
X3048000Y57658000D03*
X14010000Y53730000D03*
X44704000Y64516000D03*
X53340000Y18288000D03*
X54102000Y53086000D03*
X62484000Y3048000D03*
X16970000Y24100000D03*
X32750000Y820000D03*
X39980000Y6180000D03*
X32010000Y4500000D03*
X15070000Y59440000D03*
X24200000Y8020000D03*
X34370000Y64150000D03*
X2900000Y27130000D03*
X14770000Y43470000D03*
X14770000Y39810000D03*
X36170000Y48488900D03*
X36170000Y43920000D03*
X59331100Y38990000D03*
X7750000Y38570000D03*
X25390000Y50508900D03*
X36240000Y51100000D03*
X55090000Y8870000D03*
X31068900Y7341100D03*
X35900000Y31930000D03*
X35908900Y22660000D03*
X21166000Y33600000D03*
X57630000Y22590000D03*
X32800000Y6810000D03*
X21160000Y6810000D03*
X31590000Y12510000D03*
X44000000Y13990000D03*
X28940000Y4270000D03*
X22730000Y38310000D03*
X22730000Y4270000D03*
X32131100Y9960000D03*
X61470000Y11010000D03*
X30760545Y5339455D03*
X25800000Y38780000D03*
X25760000Y5249300D03*
X39820000Y16080000D03*
X20634900Y48910000D03*
X39870000Y22670000D03*
X20634900Y15840000D03*
X23580000Y45890000D03*
X23580000Y17850000D03*
X23582597Y11890000D03*
X24670000Y47010000D03*
X35930000Y56700000D03*
X37225100Y6210000D03*
X22198900Y5841100D03*
X60080000Y9950000D03*
X37225100Y9960000D03*
X22200000Y41290000D03*
X35908900Y12500000D03*
X33333200Y13580000D03*
X25190000Y44760000D03*
X25228900Y13320000D03*
X59548900Y13430000D03*
X25228900Y9380000D03*
X15832200Y25460000D03*
X15840000Y53620000D03*
X15832200Y19510000D03*
X7200000Y44200000D03*
X57508900Y41700000D03*
X57508900Y37830000D03*
X37950000Y43940000D03*
X56230000Y43560000D03*
X22610000Y44910000D03*
X56230000Y32750000D03*
X44550000Y54770000D03*
X16940000Y47460000D03*
X16960000Y54290000D03*
X44680000Y41168900D03*
X16398346Y51723500D03*
X37303200Y47350000D03*
X16363300Y50000000D03*
X33110000Y35600000D03*
X25770000Y39940000D03*
X31770000Y37880000D03*
X18700000Y28590000D03*
X18700000Y22040000D03*
X24340000Y45540000D03*
X24340000Y23160000D03*
X24340000Y11890000D03*
X17620000Y33170000D03*
X17628900Y26221100D03*
X32980000Y33294200D03*
X14738700Y12930000D03*
X14740000Y22572100D03*
X58800000Y26290000D03*
X32440000Y42850000D03*
X31700000Y16970000D03*
X14060000Y50990000D03*
X14060000Y24590000D03*
X14060000Y10430000D03*
X48870000Y27670000D03*
X48879266Y55370464D03*
X38200000Y28940000D03*
X49880000Y30200000D03*
X39134900Y17580000D03*
X49860000Y55530000D03*
X48200000Y32750000D03*
X36971100Y15070000D03*
X36971100Y32750000D03*
X33511100Y31020000D03*
X16640000Y31020000D03*
X33511100Y34660000D03*
X36340000Y7420000D03*
X36510000Y34660000D03*
X17830000Y62690000D03*
X43038900Y36440000D03*
X43650000Y61710000D03*
X50411100Y37830000D03*
X44632200Y40370000D03*
X32440000Y45250000D03*
X37200000Y39478300D03*
X37220000Y44660000D03*
X43430000Y15040000D03*
X23150000Y57610000D03*
X36610000Y53768320D03*
X44101100Y42910000D03*
X43430000Y18200000D03*
X25452212Y55070000D03*
X40268863Y53767320D03*
X43570000Y45450000D03*
X43570000Y25200000D03*
X25370000Y52190000D03*
X36770000Y46018900D03*
X39160000Y41420000D03*
X39230000Y57661300D03*
X40280000Y53010000D03*
X40280000Y49020000D03*
X39710000Y50470000D03*
X39710000Y46550000D03*
X15301100Y16970000D03*
X15300000Y56500000D03*
X58040000Y30210000D03*
X58070000Y44390000D03*
D19*
X52550000Y6750000D02*
X51600000Y7700000D01*
X51600000Y7700000D02*
X51600000Y34060000D01*
X39770000Y45390000D02*
X39770000Y34340000D01*
X40509600Y23889600D02*
X40110000Y23490000D01*
X40509600Y41374600D02*
X40509600Y23889600D01*
X41985000Y42850000D02*
X40509600Y41374600D01*
D20*
X50010000Y6750000D02*
X50010000Y12290000D01*
X50010000Y12290000D02*
X50000000Y12300000D01*
X5620000Y45920000D02*
X5615000Y45915000D01*
X38180000Y4450000D02*
X38180000Y26470000D01*
X41980000Y27740000D02*
X41980000Y30850000D01*
X46751144Y60630000D02*
X46751144Y63940000D01*
X6245000Y33820000D02*
X6245000Y45920000D01*
X19680000Y32210000D02*
X19680000Y42370000D01*
X6245000Y45920000D02*
X6245000Y51495000D01*
X6245000Y33820000D02*
X6190000Y33875000D01*
X38180000Y26470000D02*
X38590000Y26880000D01*
X41985000Y60630000D02*
X41985000Y63680000D01*
X5615000Y45915000D02*
X2970000Y45915000D01*
X35980000Y60630000D02*
X35980000Y65270000D01*
X19680000Y42370000D02*
X19680000Y62590000D01*
D19*
X61460000Y55615000D02*
X61465000Y55610000D01*
D20*
X46751144Y63940000D02*
X61460000Y63940000D01*
X6245000Y51495000D02*
X6240000Y51500000D01*
X61460000Y63940000D02*
X61460000Y58740000D01*
X61460000Y58740000D02*
X61460000Y55615000D01*
D19*
X41985000Y63680000D02*
X41995000Y63690000D01*
D20*
X19680000Y32210000D02*
X19680000Y4110000D01*
X6245000Y45920000D02*
X5620000Y45920000D01*
X19680000Y62590000D02*
X22340000Y65250000D01*
X38354000Y35814000D02*
X36398000Y37770000D01*
X6200000Y24870000D02*
X6200000Y31275000D01*
D21*
X36390000Y4880000D02*
X34360000Y4880000D01*
X13404100Y50718317D02*
X13404100Y53124100D01*
X13404100Y53124100D02*
X14010000Y53730000D01*
X34360000Y4880000D02*
X32390000Y4880000D01*
D20*
X36398000Y37770000D02*
X34365000Y37770000D01*
D21*
X13580000Y50542417D02*
X13404100Y50718317D01*
X12095000Y27130000D02*
X13580000Y28615000D01*
X13580000Y28615000D02*
X13580000Y50542417D01*
D20*
X38354000Y31976000D02*
X38354000Y35814000D01*
D21*
X32390000Y4880000D02*
X32010000Y4500000D01*
D20*
X34798000Y37337000D02*
X34798000Y29670000D01*
X34365000Y37770000D02*
X34798000Y37337000D01*
X39480000Y30850000D02*
X38354000Y31976000D01*
D19*
X55910000Y2490000D02*
X8690000Y2490000D01*
X1660000Y36800000D02*
X1660000Y60820000D01*
X60170000Y6750000D02*
X55910000Y2490000D01*
X2900000Y27130000D02*
X2900000Y35560000D01*
X2900000Y35560000D02*
X1660000Y36800000D01*
X34370000Y64150000D02*
X34365000Y64145000D01*
X34365000Y64145000D02*
X34365000Y60630000D01*
X8690000Y2490000D02*
X2900000Y8280000D01*
X2900000Y8280000D02*
X2900000Y27130000D01*
X1660000Y60820000D02*
X3700000Y62860000D01*
X11004800Y53615200D02*
X11004800Y40920200D01*
X36170000Y43920000D02*
X36170000Y48488900D01*
X11004800Y40920200D02*
X12095000Y39830000D01*
X14770000Y43470000D02*
X14770000Y39810000D01*
X9550000Y55070000D02*
X11004800Y53615200D01*
X61465000Y45450000D02*
X59331100Y43316100D01*
X7750000Y50730000D02*
X7750000Y38570000D01*
X59331100Y43316100D02*
X59331100Y38990000D01*
X9550000Y52530000D02*
X7750000Y50730000D01*
X8300000Y36980000D02*
X8300000Y48740000D01*
X9120000Y36160000D02*
X8300000Y36980000D01*
X35718900Y51580000D02*
X33890000Y51580000D01*
X10685000Y36160000D02*
X9120000Y36160000D01*
X33890000Y51580000D02*
X33390000Y51080000D01*
X25961100Y51080000D02*
X25390000Y50508900D01*
X12095000Y34750000D02*
X10685000Y36160000D01*
X36240000Y51100000D02*
X36198900Y51100000D01*
X36198900Y51100000D02*
X35718900Y51580000D01*
X33390000Y51080000D02*
X25961100Y51080000D01*
X8300000Y48740000D02*
X9550000Y49990000D01*
X12095000Y29670000D02*
X13124600Y30699600D01*
X13124600Y35176475D02*
X12081075Y36220000D01*
X13124600Y30699600D02*
X13124600Y35176475D01*
X10700000Y37210000D02*
X10700000Y46300000D01*
X10700000Y46300000D02*
X9550000Y47450000D01*
X11690000Y36220000D02*
X10700000Y37210000D01*
X12081075Y36220000D02*
X11690000Y36220000D01*
X29325000Y7360000D02*
X27335000Y9350000D01*
X31050000Y7360000D02*
X29325000Y7360000D01*
X31050000Y31030000D02*
X31050000Y7360000D01*
X29870000Y32210000D02*
X31050000Y31030000D01*
X35900000Y31930000D02*
X35900000Y22668900D01*
X55090000Y6750000D02*
X55090000Y8870000D01*
X31068900Y7341100D02*
X31050000Y7360000D01*
X35900000Y22668900D02*
X35908900Y22660000D01*
X57630000Y22590000D02*
X57630000Y6750000D01*
X21166000Y33600000D02*
X21166000Y6816000D01*
X32802100Y6812100D02*
X32800000Y6810000D01*
X34360000Y20120000D02*
X32802100Y18562100D01*
X32802100Y18562100D02*
X32802100Y6812100D01*
X44088767Y17673796D02*
X44088766Y17673796D01*
X44000000Y17585030D02*
X44088767Y17673796D01*
X31600000Y6930000D02*
X31600000Y12500000D01*
X44280000Y20050000D02*
X46225000Y20050000D01*
X31600000Y12500000D02*
X31590000Y12510000D01*
X44267900Y17852930D02*
X44267900Y18106262D01*
X44267900Y20037900D02*
X44280000Y20050000D01*
X44267900Y17852929D02*
X44267900Y17852930D01*
X28940000Y4270000D02*
X31600000Y6930000D01*
X22730000Y38310000D02*
X22730000Y4270000D01*
X44267900Y18106262D02*
X44267900Y20037900D01*
X44000000Y13990000D02*
X44000000Y17585030D01*
X44088767Y17673796D02*
X44267900Y17852929D01*
X61465000Y11015000D02*
X61465000Y17510000D01*
X30760545Y5339455D02*
X32131100Y6710010D01*
X25760000Y5249300D02*
X25760000Y38740000D01*
X61470000Y11010000D02*
X61465000Y11015000D01*
X32131100Y6710010D02*
X32131100Y9960000D01*
X39820000Y22620000D02*
X39870000Y22670000D01*
X20634900Y48910000D02*
X20634900Y15840000D01*
X39820000Y16080000D02*
X39820000Y22620000D01*
X23582597Y11890000D02*
X23582597Y17847403D01*
X23582597Y17847403D02*
X23580000Y17850000D01*
X23580000Y17850000D02*
X23580000Y45890000D01*
X34058925Y56700000D02*
X35930000Y56700000D01*
X24670000Y47010000D02*
X24670000Y55720000D01*
X33728925Y56370000D02*
X34058925Y56700000D01*
X25320000Y56370000D02*
X33728925Y56370000D01*
X24670000Y55720000D02*
X25320000Y56370000D01*
X37225100Y9960000D02*
X37225100Y6210000D01*
X60080000Y9950000D02*
X60080000Y18665000D01*
X60080000Y18665000D02*
X61465000Y20050000D01*
X22198900Y41288900D02*
X22198900Y5841100D01*
X22200000Y41290000D02*
X22198900Y41288900D01*
X34828900Y13580000D02*
X33333200Y13580000D01*
X59548900Y20673900D02*
X61465000Y22590000D01*
X25228900Y44721100D02*
X25228900Y13320000D01*
X25190000Y44760000D02*
X25228900Y44721100D01*
X35908900Y12500000D02*
X34828900Y13580000D01*
X25228900Y13320000D02*
X25228900Y9380000D01*
X59548900Y13430000D02*
X59548900Y20673900D01*
X29870000Y9350000D02*
X28390000Y10830000D01*
X28390000Y10830000D02*
X28390000Y26075000D01*
X28390000Y26075000D02*
X27335000Y27130000D01*
X15832200Y19510000D02*
X15832200Y25460000D01*
X15832200Y25460000D02*
X15832200Y53612200D01*
X57508900Y41700000D02*
X57508900Y37830000D01*
X9550000Y57610000D02*
X8350000Y56410000D01*
X7210000Y44210000D02*
X7200000Y44200000D01*
X8350000Y51910000D02*
X7210000Y50770000D01*
X8350000Y56410000D02*
X8350000Y51910000D01*
X7210000Y50770000D02*
X7210000Y44210000D01*
X23330000Y58670000D02*
X28810000Y58670000D01*
X22610000Y57950000D02*
X23330000Y58670000D01*
X37180400Y59119600D02*
X37780000Y58520000D01*
X31379600Y59119600D02*
X37180400Y59119600D01*
X28810000Y58670000D02*
X29870000Y57610000D01*
X37780000Y58520000D02*
X37950000Y58350000D01*
X29870000Y57610000D02*
X31379600Y59119600D01*
X22610000Y44910000D02*
X22610000Y57950000D01*
X56230000Y43560000D02*
X56230000Y32750000D01*
X37950000Y58350000D02*
X37950000Y43940000D01*
X16960000Y54290000D02*
X16940000Y54270000D01*
X44550000Y54770000D02*
X44550000Y52900000D01*
X44550000Y52900000D02*
X44680000Y52770000D01*
X44680000Y52770000D02*
X44680000Y41168900D01*
X16940000Y54270000D02*
X16940000Y47460000D01*
X36655816Y52970000D02*
X36655816Y52964184D01*
X29870000Y52530000D02*
X32250000Y52530000D01*
X32250000Y52530000D02*
X33830000Y54110000D01*
X35515816Y54110000D02*
X36655816Y52970000D01*
X33830000Y54110000D02*
X35515816Y54110000D01*
X16360000Y51567800D02*
X16360000Y50003300D01*
X37280000Y47373200D02*
X37303200Y47350000D01*
X37280000Y52340000D02*
X37280000Y47373200D01*
X36655816Y52964184D02*
X37280000Y52340000D01*
X33110000Y39055000D02*
X33110000Y35600000D01*
X34365000Y40310000D02*
X33110000Y39055000D01*
X30899600Y38750400D02*
X26959600Y38750400D01*
X26959600Y38750400D02*
X25770000Y39940000D01*
X31770000Y37880000D02*
X30899600Y38750400D01*
X18700000Y28590000D02*
X18700000Y22040000D01*
X24340000Y23160000D02*
X24340000Y45540000D01*
X24340000Y23160000D02*
X24340000Y11890000D01*
X17620000Y26230000D02*
X17620000Y33170000D01*
X17628900Y26221100D02*
X17620000Y26230000D01*
X32980000Y29120000D02*
X32980000Y33294200D01*
X34360000Y27740000D02*
X32980000Y29120000D01*
X14738700Y12930000D02*
X14738700Y22570800D01*
X58800000Y26290000D02*
X58800000Y47865000D01*
X58800000Y47865000D02*
X61465000Y50530000D01*
X31700000Y20580000D02*
X31700000Y16970000D01*
X32440000Y42850000D02*
X32440000Y21320000D01*
X32440000Y21320000D02*
X31700000Y20580000D01*
X14060000Y24590000D02*
X14060000Y50990000D01*
X14060000Y24590000D02*
X14060000Y10430000D01*
X41980000Y4880000D02*
X40220000Y3120000D01*
X8300000Y6420000D02*
X8300000Y18260000D01*
X40220000Y3120000D02*
X11600000Y3120000D01*
X11600000Y3120000D02*
X8300000Y6420000D01*
X8300000Y18260000D02*
X9550000Y19510000D01*
X29870000Y22050000D02*
X29870000Y24590000D01*
X27335000Y24585000D02*
X27335000Y24590000D01*
X28770000Y30775000D02*
X27335000Y32210000D01*
X28770000Y12990000D02*
X28770000Y30775000D01*
X29870000Y11890000D02*
X28770000Y12990000D01*
X27335000Y32210000D02*
X27335000Y34750000D01*
X48870000Y27670000D02*
X48870000Y55361198D01*
X48870000Y55361198D02*
X48879266Y55370464D01*
X49880000Y30200000D02*
X49880000Y55530000D01*
X38200000Y28420000D02*
X38200000Y28940000D01*
X38430000Y28190000D02*
X38200000Y28420000D01*
X39319600Y17764700D02*
X39319600Y27300400D01*
X39134900Y17580000D02*
X39319600Y17764700D01*
X39319600Y27300400D02*
X38430000Y28190000D01*
X30515000Y59510000D02*
X44770000Y59510000D01*
X44770000Y59510000D02*
X48200000Y56080000D01*
X36971100Y15070000D02*
X36971100Y32750000D01*
X27335000Y62690000D02*
X30515000Y59510000D01*
X48200000Y32750000D02*
X48200000Y56080000D01*
X36440000Y7520000D02*
X36340000Y7420000D01*
X33511100Y34660000D02*
X33511100Y31020000D01*
X36510000Y34660000D02*
X36440000Y34590000D01*
X36440000Y34590000D02*
X36440000Y7520000D01*
X17087900Y33390404D02*
X16640000Y32942504D01*
X17617900Y33920404D02*
X17087900Y33390404D01*
X17830000Y62690000D02*
X17617900Y62477900D01*
X17617900Y62477900D02*
X17617900Y33920404D01*
X16640000Y32942504D02*
X16640000Y31020000D01*
X45890000Y59470000D02*
X43650000Y61710000D01*
X50411100Y55731404D02*
X46672504Y59470000D01*
X50411100Y37830000D02*
X50411100Y55731404D01*
X46672504Y59470000D02*
X45890000Y59470000D01*
X43038900Y36440000D02*
X40850000Y34251100D01*
X40850000Y34251100D02*
X40850000Y8550000D01*
X40850000Y8550000D02*
X41980000Y7420000D01*
X23150000Y57610000D02*
X23150000Y47777496D01*
X43962100Y24202100D02*
X44632200Y24872200D01*
X37200000Y39478300D02*
X37200000Y44640000D01*
X43410000Y17427496D02*
X43962100Y17979596D01*
X23150000Y47777496D02*
X24897496Y46030000D01*
X24897496Y46030000D02*
X31660000Y46030000D01*
X31660000Y46030000D02*
X32440000Y45250000D01*
X43410000Y15060000D02*
X43410000Y17427496D01*
X43962100Y17979596D02*
X43962100Y24202100D01*
X43430000Y15040000D02*
X43410000Y15060000D01*
X44632200Y24872200D02*
X44632200Y40370000D01*
X31000000Y53940000D02*
X26582212Y53940000D01*
X35920000Y54500000D02*
X31560000Y54500000D01*
X43430000Y24190000D02*
X44101100Y24861100D01*
X26582212Y53940000D02*
X25452212Y55070000D01*
X36610000Y53810000D02*
X35920000Y54500000D01*
X40761543Y54260000D02*
X40268863Y53767320D01*
X44101100Y53778900D02*
X43620000Y54260000D01*
X36610000Y53768320D02*
X36610000Y53810000D01*
X44101100Y24861100D02*
X44101100Y42910000D01*
X43620000Y54260000D02*
X40761543Y54260000D01*
X44101100Y42910000D02*
X44101100Y53778900D01*
X31560000Y54500000D02*
X31000000Y53940000D01*
X43430000Y18200000D02*
X43430000Y24190000D01*
X26109600Y51450400D02*
X33327934Y51450400D01*
X25370000Y52190000D02*
X26109600Y51450400D01*
X43570000Y25200000D02*
X43570000Y45450000D01*
X33327934Y51450400D02*
X33763333Y51885800D01*
X33763333Y51885800D02*
X36206704Y51885800D01*
X36772100Y46021000D02*
X36770000Y46018900D01*
X36206704Y51885800D02*
X36772100Y51320404D01*
X36772100Y51320404D02*
X36772100Y46021000D01*
X6240000Y59120000D02*
X6240000Y62860000D01*
X39160000Y41420000D02*
X39160000Y57591300D01*
X39160000Y57591300D02*
X39230000Y57661300D01*
X40280000Y49020000D02*
X40280000Y53010000D01*
X39710000Y50470000D02*
X39710000Y46550000D01*
X15301100Y16970000D02*
X15301100Y56498900D01*
X15301100Y56498900D02*
X15300000Y56500000D01*
X58040000Y30210000D02*
X58040000Y44360000D01*
X58040000Y44360000D02*
X58070000Y44390000D01*
%TA.AperFunction,Conductor*%
G36*
X5187539Y44894815D02*
G01*
X5233294Y44842011D01*
X5244500Y44790500D01*
X5244500Y34695763D01*
X5224815Y34628724D01*
X5220818Y34622878D01*
X5132715Y34501614D01*
X5039781Y34319224D01*
X4976522Y34124535D01*
X4950110Y33957771D01*
X4944500Y33922352D01*
X4944500Y33717648D01*
X4945686Y33710161D01*
X4976522Y33515466D01*
X5039781Y33320777D01*
X5132715Y33138387D01*
X5253028Y32972787D01*
X5397786Y32828029D01*
X5563385Y32707716D01*
X5563387Y32707715D01*
X5563390Y32707713D01*
X5617378Y32680205D01*
X5668174Y32632231D01*
X5684969Y32564410D01*
X5662432Y32498275D01*
X5617378Y32459235D01*
X5563644Y32431857D01*
X5519077Y32399477D01*
X5519077Y32399476D01*
X6198554Y31720000D01*
X6192339Y31720000D01*
X6090606Y31692741D01*
X5999394Y31640080D01*
X5924920Y31565606D01*
X5872259Y31474394D01*
X5845000Y31372661D01*
X5845000Y31366447D01*
X5165524Y32045923D01*
X5165523Y32045923D01*
X5133143Y32001356D01*
X5040244Y31819032D01*
X4977009Y31624418D01*
X4945000Y31422318D01*
X4945000Y31217683D01*
X4977009Y31015583D01*
X5040244Y30820969D01*
X5133141Y30638650D01*
X5133147Y30638641D01*
X5165523Y30594079D01*
X5165524Y30594078D01*
X5845000Y31273554D01*
X5845000Y31267339D01*
X5872259Y31165606D01*
X5924920Y31074394D01*
X5999394Y30999920D01*
X6090606Y30947259D01*
X6192339Y30920000D01*
X6198553Y30920000D01*
X5519076Y30240526D01*
X5563650Y30208141D01*
X5745968Y30115245D01*
X5940582Y30052010D01*
X6142683Y30020000D01*
X6347317Y30020000D01*
X6549417Y30052010D01*
X6744031Y30115245D01*
X6926349Y30208141D01*
X6970921Y30240526D01*
X6291447Y30920000D01*
X6297661Y30920000D01*
X6399394Y30947259D01*
X6490606Y30999920D01*
X6565080Y31074394D01*
X6617741Y31165606D01*
X6645000Y31267339D01*
X6645000Y31273553D01*
X7324474Y30594079D01*
X7356859Y30638651D01*
X7449755Y30820969D01*
X7512990Y31015583D01*
X7545000Y31217683D01*
X7545000Y31422318D01*
X7512990Y31624418D01*
X7449755Y31819032D01*
X7356859Y32001350D01*
X7324474Y32045923D01*
X7324474Y32045924D01*
X6645000Y31366449D01*
X6645000Y31372661D01*
X6617741Y31474394D01*
X6565080Y31565606D01*
X6490606Y31640080D01*
X6399394Y31692741D01*
X6297661Y31720000D01*
X6291446Y31720000D01*
X6970922Y32399476D01*
X6970921Y32399477D01*
X6926359Y32431853D01*
X6926350Y32431859D01*
X6872621Y32459235D01*
X6821825Y32507209D01*
X6805030Y32575030D01*
X6827567Y32641165D01*
X6872621Y32680205D01*
X6926610Y32707713D01*
X7020816Y32776157D01*
X7092213Y32828029D01*
X7092215Y32828032D01*
X7092219Y32828034D01*
X7236966Y32972781D01*
X7236968Y32972785D01*
X7236971Y32972787D01*
X7291979Y33048501D01*
X7357287Y33138390D01*
X7450220Y33320781D01*
X7513477Y33515466D01*
X7545500Y33717648D01*
X7545500Y33922352D01*
X7539890Y33957771D01*
X7513477Y34124535D01*
X7463083Y34279631D01*
X7450220Y34319219D01*
X7450218Y34319222D01*
X7450218Y34319224D01*
X7401106Y34415610D01*
X7357287Y34501610D01*
X7306229Y34571886D01*
X7269182Y34622878D01*
X7245702Y34688684D01*
X7245500Y34695763D01*
X7245500Y37724231D01*
X7253075Y37750031D01*
X7257109Y37776616D01*
X7262770Y37783049D01*
X7265185Y37791270D01*
X7285504Y37808878D01*
X7303272Y37829063D01*
X7311513Y37831414D01*
X7317989Y37837025D01*
X7344604Y37840853D01*
X7370462Y37848227D01*
X7381009Y37846087D01*
X7387147Y37846969D01*
X7405357Y37842934D01*
X7411253Y37841153D01*
X7515774Y37797859D01*
X7629398Y37775258D01*
X7635157Y37773518D01*
X7659569Y37757560D01*
X7685402Y37744047D01*
X7688462Y37738673D01*
X7693640Y37735288D01*
X7705546Y37708673D01*
X7719977Y37683331D01*
X7721067Y37673977D01*
X7722171Y37671509D01*
X7721709Y37668466D01*
X7723300Y37654815D01*
X7723300Y37055924D01*
X7723300Y36904076D01*
X7758800Y36771586D01*
X7762602Y36757400D01*
X7762602Y36757399D01*
X7838522Y36625902D01*
X7838527Y36625896D01*
X8589582Y35874841D01*
X8623067Y35813518D01*
X8618083Y35743826D01*
X8589583Y35699479D01*
X8519889Y35629785D01*
X8394951Y35457821D01*
X8298444Y35268415D01*
X8232753Y35066240D01*
X8212196Y34936447D01*
X8199500Y34856287D01*
X8199500Y34643713D01*
X8205055Y34608641D01*
X8231707Y34440363D01*
X8232754Y34433757D01*
X8294277Y34244409D01*
X8298444Y34231586D01*
X8394951Y34042180D01*
X8519890Y33870214D01*
X8670213Y33719891D01*
X8842182Y33594950D01*
X8850946Y33590484D01*
X8901742Y33542509D01*
X8918536Y33474688D01*
X8895998Y33408553D01*
X8850946Y33369516D01*
X8842182Y33365051D01*
X8670213Y33240110D01*
X8519890Y33089787D01*
X8394951Y32917821D01*
X8298444Y32728415D01*
X8232753Y32526240D01*
X8199500Y32316287D01*
X8199500Y32103714D01*
X8231324Y31902781D01*
X8232754Y31893757D01*
X8298068Y31692741D01*
X8298444Y31691586D01*
X8394951Y31502180D01*
X8519890Y31330214D01*
X8670213Y31179891D01*
X8842182Y31054950D01*
X8850946Y31050484D01*
X8901742Y31002509D01*
X8918536Y30934688D01*
X8895998Y30868553D01*
X8850946Y30829516D01*
X8842182Y30825051D01*
X8670213Y30700110D01*
X8519890Y30549787D01*
X8394951Y30377821D01*
X8298444Y30188415D01*
X8298443Y30188413D01*
X8298443Y30188412D01*
X8276510Y30120909D01*
X8232753Y29986240D01*
X8229512Y29965774D01*
X8199500Y29776287D01*
X8199500Y29563713D01*
X8205095Y29528390D01*
X8231425Y29362143D01*
X8232754Y29353757D01*
X8294277Y29164409D01*
X8298444Y29151586D01*
X8394951Y28962180D01*
X8519890Y28790214D01*
X8670213Y28639891D01*
X8842182Y28514950D01*
X8850946Y28510484D01*
X8901742Y28462509D01*
X8918536Y28394688D01*
X8895998Y28328553D01*
X8850946Y28289516D01*
X8842182Y28285051D01*
X8670213Y28160110D01*
X8519890Y28009787D01*
X8394951Y27837821D01*
X8298444Y27648415D01*
X8232753Y27446240D01*
X8199500Y27236287D01*
X8199500Y27023714D01*
X8231324Y26822781D01*
X8232754Y26813757D01*
X8296321Y26618118D01*
X8298444Y26611586D01*
X8394951Y26422180D01*
X8519890Y26250214D01*
X8670213Y26099891D01*
X8842182Y25974950D01*
X8850946Y25970484D01*
X8901742Y25922509D01*
X8918536Y25854688D01*
X8895998Y25788553D01*
X8850946Y25749516D01*
X8842182Y25745051D01*
X8670213Y25620110D01*
X8519890Y25469787D01*
X8394951Y25297821D01*
X8298444Y25108415D01*
X8232753Y24906240D01*
X8199500Y24696287D01*
X8199500Y24483714D01*
X8231324Y24282781D01*
X8232754Y24273757D01*
X8296321Y24078118D01*
X8298444Y24071586D01*
X8394951Y23882180D01*
X8519890Y23710214D01*
X8670213Y23559891D01*
X8842182Y23434950D01*
X8850946Y23430484D01*
X8901742Y23382509D01*
X8918536Y23314688D01*
X8895998Y23248553D01*
X8850946Y23209516D01*
X8842182Y23205051D01*
X8670213Y23080110D01*
X8519890Y22929787D01*
X8394951Y22757821D01*
X8298444Y22568415D01*
X8232753Y22366240D01*
X8199500Y22156287D01*
X8199500Y21943714D01*
X8231324Y21742781D01*
X8232754Y21733757D01*
X8289576Y21558877D01*
X8298444Y21531586D01*
X8394951Y21342180D01*
X8519890Y21170214D01*
X8670213Y21019891D01*
X8842182Y20894950D01*
X8850946Y20890484D01*
X8901742Y20842509D01*
X8918536Y20774688D01*
X8895998Y20708553D01*
X8850946Y20669516D01*
X8842182Y20665051D01*
X8670213Y20540110D01*
X8519890Y20389787D01*
X8394951Y20217821D01*
X8298444Y20028415D01*
X8232753Y19826240D01*
X8204801Y19649755D01*
X8199500Y19616287D01*
X8199500Y19403713D01*
X8208118Y19349300D01*
X8232754Y19193756D01*
X8232754Y19193753D01*
X8254745Y19126073D01*
X8256740Y19056232D01*
X8224495Y19000074D01*
X7945898Y18721475D01*
X7838527Y18614105D01*
X7838522Y18614099D01*
X7762602Y18482602D01*
X7762602Y18482601D01*
X7723300Y18335924D01*
X7723300Y17521214D01*
X7703615Y17454175D01*
X7650811Y17408420D01*
X7581653Y17398476D01*
X7518097Y17427501D01*
X7480323Y17486279D01*
X7476827Y17501816D01*
X7468477Y17554535D01*
X7405218Y17749224D01*
X7364019Y17830080D01*
X7312287Y17931610D01*
X7262524Y18000104D01*
X7191971Y18097214D01*
X7047213Y18241972D01*
X6881614Y18362285D01*
X6838138Y18384437D01*
X6788917Y18409517D01*
X6738123Y18457489D01*
X6721328Y18525310D01*
X6743865Y18591445D01*
X6788917Y18630484D01*
X6881610Y18677713D01*
X6904660Y18694460D01*
X7047213Y18798029D01*
X7047215Y18798032D01*
X7047219Y18798034D01*
X7191966Y18942781D01*
X7191968Y18942785D01*
X7191971Y18942787D01*
X7275698Y19058029D01*
X7312287Y19108390D01*
X7405220Y19290781D01*
X7468477Y19485466D01*
X7500500Y19687648D01*
X7500500Y19892352D01*
X7479984Y20021882D01*
X7468477Y20094535D01*
X7405218Y20289224D01*
X7368140Y20361992D01*
X7312287Y20471610D01*
X7262524Y20540104D01*
X7191971Y20637214D01*
X7047213Y20781972D01*
X6881614Y20902285D01*
X6838138Y20924437D01*
X6788917Y20949517D01*
X6738123Y20997489D01*
X6721328Y21065310D01*
X6743865Y21131445D01*
X6788917Y21170484D01*
X6881610Y21217713D01*
X6904660Y21234460D01*
X7047213Y21338029D01*
X7047215Y21338032D01*
X7047219Y21338034D01*
X7191966Y21482781D01*
X7191968Y21482785D01*
X7191971Y21482787D01*
X7244732Y21555410D01*
X7312287Y21648390D01*
X7405220Y21830781D01*
X7468477Y22025466D01*
X7500500Y22227648D01*
X7500500Y22432352D01*
X7468477Y22634534D01*
X7467258Y22638285D01*
X7405218Y22829224D01*
X7333303Y22970363D01*
X7312287Y23011610D01*
X7262524Y23080104D01*
X7191971Y23177214D01*
X7047217Y23321968D01*
X7047212Y23321972D01*
X7010325Y23348772D01*
X6967659Y23404102D01*
X6961680Y23473715D01*
X6994286Y23535510D01*
X7055124Y23569867D01*
X7069956Y23572380D01*
X7107379Y23576404D01*
X7242086Y23626646D01*
X7242093Y23626650D01*
X7357187Y23712810D01*
X7357190Y23712813D01*
X7443350Y23827907D01*
X7443354Y23827914D01*
X7493596Y23962621D01*
X7493598Y23962628D01*
X7499999Y24022156D01*
X7500000Y24022173D01*
X7500000Y24620000D01*
X6515686Y24620000D01*
X6520080Y24624394D01*
X6572741Y24715606D01*
X6600000Y24817339D01*
X6600000Y24922661D01*
X6572741Y25024394D01*
X6520080Y25115606D01*
X6515686Y25120000D01*
X7500000Y25120000D01*
X7500000Y25717828D01*
X7499999Y25717845D01*
X7493598Y25777373D01*
X7493596Y25777380D01*
X7443354Y25912087D01*
X7443350Y25912094D01*
X7357190Y26027188D01*
X7357187Y26027191D01*
X7242093Y26113351D01*
X7242086Y26113355D01*
X7107379Y26163597D01*
X7107372Y26163599D01*
X7047844Y26170000D01*
X6450000Y26170000D01*
X6450000Y25185686D01*
X6445606Y25190080D01*
X6354394Y25242741D01*
X6252661Y25270000D01*
X6147339Y25270000D01*
X6045606Y25242741D01*
X5954394Y25190080D01*
X5950000Y25185686D01*
X5950000Y26170000D01*
X5352155Y26170000D01*
X5292627Y26163599D01*
X5292620Y26163597D01*
X5157913Y26113355D01*
X5157906Y26113351D01*
X5042812Y26027191D01*
X5042809Y26027188D01*
X4956649Y25912094D01*
X4956645Y25912087D01*
X4906403Y25777380D01*
X4906401Y25777373D01*
X4900000Y25717845D01*
X4900000Y25120000D01*
X5884314Y25120000D01*
X5879920Y25115606D01*
X5827259Y25024394D01*
X5800000Y24922661D01*
X5800000Y24817339D01*
X5827259Y24715606D01*
X5879920Y24624394D01*
X5884314Y24620000D01*
X4900000Y24620000D01*
X4900000Y24022156D01*
X4906401Y23962628D01*
X4906403Y23962621D01*
X4956645Y23827914D01*
X4956649Y23827907D01*
X5042809Y23712813D01*
X5042812Y23712810D01*
X5157906Y23626650D01*
X5157913Y23626646D01*
X5292620Y23576404D01*
X5330043Y23572380D01*
X5394595Y23545642D01*
X5434443Y23488250D01*
X5436937Y23418424D01*
X5401285Y23358335D01*
X5389675Y23348773D01*
X5352789Y23321974D01*
X5352782Y23321968D01*
X5208028Y23177214D01*
X5087715Y23011614D01*
X4994781Y22829224D01*
X4931522Y22634535D01*
X4899500Y22432352D01*
X4899500Y22227649D01*
X4931522Y22025466D01*
X4994781Y21830777D01*
X5036666Y21748575D01*
X5081985Y21659631D01*
X5087715Y21648387D01*
X5208028Y21482787D01*
X5352786Y21338029D01*
X5498330Y21232287D01*
X5518390Y21217713D01*
X5609840Y21171117D01*
X5611080Y21170485D01*
X5661876Y21122510D01*
X5678671Y21054689D01*
X5656134Y20988554D01*
X5611080Y20949515D01*
X5518386Y20902285D01*
X5352786Y20781972D01*
X5208028Y20637214D01*
X5087715Y20471614D01*
X4994781Y20289224D01*
X4931522Y20094535D01*
X4899500Y19892352D01*
X4899500Y19687649D01*
X4931522Y19485466D01*
X4994781Y19290777D01*
X5002426Y19275774D01*
X5077706Y19128029D01*
X5087715Y19108387D01*
X5208028Y18942787D01*
X5352786Y18798029D01*
X5498330Y18692287D01*
X5518390Y18677713D01*
X5609840Y18631117D01*
X5611080Y18630485D01*
X5661876Y18582510D01*
X5678671Y18514689D01*
X5656134Y18448554D01*
X5611080Y18409515D01*
X5518386Y18362285D01*
X5352786Y18241972D01*
X5208028Y18097214D01*
X5087715Y17931614D01*
X4994781Y17749224D01*
X4931522Y17554535D01*
X4908258Y17407649D01*
X4899500Y17352352D01*
X4899500Y17147648D01*
X4903878Y17120005D01*
X4931522Y16945466D01*
X4994781Y16750777D01*
X5038250Y16665466D01*
X5077706Y16588029D01*
X5087715Y16568387D01*
X5208028Y16402787D01*
X5352786Y16258029D01*
X5482820Y16163556D01*
X5518390Y16137713D01*
X5609840Y16091117D01*
X5611080Y16090485D01*
X5661876Y16042510D01*
X5678671Y15974689D01*
X5656134Y15908554D01*
X5611080Y15869515D01*
X5518386Y15822285D01*
X5352786Y15701972D01*
X5208028Y15557214D01*
X5087715Y15391614D01*
X4994781Y15209224D01*
X4931522Y15014535D01*
X4899500Y14812352D01*
X4899500Y14607649D01*
X4931522Y14405466D01*
X4994781Y14210777D01*
X5045309Y14111612D01*
X5084302Y14035084D01*
X5087715Y14028387D01*
X5208028Y13862787D01*
X5352786Y13718029D01*
X5498330Y13612287D01*
X5518390Y13597713D01*
X5611612Y13550214D01*
X5700776Y13504782D01*
X5700778Y13504782D01*
X5700781Y13504780D01*
X5805137Y13470873D01*
X5895465Y13441523D01*
X5986054Y13427175D01*
X6097648Y13409500D01*
X6097649Y13409500D01*
X6302351Y13409500D01*
X6302352Y13409500D01*
X6504534Y13441523D01*
X6699219Y13504780D01*
X6881610Y13597713D01*
X6974590Y13665268D01*
X7047213Y13718029D01*
X7047215Y13718032D01*
X7047219Y13718034D01*
X7191966Y13862781D01*
X7191968Y13862785D01*
X7191971Y13862787D01*
X7272216Y13973237D01*
X7312287Y14028390D01*
X7405220Y14210781D01*
X7468477Y14405466D01*
X7476827Y14458186D01*
X7506756Y14521320D01*
X7566068Y14558251D01*
X7635930Y14557253D01*
X7694163Y14518643D01*
X7722277Y14454680D01*
X7723300Y14438787D01*
X7723300Y6495924D01*
X7723300Y6344076D01*
X7759759Y6208007D01*
X7762602Y6197400D01*
X7762602Y6197399D01*
X7838522Y6065902D01*
X7838527Y6065896D01*
X10626042Y3278381D01*
X10659527Y3217058D01*
X10654543Y3147366D01*
X10612671Y3091433D01*
X10547207Y3067016D01*
X10538361Y3066700D01*
X8980239Y3066700D01*
X8913200Y3086385D01*
X8892558Y3103019D01*
X3513019Y8482558D01*
X3479534Y8543881D01*
X3476700Y8570239D01*
X3476700Y26519725D01*
X3496385Y26586764D01*
X3513022Y26607409D01*
X3523729Y26618116D01*
X3523731Y26618118D01*
X3611609Y26749637D01*
X3672141Y26895774D01*
X3697590Y27023714D01*
X3703000Y27050909D01*
X3703000Y27209092D01*
X3672142Y27364221D01*
X3672141Y27364222D01*
X3672141Y27364226D01*
X3611609Y27510363D01*
X3611608Y27510364D01*
X3611605Y27510370D01*
X3523731Y27641882D01*
X3523728Y27641886D01*
X3513019Y27652595D01*
X3479534Y27713918D01*
X3476700Y27740276D01*
X3476700Y35635922D01*
X3476700Y35635924D01*
X3437399Y35782598D01*
X3433684Y35789032D01*
X3361477Y35914099D01*
X3361472Y35914105D01*
X2542757Y36732820D01*
X2509272Y36794143D01*
X2514256Y36863835D01*
X2556128Y36919768D01*
X2621592Y36944185D01*
X2630438Y36944501D01*
X3867871Y36944501D01*
X3867872Y36944501D01*
X3927483Y36950909D01*
X4062331Y37001204D01*
X4177546Y37087454D01*
X4263796Y37202669D01*
X4314091Y37337517D01*
X4320500Y37397127D01*
X4320499Y39192872D01*
X4314091Y39252483D01*
X4312268Y39257370D01*
X4263797Y39387329D01*
X4263793Y39387336D01*
X4177547Y39502545D01*
X4177544Y39502548D01*
X4062335Y39588794D01*
X4062328Y39588798D01*
X3930917Y39637811D01*
X3874983Y39679682D01*
X3850566Y39745147D01*
X3865418Y39813420D01*
X3886563Y39841668D01*
X4000104Y39955208D01*
X4125051Y40127184D01*
X4221557Y40316588D01*
X4287246Y40518757D01*
X4320500Y40728713D01*
X4320500Y40941287D01*
X4287246Y41151243D01*
X4221557Y41353412D01*
X4125051Y41542816D01*
X4125049Y41542819D01*
X4125048Y41542821D01*
X4000109Y41714787D01*
X3849786Y41865110D01*
X3677820Y41990049D01*
X3677115Y41990409D01*
X3669054Y41994515D01*
X3618259Y42042488D01*
X3601463Y42110308D01*
X3623999Y42176444D01*
X3669054Y42215485D01*
X3677816Y42219949D01*
X3732996Y42260039D01*
X3849786Y42344891D01*
X3849788Y42344894D01*
X3849792Y42344896D01*
X4000104Y42495208D01*
X4000106Y42495212D01*
X4000109Y42495214D01*
X4125048Y42667180D01*
X4125047Y42667180D01*
X4125051Y42667184D01*
X4221557Y42856588D01*
X4287246Y43058757D01*
X4320500Y43268713D01*
X4320500Y43481287D01*
X4287246Y43691243D01*
X4221557Y43893412D01*
X4125051Y44082816D01*
X4125049Y44082819D01*
X4125048Y44082821D01*
X4000109Y44254787D01*
X3849786Y44405110D01*
X3677820Y44530049D01*
X3677115Y44530409D01*
X3669054Y44534515D01*
X3618259Y44582488D01*
X3601463Y44650308D01*
X3623999Y44716444D01*
X3669054Y44755485D01*
X3677816Y44759949D01*
X3719866Y44790500D01*
X3853734Y44887759D01*
X3854364Y44886892D01*
X3913419Y44913359D01*
X3930200Y44914500D01*
X5120500Y44914500D01*
X5187539Y44894815D01*
G37*
%TD.AperFunction*%
%TA.AperFunction,Conductor*%
G36*
X17003791Y30223073D02*
G01*
X17039446Y30162986D01*
X17043300Y30132313D01*
X17043300Y26822476D01*
X17023615Y26755437D01*
X17006981Y26734795D01*
X17005171Y26732986D01*
X17005168Y26732982D01*
X16917294Y26601470D01*
X16917289Y26601461D01*
X16856759Y26455327D01*
X16856757Y26455321D01*
X16825900Y26300192D01*
X16825900Y26300189D01*
X16825900Y26142011D01*
X16825900Y26142009D01*
X16825899Y26142009D01*
X16856757Y25986880D01*
X16856759Y25986874D01*
X16917289Y25840740D01*
X16917294Y25840731D01*
X17005168Y25709219D01*
X17005171Y25709215D01*
X17117014Y25597372D01*
X17117018Y25597369D01*
X17248530Y25509495D01*
X17248536Y25509492D01*
X17248537Y25509491D01*
X17394674Y25448959D01*
X17394678Y25448959D01*
X17394679Y25448958D01*
X17549808Y25418100D01*
X17549811Y25418100D01*
X17707991Y25418100D01*
X17812359Y25438861D01*
X17863126Y25448959D01*
X17951848Y25485710D01*
X18021316Y25493178D01*
X18083796Y25461903D01*
X18119448Y25401814D01*
X18123300Y25371148D01*
X18123300Y22650276D01*
X18103615Y22583237D01*
X18086981Y22562595D01*
X18076271Y22551886D01*
X18076268Y22551882D01*
X17988394Y22420370D01*
X17988389Y22420361D01*
X17927859Y22274227D01*
X17927857Y22274221D01*
X17897000Y22119092D01*
X17897000Y22119089D01*
X17897000Y21960911D01*
X17897000Y21960909D01*
X17896999Y21960909D01*
X17927857Y21805780D01*
X17927859Y21805774D01*
X17988389Y21659640D01*
X17988394Y21659631D01*
X18076268Y21528119D01*
X18076271Y21528115D01*
X18188114Y21416272D01*
X18188118Y21416269D01*
X18319630Y21328395D01*
X18319639Y21328390D01*
X18343571Y21318477D01*
X18465774Y21267859D01*
X18517907Y21257489D01*
X18579691Y21245199D01*
X18641602Y21212814D01*
X18676176Y21152099D01*
X18679500Y21123582D01*
X18679500Y4011455D01*
X18712632Y3844891D01*
X18706405Y3775300D01*
X18663542Y3720122D01*
X18597652Y3696878D01*
X18591015Y3696700D01*
X13446822Y3696700D01*
X13379783Y3716385D01*
X13334028Y3769189D01*
X13324084Y3838347D01*
X13328891Y3859018D01*
X13363476Y3965462D01*
X13363476Y3965463D01*
X13363477Y3965466D01*
X13395500Y4167648D01*
X13395500Y4372352D01*
X13374613Y4504227D01*
X13363477Y4574535D01*
X13330488Y4676065D01*
X13300220Y4769219D01*
X13300218Y4769222D01*
X13300218Y4769224D01*
X13264397Y4839526D01*
X13207287Y4951610D01*
X13186017Y4980886D01*
X13086971Y5117214D01*
X12942213Y5261972D01*
X12776614Y5382285D01*
X12765774Y5387808D01*
X12683917Y5429517D01*
X12633123Y5477489D01*
X12616328Y5545310D01*
X12638865Y5611445D01*
X12683917Y5650484D01*
X12776610Y5697713D01*
X12817215Y5727214D01*
X12942213Y5818029D01*
X12942215Y5818032D01*
X12942219Y5818034D01*
X13086966Y5962781D01*
X13086968Y5962785D01*
X13086971Y5962787D01*
X13151020Y6050944D01*
X13207287Y6128390D01*
X13300220Y6310781D01*
X13363477Y6505466D01*
X13395500Y6707648D01*
X13395500Y6912352D01*
X13371144Y7066128D01*
X13363477Y7114535D01*
X13300218Y7309224D01*
X13252206Y7403452D01*
X13207287Y7491610D01*
X13184952Y7522352D01*
X13086971Y7657214D01*
X12942213Y7801972D01*
X12776614Y7922285D01*
X12748323Y7936700D01*
X12683917Y7969517D01*
X12633123Y8017489D01*
X12616328Y8085310D01*
X12638865Y8151445D01*
X12683917Y8190484D01*
X12776610Y8237713D01*
X12850609Y8291476D01*
X12942213Y8358029D01*
X12942215Y8358032D01*
X12942219Y8358034D01*
X13086966Y8502781D01*
X13086968Y8502785D01*
X13086971Y8502787D01*
X13154075Y8595149D01*
X13207287Y8668390D01*
X13300220Y8850781D01*
X13363477Y9045466D01*
X13395500Y9247648D01*
X13395500Y9452352D01*
X13363477Y9654534D01*
X13359802Y9665845D01*
X13357805Y9735686D01*
X13393884Y9795519D01*
X13456584Y9826349D01*
X13525998Y9818387D01*
X13546623Y9807268D01*
X13679630Y9718395D01*
X13679639Y9718390D01*
X13685955Y9715774D01*
X13825774Y9657859D01*
X13825778Y9657859D01*
X13825779Y9657858D01*
X13980908Y9627000D01*
X13980911Y9627000D01*
X14139091Y9627000D01*
X14277525Y9654537D01*
X14294226Y9657859D01*
X14440363Y9718391D01*
X14571882Y9806269D01*
X14683731Y9918118D01*
X14771609Y10049637D01*
X14832141Y10195774D01*
X14845819Y10264535D01*
X14863000Y10350909D01*
X14863000Y10509092D01*
X14832142Y10664221D01*
X14832141Y10664222D01*
X14832141Y10664226D01*
X14785132Y10777716D01*
X14771610Y10810361D01*
X14771605Y10810370D01*
X14683731Y10941882D01*
X14683728Y10941886D01*
X14673019Y10952595D01*
X14639534Y11013918D01*
X14636700Y11040276D01*
X14636700Y12003000D01*
X14656385Y12070039D01*
X14709189Y12115794D01*
X14760700Y12127000D01*
X14817791Y12127000D01*
X14939384Y12151187D01*
X14972926Y12157859D01*
X15119063Y12218391D01*
X15250582Y12306269D01*
X15362431Y12418118D01*
X15450309Y12549637D01*
X15510841Y12695774D01*
X15541700Y12850911D01*
X15541700Y13009089D01*
X15541700Y13009092D01*
X15510842Y13164221D01*
X15510841Y13164222D01*
X15510841Y13164226D01*
X15456176Y13296198D01*
X15450310Y13310361D01*
X15450305Y13310370D01*
X15362431Y13441882D01*
X15362428Y13441886D01*
X15351719Y13452595D01*
X15318234Y13513918D01*
X15315400Y13540276D01*
X15315400Y16052349D01*
X15335085Y16119388D01*
X15387889Y16165143D01*
X15415209Y16173966D01*
X15535326Y16197859D01*
X15681463Y16258391D01*
X15812982Y16346269D01*
X15924831Y16458118D01*
X16012709Y16589637D01*
X16073241Y16735774D01*
X16091714Y16828641D01*
X16104100Y16890909D01*
X16104100Y17049092D01*
X16073242Y17204221D01*
X16073241Y17204222D01*
X16073241Y17204226D01*
X16012709Y17350363D01*
X16012708Y17350364D01*
X16012705Y17350370D01*
X15924831Y17481882D01*
X15924828Y17481886D01*
X15914119Y17492595D01*
X15880634Y17553918D01*
X15877800Y17580276D01*
X15877800Y18598575D01*
X15897485Y18665614D01*
X15950289Y18711369D01*
X15977609Y18720192D01*
X15984059Y18721475D01*
X16066426Y18737859D01*
X16212563Y18798391D01*
X16344082Y18886269D01*
X16455931Y18998118D01*
X16543809Y19129637D01*
X16604341Y19275774D01*
X16622764Y19368390D01*
X16635200Y19430909D01*
X16635200Y19589092D01*
X16604342Y19744221D01*
X16604341Y19744222D01*
X16604341Y19744226D01*
X16543809Y19890363D01*
X16543808Y19890364D01*
X16543805Y19890370D01*
X16455931Y20021882D01*
X16455928Y20021886D01*
X16445219Y20032595D01*
X16411734Y20093918D01*
X16408900Y20120276D01*
X16408900Y24849725D01*
X16428585Y24916764D01*
X16445222Y24937409D01*
X16455929Y24948116D01*
X16455931Y24948118D01*
X16543809Y25079637D01*
X16604341Y25225774D01*
X16618672Y25297821D01*
X16635200Y25380909D01*
X16635200Y25539092D01*
X16604342Y25694221D01*
X16604341Y25694222D01*
X16604341Y25694226D01*
X16543809Y25840363D01*
X16543808Y25840364D01*
X16543805Y25840370D01*
X16455931Y25971882D01*
X16455928Y25971886D01*
X16445219Y25982595D01*
X16411734Y26043918D01*
X16408900Y26070276D01*
X16408900Y30096143D01*
X16428585Y30163182D01*
X16481389Y30208937D01*
X16550547Y30218881D01*
X16557096Y30217759D01*
X16558500Y30217480D01*
X16560910Y30217000D01*
X16560911Y30217000D01*
X16719091Y30217000D01*
X16842207Y30241490D01*
X16874226Y30247859D01*
X16874233Y30247863D01*
X16880053Y30249627D01*
X16880603Y30247814D01*
X16941310Y30254344D01*
X17003791Y30223073D01*
G37*
%TD.AperFunction*%
%TA.AperFunction,Conductor*%
G36*
X23980621Y11165228D02*
G01*
X23983314Y11165517D01*
X24008745Y11158050D01*
X24105774Y11117859D01*
X24105778Y11117859D01*
X24105779Y11117858D01*
X24260908Y11087000D01*
X24260911Y11087000D01*
X24419090Y11087000D01*
X24440836Y11091326D01*
X24504009Y11103892D01*
X24573599Y11097665D01*
X24628777Y11054803D01*
X24652022Y10988913D01*
X24652200Y10982275D01*
X24652200Y9990276D01*
X24632515Y9923237D01*
X24615881Y9902595D01*
X24605171Y9891886D01*
X24605168Y9891882D01*
X24517294Y9760370D01*
X24517289Y9760361D01*
X24456759Y9614227D01*
X24456757Y9614221D01*
X24425900Y9459092D01*
X24425900Y9459089D01*
X24425900Y9300911D01*
X24425900Y9300909D01*
X24425899Y9300909D01*
X24456757Y9145780D01*
X24456759Y9145774D01*
X24517289Y8999640D01*
X24517294Y8999631D01*
X24605168Y8868119D01*
X24605171Y8868115D01*
X24717014Y8756272D01*
X24717018Y8756269D01*
X24848530Y8668395D01*
X24848539Y8668390D01*
X24848549Y8668386D01*
X24994674Y8607859D01*
X25058571Y8595149D01*
X25083491Y8590192D01*
X25145402Y8557808D01*
X25179976Y8497092D01*
X25183300Y8468575D01*
X25183300Y5859576D01*
X25163615Y5792537D01*
X25146981Y5771895D01*
X25136271Y5761186D01*
X25136268Y5761182D01*
X25048394Y5629670D01*
X25048389Y5629661D01*
X24987859Y5483527D01*
X24987857Y5483521D01*
X24957000Y5328392D01*
X24957000Y5328389D01*
X24957000Y5170211D01*
X24957000Y5170209D01*
X24956999Y5170209D01*
X24987857Y5015080D01*
X24987859Y5015074D01*
X25048389Y4868940D01*
X25048394Y4868931D01*
X25136268Y4737419D01*
X25136271Y4737415D01*
X25248114Y4625572D01*
X25248118Y4625569D01*
X25379630Y4537695D01*
X25379636Y4537692D01*
X25379637Y4537691D01*
X25525774Y4477159D01*
X25525778Y4477159D01*
X25525779Y4477158D01*
X25680908Y4446300D01*
X25680911Y4446300D01*
X25839089Y4446300D01*
X25886308Y4455693D01*
X25955898Y4449467D01*
X26011076Y4406605D01*
X26034322Y4340715D01*
X26034500Y4334076D01*
X26034500Y4167649D01*
X26066523Y3965465D01*
X26066523Y3965462D01*
X26101109Y3859018D01*
X26103104Y3789177D01*
X26067023Y3729344D01*
X26004322Y3698516D01*
X25983178Y3696700D01*
X23544681Y3696700D01*
X23477642Y3716385D01*
X23431887Y3769189D01*
X23421943Y3838347D01*
X23439400Y3883907D01*
X23438736Y3884262D01*
X23441563Y3889553D01*
X23441578Y3889590D01*
X23441606Y3889633D01*
X23441609Y3889637D01*
X23502141Y4035774D01*
X23512239Y4086541D01*
X23533000Y4190909D01*
X23533000Y4349092D01*
X23502142Y4504221D01*
X23502141Y4504222D01*
X23502141Y4504226D01*
X23441609Y4650363D01*
X23441608Y4650364D01*
X23441605Y4650370D01*
X23353731Y4781882D01*
X23353728Y4781886D01*
X23343019Y4792595D01*
X23309534Y4853918D01*
X23306700Y4880276D01*
X23306700Y10975053D01*
X23326385Y11042092D01*
X23379189Y11087847D01*
X23448347Y11097791D01*
X23454892Y11096670D01*
X23503505Y11087000D01*
X23503508Y11087000D01*
X23661688Y11087000D01*
X23766056Y11107761D01*
X23816823Y11117859D01*
X23913848Y11158049D01*
X23944362Y11161330D01*
X23974554Y11166776D01*
X23980621Y11165228D01*
G37*
%TD.AperFunction*%
%TA.AperFunction,Conductor*%
G36*
X33569437Y6372901D02*
G01*
X33573836Y6373041D01*
X33590155Y6365340D01*
X33606393Y6359413D01*
X33611140Y6356573D01*
X33678390Y6307713D01*
X33775387Y6258291D01*
X33779006Y6256125D01*
X33799970Y6233439D01*
X33822426Y6212230D01*
X33823471Y6208007D01*
X33826425Y6204811D01*
X33831795Y6174393D01*
X33839221Y6144409D01*
X33837817Y6140291D01*
X33838574Y6136005D01*
X33826647Y6107512D01*
X33816684Y6078275D01*
X33813114Y6075183D01*
X33811596Y6071554D01*
X33798585Y6062593D01*
X33771630Y6039235D01*
X33678644Y5991857D01*
X33634077Y5959477D01*
X33634077Y5959476D01*
X34313554Y5280000D01*
X34307339Y5280000D01*
X34205606Y5252741D01*
X34114394Y5200080D01*
X34039920Y5125606D01*
X33987259Y5034394D01*
X33960000Y4932661D01*
X33960000Y4926447D01*
X33280524Y5605923D01*
X33280523Y5605923D01*
X33248143Y5561356D01*
X33155244Y5379032D01*
X33092009Y5184418D01*
X33060000Y4982318D01*
X33060000Y4777683D01*
X33092009Y4575583D01*
X33155244Y4380969D01*
X33248141Y4198650D01*
X33248147Y4198641D01*
X33280523Y4154079D01*
X33280524Y4154078D01*
X33960000Y4833554D01*
X33960000Y4827339D01*
X33987259Y4725606D01*
X34039920Y4634394D01*
X34114394Y4559920D01*
X34205606Y4507259D01*
X34307339Y4480000D01*
X34313553Y4480000D01*
X33623146Y3789596D01*
X33617361Y3762053D01*
X33568310Y3712296D01*
X33508106Y3696700D01*
X29754681Y3696700D01*
X29687642Y3716385D01*
X29641887Y3769189D01*
X29631943Y3838347D01*
X29649400Y3883907D01*
X29648736Y3884262D01*
X29651563Y3889553D01*
X29651578Y3889590D01*
X29651606Y3889633D01*
X29651609Y3889637D01*
X29712141Y4035774D01*
X29722239Y4086541D01*
X29743000Y4190909D01*
X29743000Y4206061D01*
X29762685Y4273100D01*
X29779319Y4293742D01*
X29962737Y4477160D01*
X30148315Y4662739D01*
X30209636Y4696222D01*
X30279327Y4691238D01*
X30304883Y4678159D01*
X30380182Y4627846D01*
X30526319Y4567314D01*
X30526323Y4567314D01*
X30526324Y4567313D01*
X30681453Y4536455D01*
X30681456Y4536455D01*
X30839636Y4536455D01*
X30957599Y4559920D01*
X30994771Y4567314D01*
X31140908Y4627846D01*
X31272427Y4715724D01*
X31384276Y4827573D01*
X31472154Y4959092D01*
X31532686Y5105229D01*
X31542784Y5155996D01*
X31563545Y5260364D01*
X31563545Y5275517D01*
X31583230Y5342556D01*
X31599860Y5363194D01*
X32301244Y6064579D01*
X32362565Y6098062D01*
X32432256Y6093078D01*
X32436375Y6091457D01*
X32555335Y6042183D01*
X32565774Y6037859D01*
X32565778Y6037859D01*
X32565779Y6037858D01*
X32720908Y6007000D01*
X32720911Y6007000D01*
X32879091Y6007000D01*
X32983459Y6027761D01*
X33034226Y6037859D01*
X33180363Y6098391D01*
X33311882Y6186269D01*
X33423731Y6298118D01*
X33439620Y6321898D01*
X33444169Y6325701D01*
X33446461Y6331174D01*
X33470675Y6347853D01*
X33493230Y6366703D01*
X33499115Y6367443D01*
X33504002Y6370808D01*
X33533385Y6371748D01*
X33562555Y6375412D01*
X33569437Y6372901D01*
G37*
%TD.AperFunction*%
%TA.AperFunction,Conductor*%
G36*
X35716377Y6905441D02*
G01*
X35732613Y6891773D01*
X35828114Y6796272D01*
X35828118Y6796269D01*
X35959630Y6708395D01*
X35959639Y6708390D01*
X35992744Y6694678D01*
X36105774Y6647859D01*
X36105778Y6647859D01*
X36105779Y6647858D01*
X36260908Y6617000D01*
X36338945Y6617000D01*
X36405984Y6597315D01*
X36451739Y6544511D01*
X36461683Y6475353D01*
X36453508Y6445552D01*
X36452960Y6444230D01*
X36452957Y6444221D01*
X36422100Y6289092D01*
X36422100Y6289089D01*
X36422100Y6130911D01*
X36422100Y6130909D01*
X36422099Y6130909D01*
X36452957Y5975780D01*
X36452959Y5975774D01*
X36513489Y5829640D01*
X36513494Y5829631D01*
X36601368Y5698119D01*
X36601371Y5698115D01*
X36713214Y5586272D01*
X36713218Y5586269D01*
X36844730Y5498395D01*
X36844736Y5498392D01*
X36844737Y5498391D01*
X36990874Y5437859D01*
X37077449Y5420638D01*
X37079691Y5420192D01*
X37141602Y5387808D01*
X37176176Y5327092D01*
X37179500Y5298575D01*
X37179500Y4351459D01*
X37179500Y4351457D01*
X37179499Y4351457D01*
X37217947Y4158171D01*
X37217950Y4158161D01*
X37293364Y3976093D01*
X37293371Y3976080D01*
X37351162Y3889591D01*
X37372040Y3822914D01*
X37353556Y3755534D01*
X37301577Y3708843D01*
X37248060Y3696700D01*
X35211893Y3696700D01*
X35144854Y3716385D01*
X35099099Y3769189D01*
X35095200Y3791248D01*
X34406447Y4480000D01*
X34412661Y4480000D01*
X34514394Y4507259D01*
X34605606Y4559920D01*
X34680080Y4634394D01*
X34732741Y4725606D01*
X34760000Y4827339D01*
X34760000Y4833552D01*
X35439474Y4154078D01*
X35439474Y4154079D01*
X35471859Y4198651D01*
X35564755Y4380969D01*
X35627990Y4575583D01*
X35660000Y4777683D01*
X35660000Y4982318D01*
X35627990Y5184418D01*
X35564755Y5379032D01*
X35471859Y5561350D01*
X35439474Y5605923D01*
X35439474Y5605924D01*
X34760000Y4926449D01*
X34760000Y4932661D01*
X34732741Y5034394D01*
X34680080Y5125606D01*
X34605606Y5200080D01*
X34514394Y5252741D01*
X34412661Y5280000D01*
X34406446Y5280000D01*
X35085922Y5959476D01*
X35085921Y5959477D01*
X35041359Y5991853D01*
X35041350Y5991859D01*
X34948369Y6039235D01*
X34897573Y6087210D01*
X34880778Y6155031D01*
X34903315Y6221165D01*
X34948370Y6260205D01*
X34948920Y6260485D01*
X35041610Y6307713D01*
X35112770Y6359413D01*
X35207213Y6428029D01*
X35207215Y6428032D01*
X35207219Y6428034D01*
X35351966Y6572781D01*
X35351968Y6572785D01*
X35351971Y6572787D01*
X35472284Y6738386D01*
X35472285Y6738387D01*
X35472287Y6738390D01*
X35534448Y6860389D01*
X35582421Y6911183D01*
X35650242Y6927978D01*
X35716377Y6905441D01*
G37*
%TD.AperFunction*%
%TA.AperFunction,Conductor*%
G36*
X39333253Y15428036D02*
G01*
X39341553Y15427887D01*
X39373391Y15412655D01*
X39439630Y15368395D01*
X39439636Y15368392D01*
X39439637Y15368391D01*
X39585774Y15307859D01*
X39585778Y15307859D01*
X39585779Y15307858D01*
X39740908Y15277000D01*
X39740911Y15277000D01*
X39899091Y15277000D01*
X40003459Y15297761D01*
X40054226Y15307859D01*
X40101849Y15327586D01*
X40171316Y15335054D01*
X40233795Y15303780D01*
X40269448Y15243691D01*
X40273300Y15213024D01*
X40273300Y8625924D01*
X40273300Y8474076D01*
X40309967Y8337231D01*
X40312602Y8327400D01*
X40312602Y8327399D01*
X40388522Y8195902D01*
X40388527Y8195896D01*
X40694176Y7890247D01*
X40727661Y7828924D01*
X40724426Y7764249D01*
X40711523Y7724538D01*
X40679500Y7522352D01*
X40679500Y7317649D01*
X40711522Y7115466D01*
X40774781Y6920777D01*
X40824804Y6822603D01*
X40861797Y6750000D01*
X40867715Y6738387D01*
X40988028Y6572787D01*
X41132786Y6428029D01*
X41248340Y6344076D01*
X41298390Y6307713D01*
X41389840Y6261117D01*
X41391080Y6260485D01*
X41441876Y6212510D01*
X41458671Y6144689D01*
X41436134Y6078554D01*
X41391080Y6039515D01*
X41298386Y5992285D01*
X41132786Y5871972D01*
X40988028Y5727214D01*
X40867715Y5561614D01*
X40774781Y5379224D01*
X40711522Y5184535D01*
X40685542Y5020500D01*
X40679500Y4982352D01*
X40679500Y4777648D01*
X40697700Y4662737D01*
X40711523Y4575466D01*
X40724426Y4535754D01*
X40726421Y4465913D01*
X40694176Y4409755D01*
X40017442Y3733019D01*
X39956119Y3699534D01*
X39929761Y3696700D01*
X39111940Y3696700D01*
X39044901Y3716385D01*
X38999146Y3769189D01*
X38989202Y3838347D01*
X39008838Y3889591D01*
X39066628Y3976080D01*
X39066628Y3976081D01*
X39066632Y3976086D01*
X39142051Y4158165D01*
X39169019Y4293742D01*
X39180500Y4351457D01*
X39180500Y15309553D01*
X39183363Y15319305D01*
X39182097Y15329389D01*
X39193041Y15352265D01*
X39200185Y15376592D01*
X39207865Y15383247D01*
X39212252Y15392416D01*
X39233828Y15405744D01*
X39252989Y15422347D01*
X39263047Y15423794D01*
X39271695Y15429135D01*
X39297047Y15428683D01*
X39322147Y15432291D01*
X39333253Y15428036D01*
G37*
%TD.AperFunction*%
%TA.AperFunction,Conductor*%
G36*
X45050311Y19453615D02*
G01*
X45093756Y19405595D01*
X45112713Y19368390D01*
X45231083Y19205466D01*
X45233034Y19202781D01*
X45377786Y19058029D01*
X45543385Y18937716D01*
X45543387Y18937715D01*
X45543390Y18937713D01*
X45597988Y18909894D01*
X45636630Y18890205D01*
X45687426Y18842230D01*
X45704221Y18774409D01*
X45681684Y18708275D01*
X45636630Y18669235D01*
X45543644Y18621857D01*
X45499077Y18589477D01*
X45499077Y18589476D01*
X46178554Y17910000D01*
X46172339Y17910000D01*
X46070606Y17882741D01*
X45979394Y17830080D01*
X45904920Y17755606D01*
X45852259Y17664394D01*
X45825000Y17562661D01*
X45825000Y17556447D01*
X45145524Y18235923D01*
X45145523Y18235923D01*
X45113143Y18191355D01*
X45113138Y18191347D01*
X45079084Y18124512D01*
X45031110Y18073716D01*
X44963289Y18056921D01*
X44897154Y18079459D01*
X44853703Y18134174D01*
X44844600Y18180807D01*
X44844600Y19349300D01*
X44847150Y19357986D01*
X44845862Y19366947D01*
X44856840Y19390988D01*
X44864285Y19416339D01*
X44871125Y19422267D01*
X44874887Y19430503D01*
X44897121Y19444793D01*
X44917089Y19462094D01*
X44927603Y19464382D01*
X44933665Y19468277D01*
X44968600Y19473300D01*
X44983272Y19473300D01*
X45050311Y19453615D01*
G37*
%TD.AperFunction*%
%TA.AperFunction,Conductor*%
G36*
X13174474Y26404078D02*
G01*
X13174474Y26404079D01*
X13206859Y26448651D01*
X13248815Y26530993D01*
X13296789Y26581789D01*
X13364610Y26598584D01*
X13430745Y26576047D01*
X13474197Y26521332D01*
X13483300Y26474698D01*
X13483300Y25246402D01*
X13463615Y25179363D01*
X13410811Y25133608D01*
X13341653Y25123664D01*
X13278097Y25152689D01*
X13248815Y25190107D01*
X13245513Y25196586D01*
X13207287Y25271610D01*
X13199556Y25282251D01*
X13086971Y25437214D01*
X12942213Y25581972D01*
X12776611Y25702287D01*
X12683369Y25749797D01*
X12632574Y25797771D01*
X12615779Y25865593D01*
X12638317Y25931727D01*
X12683371Y25970766D01*
X12776346Y26018139D01*
X12776347Y26018139D01*
X12820921Y26050526D01*
X12141447Y26730000D01*
X12147661Y26730000D01*
X12249394Y26757259D01*
X12340606Y26809920D01*
X12415080Y26884394D01*
X12467741Y26975606D01*
X12495000Y27077339D01*
X12495000Y27083552D01*
X13174474Y26404078D01*
G37*
%TD.AperFunction*%
%TA.AperFunction,Conductor*%
G36*
X11695000Y27077339D02*
G01*
X11722259Y26975606D01*
X11774920Y26884394D01*
X11849394Y26809920D01*
X11940606Y26757259D01*
X12042339Y26730000D01*
X12048553Y26730000D01*
X11369076Y26050526D01*
X11413652Y26018139D01*
X11506628Y25970766D01*
X11557425Y25922792D01*
X11574220Y25854971D01*
X11551683Y25788836D01*
X11506630Y25749797D01*
X11413388Y25702287D01*
X11247786Y25581972D01*
X11103028Y25437214D01*
X10982713Y25271612D01*
X10961042Y25229080D01*
X10913067Y25178285D01*
X10845246Y25161490D01*
X10779112Y25184028D01*
X10740073Y25229081D01*
X10705051Y25297816D01*
X10705049Y25297819D01*
X10705048Y25297821D01*
X10580109Y25469787D01*
X10429786Y25620110D01*
X10257820Y25745049D01*
X10257115Y25745409D01*
X10249054Y25749515D01*
X10198259Y25797488D01*
X10181463Y25865308D01*
X10203999Y25931444D01*
X10249054Y25970485D01*
X10257816Y25974949D01*
X10316873Y26017856D01*
X10429786Y26099891D01*
X10429788Y26099894D01*
X10429792Y26099896D01*
X10580104Y26250208D01*
X10580106Y26250212D01*
X10580109Y26250214D01*
X10692791Y26405310D01*
X10705051Y26422184D01*
X10740353Y26491470D01*
X10788327Y26542265D01*
X10856147Y26559061D01*
X10922283Y26536524D01*
X10961323Y26491470D01*
X10983141Y26448650D01*
X10983147Y26448641D01*
X11015523Y26404079D01*
X11015524Y26404078D01*
X11695000Y27083554D01*
X11695000Y27077339D01*
G37*
%TD.AperFunction*%
%TA.AperFunction,Conductor*%
G36*
X10922003Y29075974D02*
G01*
X10961042Y29030921D01*
X10977974Y28997691D01*
X10982715Y28988386D01*
X11103028Y28822787D01*
X11247786Y28678029D01*
X11413385Y28557716D01*
X11413387Y28557715D01*
X11413390Y28557713D01*
X11506082Y28510484D01*
X11506630Y28510205D01*
X11557426Y28462230D01*
X11574221Y28394409D01*
X11551684Y28328275D01*
X11506630Y28289235D01*
X11413644Y28241857D01*
X11369077Y28209477D01*
X11369077Y28209476D01*
X12048554Y27530000D01*
X12042339Y27530000D01*
X11940606Y27502741D01*
X11849394Y27450080D01*
X11774920Y27375606D01*
X11722259Y27284394D01*
X11695000Y27182661D01*
X11695000Y27176447D01*
X11015524Y27855923D01*
X11015523Y27855923D01*
X10983143Y27811355D01*
X10983141Y27811352D01*
X10961322Y27768530D01*
X10913347Y27717734D01*
X10845526Y27700940D01*
X10779391Y27723478D01*
X10740353Y27768532D01*
X10705050Y27837818D01*
X10580109Y28009787D01*
X10429786Y28160110D01*
X10257820Y28285049D01*
X10249604Y28289235D01*
X10249054Y28289515D01*
X10198259Y28337488D01*
X10181463Y28405308D01*
X10203999Y28471444D01*
X10249054Y28510485D01*
X10257816Y28514949D01*
X10316676Y28557713D01*
X10429786Y28639891D01*
X10429788Y28639894D01*
X10429792Y28639896D01*
X10580104Y28790208D01*
X10580106Y28790212D01*
X10580109Y28790214D01*
X10667678Y28910745D01*
X10705051Y28962184D01*
X10740073Y29030920D01*
X10788047Y29081715D01*
X10855868Y29098511D01*
X10922003Y29075974D01*
G37*
%TD.AperFunction*%
%TA.AperFunction,Conductor*%
G36*
X13430745Y29114948D02*
G01*
X13474197Y29060233D01*
X13483300Y29013599D01*
X13483300Y27785303D01*
X13463615Y27718264D01*
X13410811Y27672509D01*
X13341653Y27662565D01*
X13278097Y27691590D01*
X13248815Y27729008D01*
X13206859Y27811350D01*
X13174474Y27855923D01*
X13174474Y27855924D01*
X12495000Y27176449D01*
X12495000Y27182661D01*
X12467741Y27284394D01*
X12415080Y27375606D01*
X12340606Y27450080D01*
X12249394Y27502741D01*
X12147661Y27530000D01*
X12141446Y27530000D01*
X12820922Y28209476D01*
X12820921Y28209477D01*
X12776359Y28241853D01*
X12776350Y28241859D01*
X12683369Y28289235D01*
X12632573Y28337210D01*
X12615778Y28405031D01*
X12638315Y28471165D01*
X12683370Y28510205D01*
X12683918Y28510484D01*
X12776610Y28557713D01*
X12851461Y28612095D01*
X12942213Y28678029D01*
X12942215Y28678032D01*
X12942219Y28678034D01*
X13086966Y28822781D01*
X13086968Y28822785D01*
X13086971Y28822787D01*
X13207284Y28988386D01*
X13207283Y28988386D01*
X13207287Y28988390D01*
X13248815Y29069895D01*
X13296789Y29120690D01*
X13364610Y29137485D01*
X13430745Y29114948D01*
G37*
%TD.AperFunction*%
%TA.AperFunction,Conductor*%
G36*
X38524467Y43270906D02*
G01*
X38571157Y43218927D01*
X38583300Y43165410D01*
X38583300Y42030276D01*
X38563615Y41963237D01*
X38546981Y41942595D01*
X38536271Y41931886D01*
X38536268Y41931882D01*
X38448394Y41800370D01*
X38448389Y41800361D01*
X38387859Y41654227D01*
X38387857Y41654221D01*
X38357000Y41499092D01*
X38357000Y41499089D01*
X38357000Y41340911D01*
X38357000Y41340909D01*
X38356999Y41340909D01*
X38387857Y41185780D01*
X38387859Y41185774D01*
X38448389Y41039640D01*
X38448394Y41039631D01*
X38536268Y40908119D01*
X38536271Y40908115D01*
X38648114Y40796272D01*
X38648118Y40796269D01*
X38779630Y40708395D01*
X38779639Y40708390D01*
X38812744Y40694678D01*
X38925774Y40647859D01*
X38925778Y40647859D01*
X38925779Y40647858D01*
X39080903Y40617001D01*
X39080908Y40617001D01*
X39080911Y40617000D01*
X39080913Y40617000D01*
X39081442Y40616948D01*
X39081706Y40616842D01*
X39086886Y40615811D01*
X39086690Y40614830D01*
X39146232Y40590793D01*
X39186596Y40533763D01*
X39193300Y40493544D01*
X39193300Y34950276D01*
X39173615Y34883237D01*
X39156981Y34862595D01*
X39146271Y34851886D01*
X39146268Y34851882D01*
X39058394Y34720370D01*
X39058389Y34720361D01*
X38997859Y34574227D01*
X38997857Y34574221D01*
X38967000Y34419092D01*
X38967000Y34419089D01*
X38967000Y34260911D01*
X38967000Y34260909D01*
X38966999Y34260909D01*
X38997857Y34105780D01*
X38997859Y34105774D01*
X39058389Y33959640D01*
X39058394Y33959631D01*
X39146268Y33828119D01*
X39146271Y33828115D01*
X39258114Y33716272D01*
X39258118Y33716269D01*
X39389630Y33628395D01*
X39389639Y33628390D01*
X39422744Y33614678D01*
X39535774Y33567859D01*
X39535778Y33567859D01*
X39535779Y33567858D01*
X39690908Y33537000D01*
X39808900Y33537000D01*
X39875939Y33517315D01*
X39921694Y33464511D01*
X39932900Y33413000D01*
X39932900Y32239636D01*
X39913215Y32172597D01*
X39860411Y32126842D01*
X39791253Y32116898D01*
X39789237Y32117283D01*
X39789229Y32117228D01*
X39582317Y32150000D01*
X39377683Y32150000D01*
X39175582Y32117991D01*
X38980968Y32054756D01*
X38798644Y31961857D01*
X38754077Y31929477D01*
X38754077Y31929476D01*
X39433553Y31250000D01*
X39427339Y31250000D01*
X39325606Y31222741D01*
X39234394Y31170080D01*
X39159920Y31095606D01*
X39107259Y31004394D01*
X39080000Y30902661D01*
X39080000Y30896447D01*
X38400524Y31575923D01*
X38400523Y31575923D01*
X38368143Y31531356D01*
X38275244Y31349032D01*
X38212009Y31154418D01*
X38180000Y30952318D01*
X38180000Y30747683D01*
X38212009Y30545583D01*
X38275244Y30350969D01*
X38368141Y30168650D01*
X38368147Y30168641D01*
X38400523Y30124079D01*
X38400524Y30124078D01*
X39080000Y30803554D01*
X39080000Y30797339D01*
X39107259Y30695606D01*
X39159920Y30604394D01*
X39234394Y30529920D01*
X39325606Y30477259D01*
X39427339Y30450000D01*
X39433552Y30450000D01*
X38752459Y29768909D01*
X38739363Y29706570D01*
X38690310Y29656814D01*
X38622145Y29641476D01*
X38582657Y29650659D01*
X38434226Y29712141D01*
X38434220Y29712143D01*
X38279091Y29743000D01*
X38279089Y29743000D01*
X38120911Y29743000D01*
X38120909Y29743000D01*
X37965779Y29712143D01*
X37965773Y29712141D01*
X37819639Y29651611D01*
X37819625Y29651603D01*
X37740690Y29598860D01*
X37674013Y29577982D01*
X37606633Y29596467D01*
X37559943Y29648446D01*
X37547800Y29701962D01*
X37547800Y32139725D01*
X37567485Y32206764D01*
X37584122Y32227409D01*
X37594829Y32238116D01*
X37594831Y32238118D01*
X37682709Y32369637D01*
X37743241Y32515774D01*
X37768271Y32641606D01*
X37774100Y32670909D01*
X37774100Y32829092D01*
X37743242Y32984221D01*
X37743241Y32984222D01*
X37743241Y32984226D01*
X37682709Y33130363D01*
X37682708Y33130364D01*
X37682705Y33130370D01*
X37594831Y33261882D01*
X37594828Y33261886D01*
X37482985Y33373729D01*
X37482981Y33373732D01*
X37351469Y33461606D01*
X37351460Y33461611D01*
X37205326Y33522141D01*
X37205320Y33522143D01*
X37116508Y33539809D01*
X37054597Y33572194D01*
X37020023Y33632910D01*
X37016700Y33661426D01*
X37016700Y33979725D01*
X37036385Y34046764D01*
X37053014Y34067402D01*
X37133731Y34148118D01*
X37221609Y34279637D01*
X37282141Y34425774D01*
X37297227Y34501614D01*
X37313000Y34580909D01*
X37313000Y34739092D01*
X37282142Y34894221D01*
X37282141Y34894222D01*
X37282141Y34894226D01*
X37221609Y35040363D01*
X37221608Y35040364D01*
X37221605Y35040370D01*
X37133731Y35171882D01*
X37133728Y35171886D01*
X37021885Y35283729D01*
X37021881Y35283732D01*
X36890369Y35371606D01*
X36890360Y35371611D01*
X36744226Y35432141D01*
X36744220Y35432143D01*
X36589091Y35463000D01*
X36589089Y35463000D01*
X36430911Y35463000D01*
X36430909Y35463000D01*
X36275779Y35432143D01*
X36275773Y35432141D01*
X36129639Y35371611D01*
X36129630Y35371606D01*
X35998118Y35283732D01*
X35998114Y35283729D01*
X35886271Y35171886D01*
X35886268Y35171882D01*
X35798394Y35040370D01*
X35798389Y35040361D01*
X35737859Y34894227D01*
X35737857Y34894221D01*
X35707000Y34739092D01*
X35707000Y34739089D01*
X35707000Y34580911D01*
X35707000Y34580909D01*
X35706999Y34580909D01*
X35737857Y34425780D01*
X35737859Y34425774D01*
X35798389Y34279640D01*
X35798394Y34279632D01*
X35842402Y34213770D01*
X35863280Y34147093D01*
X35863300Y34144879D01*
X35863300Y32843196D01*
X35843615Y32776157D01*
X35790811Y32730402D01*
X35763492Y32721579D01*
X35665779Y32702143D01*
X35665773Y32702141D01*
X35519639Y32641611D01*
X35519630Y32641606D01*
X35388118Y32553732D01*
X35388114Y32553729D01*
X35276271Y32441886D01*
X35276268Y32441882D01*
X35188394Y32310370D01*
X35188389Y32310361D01*
X35127859Y32164227D01*
X35127857Y32164221D01*
X35097000Y32009092D01*
X35097000Y32009089D01*
X35097000Y31850911D01*
X35097000Y31850909D01*
X35096999Y31850909D01*
X35127857Y31695780D01*
X35127859Y31695774D01*
X35188389Y31549640D01*
X35188394Y31549631D01*
X35276268Y31418119D01*
X35276270Y31418116D01*
X35286978Y31407409D01*
X35320465Y31346087D01*
X35323300Y31319725D01*
X35323300Y29115397D01*
X35303615Y29048358D01*
X35250811Y29002603D01*
X35181653Y28992659D01*
X35160296Y28997691D01*
X35145753Y29002510D01*
X35062797Y29029999D01*
X35062795Y29030000D01*
X34960016Y29040500D01*
X34960009Y29040500D01*
X33926439Y29040500D01*
X33859400Y29060185D01*
X33838758Y29076819D01*
X33593019Y29322558D01*
X33559534Y29383881D01*
X33556700Y29410239D01*
X33556700Y30108575D01*
X33576385Y30175614D01*
X33629189Y30221369D01*
X33656509Y30230192D01*
X33658008Y30230491D01*
X33745326Y30247859D01*
X33891463Y30308391D01*
X34022982Y30396269D01*
X34134831Y30508118D01*
X34222709Y30639637D01*
X34283241Y30785774D01*
X34296016Y30849999D01*
X34314100Y30940909D01*
X34314100Y31099092D01*
X34283242Y31254221D01*
X34283241Y31254222D01*
X34283241Y31254226D01*
X34222709Y31400363D01*
X34222708Y31400364D01*
X34222705Y31400370D01*
X34134831Y31531882D01*
X34134828Y31531886D01*
X34124119Y31542595D01*
X34090634Y31603918D01*
X34087800Y31630276D01*
X34087800Y34049725D01*
X34107485Y34116764D01*
X34124122Y34137409D01*
X34134829Y34148116D01*
X34134831Y34148118D01*
X34222709Y34279637D01*
X34283241Y34425774D01*
X34298327Y34501614D01*
X34314100Y34580909D01*
X34314100Y34739092D01*
X34283242Y34894221D01*
X34283241Y34894222D01*
X34283241Y34894226D01*
X34222709Y35040363D01*
X34222708Y35040364D01*
X34222705Y35040370D01*
X34134831Y35171882D01*
X34134828Y35171886D01*
X34022985Y35283729D01*
X34022977Y35283735D01*
X33953150Y35330392D01*
X33908344Y35384004D01*
X33899637Y35453329D01*
X33900423Y35457687D01*
X33906087Y35486157D01*
X33913000Y35520911D01*
X33913000Y35679089D01*
X33913000Y35679092D01*
X33882142Y35834221D01*
X33882141Y35834222D01*
X33882141Y35834226D01*
X33821609Y35980363D01*
X33821608Y35980364D01*
X33821605Y35980370D01*
X33733731Y36111882D01*
X33733728Y36111886D01*
X33723019Y36122595D01*
X33708315Y36149523D01*
X33691723Y36175341D01*
X33690831Y36181542D01*
X33689534Y36183918D01*
X33686700Y36210276D01*
X33686700Y36454238D01*
X33706385Y36521277D01*
X33759189Y36567032D01*
X33828347Y36576976D01*
X33861230Y36566547D01*
X33861464Y36567110D01*
X33865962Y36565248D01*
X34060582Y36502010D01*
X34262683Y36470000D01*
X34467317Y36470000D01*
X34669417Y36502010D01*
X34864031Y36565245D01*
X35046349Y36658141D01*
X35090921Y36690526D01*
X34411447Y37370000D01*
X34417661Y37370000D01*
X34519394Y37397259D01*
X34610606Y37449920D01*
X34685080Y37524394D01*
X34737741Y37615606D01*
X34765000Y37717339D01*
X34765000Y37723552D01*
X35444474Y37044078D01*
X35444474Y37044079D01*
X35476859Y37088651D01*
X35569755Y37270969D01*
X35632990Y37465583D01*
X35665000Y37667683D01*
X35665000Y37872318D01*
X35632990Y38074418D01*
X35569755Y38269032D01*
X35476859Y38451350D01*
X35444474Y38495923D01*
X35444474Y38495924D01*
X34765000Y37816449D01*
X34765000Y37822661D01*
X34737741Y37924394D01*
X34685080Y38015606D01*
X34610606Y38090080D01*
X34519394Y38142741D01*
X34417661Y38170000D01*
X34411446Y38170000D01*
X35090922Y38849476D01*
X35090921Y38849477D01*
X35046359Y38881853D01*
X35046350Y38881859D01*
X34953369Y38929235D01*
X34902573Y38977210D01*
X34885778Y39045031D01*
X34908315Y39111165D01*
X34953370Y39150205D01*
X34995056Y39171445D01*
X35046610Y39197713D01*
X35121995Y39252483D01*
X35212213Y39318029D01*
X35212215Y39318032D01*
X35212219Y39318034D01*
X35356966Y39462781D01*
X35356968Y39462785D01*
X35356971Y39462787D01*
X35448519Y39588794D01*
X35477287Y39628390D01*
X35570220Y39810781D01*
X35633477Y40005466D01*
X35665500Y40207648D01*
X35665500Y40412352D01*
X35654961Y40478893D01*
X35633477Y40614535D01*
X35580325Y40778119D01*
X35570220Y40809219D01*
X35570218Y40809222D01*
X35570218Y40809224D01*
X35519051Y40909644D01*
X35477287Y40991610D01*
X35443955Y41037488D01*
X35356971Y41157214D01*
X35212213Y41301972D01*
X35046614Y41422285D01*
X35034813Y41428298D01*
X34953917Y41469517D01*
X34903123Y41517489D01*
X34886328Y41585310D01*
X34908865Y41651445D01*
X34953917Y41690484D01*
X35046610Y41737713D01*
X35093666Y41771901D01*
X35212213Y41858029D01*
X35212215Y41858032D01*
X35212219Y41858034D01*
X35356966Y42002781D01*
X35356968Y42002785D01*
X35356971Y42002787D01*
X35444631Y42123443D01*
X35477287Y42168390D01*
X35570220Y42350781D01*
X35633477Y42545466D01*
X35665500Y42747648D01*
X35665500Y42952352D01*
X35648021Y43062708D01*
X35656975Y43131999D01*
X35701971Y43185451D01*
X35768723Y43206091D01*
X35817945Y43196666D01*
X35935774Y43147859D01*
X35935778Y43147859D01*
X35935779Y43147858D01*
X36090908Y43117000D01*
X36090911Y43117000D01*
X36249091Y43117000D01*
X36353459Y43137761D01*
X36404226Y43147859D01*
X36451849Y43167586D01*
X36521316Y43175054D01*
X36583795Y43143780D01*
X36619448Y43083691D01*
X36623300Y43053024D01*
X36623300Y40088576D01*
X36603615Y40021537D01*
X36586981Y40000895D01*
X36576271Y39990186D01*
X36576268Y39990182D01*
X36488394Y39858670D01*
X36488389Y39858661D01*
X36427859Y39712527D01*
X36427857Y39712521D01*
X36397000Y39557392D01*
X36397000Y39557389D01*
X36397000Y39399211D01*
X36397000Y39399209D01*
X36396999Y39399209D01*
X36427857Y39244080D01*
X36427859Y39244074D01*
X36488389Y39097940D01*
X36488394Y39097931D01*
X36576268Y38966419D01*
X36576271Y38966415D01*
X36688114Y38854572D01*
X36688118Y38854569D01*
X36819630Y38766695D01*
X36819636Y38766692D01*
X36819637Y38766691D01*
X36965774Y38706159D01*
X36965778Y38706159D01*
X36965779Y38706158D01*
X37120908Y38675300D01*
X37120911Y38675300D01*
X37279091Y38675300D01*
X37383459Y38696061D01*
X37434226Y38706159D01*
X37580363Y38766691D01*
X37711882Y38854569D01*
X37823731Y38966418D01*
X37911609Y39097937D01*
X37972141Y39244074D01*
X37989388Y39330781D01*
X38003000Y39399209D01*
X38003000Y39557392D01*
X37972142Y39712521D01*
X37972141Y39712522D01*
X37972141Y39712526D01*
X37911609Y39858663D01*
X37911608Y39858664D01*
X37911605Y39858670D01*
X37823731Y39990182D01*
X37823728Y39990186D01*
X37813019Y40000895D01*
X37779534Y40062218D01*
X37776700Y40088576D01*
X37776700Y43013000D01*
X37796385Y43080039D01*
X37849189Y43125794D01*
X37900700Y43137000D01*
X38029091Y43137000D01*
X38135019Y43158071D01*
X38184226Y43167859D01*
X38330363Y43228391D01*
X38333325Y43230370D01*
X38390409Y43268512D01*
X38457086Y43289390D01*
X38524467Y43270906D01*
G37*
%TD.AperFunction*%
%TA.AperFunction,Conductor*%
G36*
X18638356Y62199486D02*
G01*
X18675079Y62140046D01*
X18679500Y62107232D01*
X18679500Y29506419D01*
X18659815Y29439380D01*
X18607011Y29393625D01*
X18579692Y29384802D01*
X18465779Y29362143D01*
X18465778Y29362142D01*
X18465777Y29362142D01*
X18465774Y29362141D01*
X18425631Y29345513D01*
X18368152Y29321705D01*
X18298682Y29314237D01*
X18236203Y29345513D01*
X18200551Y29405602D01*
X18196700Y29436267D01*
X18196700Y32559725D01*
X18216385Y32626764D01*
X18233022Y32647409D01*
X18243729Y32658116D01*
X18243731Y32658118D01*
X18331609Y32789637D01*
X18392141Y32935774D01*
X18415764Y33054534D01*
X18423000Y33090909D01*
X18423000Y33249092D01*
X18392142Y33404221D01*
X18392141Y33404222D01*
X18392141Y33404226D01*
X18332539Y33548118D01*
X18331610Y33550361D01*
X18331605Y33550370D01*
X18243731Y33681882D01*
X18243728Y33681886D01*
X18221244Y33704370D01*
X18187759Y33765693D01*
X18189150Y33824145D01*
X18194600Y33844480D01*
X18194600Y33996328D01*
X18194600Y61901579D01*
X18214285Y61968618D01*
X18249710Y62004681D01*
X18313572Y62047354D01*
X18341882Y62066269D01*
X18453731Y62178118D01*
X18453733Y62178122D01*
X18457595Y62182826D01*
X18459020Y62181656D01*
X18506002Y62220924D01*
X18575326Y62229637D01*
X18638356Y62199486D01*
G37*
%TD.AperFunction*%
%TA.AperFunction,Conductor*%
G36*
X16549119Y46747783D02*
G01*
X16550547Y46747988D01*
X16580346Y46739813D01*
X16705774Y46687859D01*
X16705778Y46687859D01*
X16705779Y46687858D01*
X16860908Y46657000D01*
X16917200Y46657000D01*
X16984239Y46637315D01*
X17029994Y46584511D01*
X17041200Y46533000D01*
X17041200Y34210643D01*
X17021515Y34143604D01*
X17004881Y34122962D01*
X16620581Y33738662D01*
X16559258Y33705177D01*
X16489566Y33710161D01*
X16433633Y33752033D01*
X16409216Y33817497D01*
X16408900Y33826343D01*
X16408900Y46625250D01*
X16418143Y46656731D01*
X16426259Y46688524D01*
X16427938Y46690088D01*
X16428585Y46692289D01*
X16453373Y46713769D01*
X16477396Y46736134D01*
X16479655Y46736542D01*
X16481389Y46738044D01*
X16513871Y46742715D01*
X16546156Y46748539D01*
X16549119Y46747783D01*
G37*
%TD.AperFunction*%
%TA.AperFunction,Conductor*%
G36*
X13430745Y36734948D02*
G01*
X13474197Y36680233D01*
X13483300Y36633599D01*
X13483300Y35932714D01*
X13463615Y35865675D01*
X13410811Y35819920D01*
X13341653Y35809976D01*
X13278097Y35839001D01*
X13271619Y35845033D01*
X12968099Y36148553D01*
X12934614Y36209876D01*
X12939598Y36279568D01*
X12968095Y36323911D01*
X13086966Y36442781D01*
X13091859Y36449515D01*
X13207284Y36608386D01*
X13207283Y36608386D01*
X13207287Y36608390D01*
X13248815Y36689895D01*
X13296789Y36740690D01*
X13364610Y36757485D01*
X13430745Y36734948D01*
G37*
%TD.AperFunction*%
%TA.AperFunction,Conductor*%
G36*
X13430745Y39274948D02*
G01*
X13474197Y39220233D01*
X13483300Y39173599D01*
X13483300Y37946402D01*
X13463615Y37879363D01*
X13410811Y37833608D01*
X13341653Y37823664D01*
X13278097Y37852689D01*
X13248815Y37890107D01*
X13239143Y37909089D01*
X13207287Y37971610D01*
X13193845Y37990111D01*
X13086971Y38137214D01*
X12942213Y38281972D01*
X12776614Y38402285D01*
X12753783Y38413918D01*
X12683917Y38449517D01*
X12633123Y38497489D01*
X12616328Y38565310D01*
X12638865Y38631445D01*
X12683917Y38670484D01*
X12776610Y38717713D01*
X12837520Y38761966D01*
X12942213Y38838029D01*
X12942215Y38838032D01*
X12942219Y38838034D01*
X13086966Y38982781D01*
X13086968Y38982785D01*
X13086971Y38982787D01*
X13207284Y39148386D01*
X13207283Y39148386D01*
X13207287Y39148390D01*
X13248815Y39229895D01*
X13296789Y39280690D01*
X13364610Y39297485D01*
X13430745Y39274948D01*
G37*
%TD.AperFunction*%
%TA.AperFunction,Conductor*%
G36*
X13430745Y41814948D02*
G01*
X13474197Y41760233D01*
X13483300Y41713599D01*
X13483300Y40486402D01*
X13463615Y40419363D01*
X13410811Y40373608D01*
X13341653Y40363664D01*
X13278097Y40392689D01*
X13248815Y40430107D01*
X13223956Y40478895D01*
X13207287Y40511610D01*
X13191192Y40533763D01*
X13086971Y40677214D01*
X12942213Y40821972D01*
X12776614Y40942285D01*
X12752680Y40954480D01*
X12683917Y40989517D01*
X12633123Y41037489D01*
X12616328Y41105310D01*
X12638865Y41171445D01*
X12683917Y41210484D01*
X12776610Y41257713D01*
X12842461Y41305556D01*
X12942213Y41378029D01*
X12942215Y41378032D01*
X12942219Y41378034D01*
X13086966Y41522781D01*
X13086968Y41522785D01*
X13086971Y41522787D01*
X13194195Y41670370D01*
X13207287Y41688390D01*
X13248815Y41769895D01*
X13296789Y41820690D01*
X13364610Y41837485D01*
X13430745Y41814948D01*
G37*
%TD.AperFunction*%
%TA.AperFunction,Conductor*%
G36*
X13430745Y44354948D02*
G01*
X13474197Y44300233D01*
X13483300Y44253599D01*
X13483300Y43026402D01*
X13463615Y42959363D01*
X13410811Y42913608D01*
X13341653Y42903664D01*
X13278097Y42932689D01*
X13248815Y42970107D01*
X13245513Y42976586D01*
X13207287Y43051610D01*
X13188678Y43077223D01*
X13086971Y43217214D01*
X12942213Y43361972D01*
X12776614Y43482285D01*
X12760528Y43490481D01*
X12683917Y43529517D01*
X12633123Y43577489D01*
X12616328Y43645310D01*
X12638865Y43711445D01*
X12683917Y43750484D01*
X12776610Y43797713D01*
X12803469Y43817227D01*
X12942213Y43918029D01*
X12942215Y43918032D01*
X12942219Y43918034D01*
X13086966Y44062781D01*
X13086968Y44062785D01*
X13086971Y44062787D01*
X13207284Y44228386D01*
X13207285Y44228387D01*
X13207287Y44228390D01*
X13248815Y44309895D01*
X13296789Y44360690D01*
X13364610Y44377485D01*
X13430745Y44354948D01*
G37*
%TD.AperFunction*%
%TA.AperFunction,Conductor*%
G36*
X13430745Y46894948D02*
G01*
X13474197Y46840233D01*
X13483300Y46793599D01*
X13483300Y45566402D01*
X13463615Y45499363D01*
X13410811Y45453608D01*
X13341653Y45443664D01*
X13278097Y45472689D01*
X13248815Y45510107D01*
X13245513Y45516586D01*
X13207287Y45591610D01*
X13183590Y45624226D01*
X13086971Y45757214D01*
X12942213Y45901972D01*
X12776614Y46022285D01*
X12716332Y46053000D01*
X12683917Y46069517D01*
X12633123Y46117489D01*
X12616328Y46185310D01*
X12638865Y46251445D01*
X12683917Y46290484D01*
X12776610Y46337713D01*
X12837528Y46381972D01*
X12942213Y46458029D01*
X12942215Y46458032D01*
X12942219Y46458034D01*
X13086966Y46602781D01*
X13086968Y46602785D01*
X13086971Y46602787D01*
X13207284Y46768386D01*
X13207283Y46768386D01*
X13207287Y46768390D01*
X13248815Y46849895D01*
X13296789Y46900690D01*
X13364610Y46917485D01*
X13430745Y46894948D01*
G37*
%TD.AperFunction*%
%TA.AperFunction,Conductor*%
G36*
X13430745Y49434948D02*
G01*
X13474197Y49380233D01*
X13483300Y49333599D01*
X13483300Y48106402D01*
X13463615Y48039363D01*
X13410811Y47993608D01*
X13341653Y47983664D01*
X13278097Y48012689D01*
X13248815Y48050107D01*
X13239833Y48067735D01*
X13207287Y48131610D01*
X13190241Y48155072D01*
X13086971Y48297214D01*
X12942213Y48441972D01*
X12776614Y48562285D01*
X12760528Y48570481D01*
X12683917Y48609517D01*
X12633123Y48657489D01*
X12616328Y48725310D01*
X12638865Y48791445D01*
X12683917Y48830484D01*
X12776610Y48877713D01*
X12837528Y48921972D01*
X12942213Y48998029D01*
X12942215Y48998032D01*
X12942219Y48998034D01*
X13086966Y49142781D01*
X13086968Y49142785D01*
X13086971Y49142787D01*
X13207284Y49308386D01*
X13207285Y49308387D01*
X13207287Y49308390D01*
X13248815Y49389895D01*
X13296789Y49440690D01*
X13364610Y49457485D01*
X13430745Y49434948D01*
G37*
%TD.AperFunction*%
%TA.AperFunction,Conductor*%
G36*
X63004418Y66699184D02*
G01*
X63233020Y66682835D01*
X63250529Y66680317D01*
X63470144Y66632542D01*
X63487103Y66627563D01*
X63697694Y66549017D01*
X63713777Y66541673D01*
X63911036Y66433960D01*
X63925919Y66424395D01*
X64105836Y66289711D01*
X64119207Y66278125D01*
X64278124Y66119208D01*
X64289710Y66105837D01*
X64424394Y65925920D01*
X64433959Y65911037D01*
X64541669Y65713783D01*
X64549019Y65697689D01*
X64627559Y65487113D01*
X64632543Y65470138D01*
X64680316Y65250530D01*
X64682834Y65233018D01*
X64699184Y65004419D01*
X64699500Y64995573D01*
X64699500Y2004428D01*
X64699184Y1995582D01*
X64682834Y1766983D01*
X64680316Y1749471D01*
X64632543Y1529863D01*
X64627559Y1512888D01*
X64549019Y1302312D01*
X64541669Y1286218D01*
X64433959Y1088964D01*
X64424394Y1074081D01*
X64289710Y894164D01*
X64278124Y880793D01*
X64119207Y721876D01*
X64105836Y710290D01*
X63925919Y575606D01*
X63911036Y566041D01*
X63713782Y458331D01*
X63697688Y450981D01*
X63487112Y372441D01*
X63470137Y367457D01*
X63250529Y319684D01*
X63233017Y317166D01*
X63004418Y300816D01*
X62995572Y300500D01*
X2004428Y300500D01*
X1995582Y300816D01*
X1766982Y317166D01*
X1749470Y319684D01*
X1529862Y367457D01*
X1512887Y372441D01*
X1302311Y450981D01*
X1286217Y458331D01*
X1088963Y566041D01*
X1074080Y575606D01*
X894163Y710290D01*
X880792Y721876D01*
X721875Y880793D01*
X710289Y894164D01*
X575605Y1074081D01*
X566040Y1088964D01*
X458330Y1286218D01*
X450983Y1302306D01*
X372437Y1512897D01*
X367458Y1529856D01*
X319683Y1749471D01*
X317165Y1766983D01*
X300816Y1995582D01*
X300500Y2004428D01*
X300500Y60895924D01*
X1083300Y60895924D01*
X1083300Y36875924D01*
X1083300Y36724076D01*
X1121320Y36582181D01*
X1122602Y36577400D01*
X1122602Y36577399D01*
X1198522Y36445902D01*
X1198527Y36445896D01*
X2286981Y35357442D01*
X2320466Y35296119D01*
X2323300Y35269761D01*
X2323300Y27740276D01*
X2303615Y27673237D01*
X2286981Y27652595D01*
X2276271Y27641886D01*
X2276268Y27641882D01*
X2188394Y27510370D01*
X2188389Y27510361D01*
X2127859Y27364227D01*
X2127857Y27364221D01*
X2097000Y27209092D01*
X2097000Y27209089D01*
X2097000Y27050911D01*
X2097000Y27050909D01*
X2096999Y27050909D01*
X2127857Y26895780D01*
X2127859Y26895774D01*
X2188389Y26749640D01*
X2188394Y26749631D01*
X2276268Y26618119D01*
X2276270Y26618116D01*
X2286978Y26607409D01*
X2320465Y26546087D01*
X2323300Y26519725D01*
X2323300Y8355924D01*
X2323300Y8204076D01*
X2360094Y8066758D01*
X2362602Y8057400D01*
X2362602Y8057399D01*
X2438522Y7925902D01*
X2438524Y7925900D01*
X2438525Y7925898D01*
X8335898Y2028525D01*
X8467402Y1952601D01*
X8614076Y1913300D01*
X8614078Y1913300D01*
X55985922Y1913300D01*
X55985924Y1913300D01*
X56132598Y1952601D01*
X56264102Y2028525D01*
X59598758Y5363183D01*
X59660081Y5396667D01*
X59686439Y5399501D01*
X61067871Y5399501D01*
X61067872Y5399501D01*
X61127483Y5405909D01*
X61262331Y5456204D01*
X61377546Y5542454D01*
X61463796Y5657669D01*
X61514091Y5792517D01*
X61520500Y5852127D01*
X61520499Y7647872D01*
X61514091Y7707483D01*
X61512810Y7710917D01*
X61463797Y7842329D01*
X61463793Y7842336D01*
X61377547Y7957545D01*
X61377544Y7957548D01*
X61262335Y8043794D01*
X61262328Y8043798D01*
X61127482Y8094092D01*
X61127483Y8094092D01*
X61067883Y8100499D01*
X61067881Y8100500D01*
X61067873Y8100500D01*
X61067864Y8100500D01*
X59272129Y8100500D01*
X59272123Y8100499D01*
X59212516Y8094092D01*
X59077671Y8043798D01*
X59077664Y8043794D01*
X58962455Y7957548D01*
X58962452Y7957545D01*
X58876206Y7842336D01*
X58876203Y7842331D01*
X58827189Y7710917D01*
X58785317Y7654984D01*
X58719853Y7630567D01*
X58651580Y7645419D01*
X58623326Y7666570D01*
X58509786Y7780110D01*
X58337817Y7905051D01*
X58274404Y7937362D01*
X58223609Y7985336D01*
X58206700Y8047846D01*
X58206700Y21979725D01*
X58226385Y22046764D01*
X58243022Y22067409D01*
X58253729Y22078116D01*
X58253731Y22078118D01*
X58341609Y22209637D01*
X58402141Y22355774D01*
X58415524Y22423055D01*
X58433000Y22510909D01*
X58433000Y22669092D01*
X58402142Y22824221D01*
X58402141Y22824222D01*
X58402141Y22824226D01*
X58355322Y22937256D01*
X58341610Y22970361D01*
X58341605Y22970370D01*
X58253731Y23101882D01*
X58253728Y23101886D01*
X58141885Y23213729D01*
X58141881Y23213732D01*
X58010369Y23301606D01*
X58010360Y23301611D01*
X57864226Y23362141D01*
X57864220Y23362143D01*
X57709091Y23393000D01*
X57709089Y23393000D01*
X57550911Y23393000D01*
X57550909Y23393000D01*
X57395779Y23362143D01*
X57395773Y23362141D01*
X57249639Y23301611D01*
X57249630Y23301606D01*
X57118118Y23213732D01*
X57118114Y23213729D01*
X57006271Y23101886D01*
X57006268Y23101882D01*
X56918394Y22970370D01*
X56918389Y22970361D01*
X56857859Y22824227D01*
X56857857Y22824221D01*
X56827000Y22669092D01*
X56827000Y22669089D01*
X56827000Y22510911D01*
X56827000Y22510909D01*
X56826999Y22510909D01*
X56857857Y22355780D01*
X56857859Y22355774D01*
X56918389Y22209640D01*
X56918394Y22209631D01*
X57006268Y22078119D01*
X57006270Y22078116D01*
X57016978Y22067409D01*
X57050465Y22006087D01*
X57053300Y21979725D01*
X57053300Y8047846D01*
X57033615Y7980807D01*
X56985596Y7937362D01*
X56922182Y7905051D01*
X56750213Y7780110D01*
X56599890Y7629787D01*
X56474949Y7457818D01*
X56470484Y7449054D01*
X56422509Y7398258D01*
X56354688Y7381464D01*
X56288553Y7404002D01*
X56249516Y7449054D01*
X56245050Y7457818D01*
X56120109Y7629787D01*
X55969786Y7780110D01*
X55797817Y7905051D01*
X55734404Y7937362D01*
X55723340Y7947811D01*
X55709497Y7954133D01*
X55698455Y7971314D01*
X55683609Y7985336D01*
X55679367Y8001016D01*
X55671723Y8012911D01*
X55666700Y8047846D01*
X55666700Y8259725D01*
X55686385Y8326764D01*
X55703022Y8347409D01*
X55713729Y8358116D01*
X55713731Y8358118D01*
X55801609Y8489637D01*
X55862141Y8635774D01*
X55873984Y8695310D01*
X55893000Y8790909D01*
X55893000Y8949092D01*
X55862142Y9104221D01*
X55862141Y9104222D01*
X55862141Y9104226D01*
X55801609Y9250363D01*
X55801608Y9250364D01*
X55801605Y9250370D01*
X55713731Y9381882D01*
X55713728Y9381886D01*
X55601885Y9493729D01*
X55601881Y9493732D01*
X55470369Y9581606D01*
X55470360Y9581611D01*
X55324226Y9642141D01*
X55324220Y9642143D01*
X55169091Y9673000D01*
X55169089Y9673000D01*
X55010911Y9673000D01*
X55010909Y9673000D01*
X54855779Y9642143D01*
X54855773Y9642141D01*
X54709639Y9581611D01*
X54709630Y9581606D01*
X54578118Y9493732D01*
X54578114Y9493729D01*
X54466271Y9381886D01*
X54466268Y9381882D01*
X54378394Y9250370D01*
X54378389Y9250361D01*
X54317859Y9104227D01*
X54317857Y9104221D01*
X54287000Y8949092D01*
X54287000Y8949089D01*
X54287000Y8790911D01*
X54287000Y8790909D01*
X54286999Y8790909D01*
X54317857Y8635780D01*
X54317859Y8635774D01*
X54378389Y8489640D01*
X54378394Y8489631D01*
X54466268Y8358119D01*
X54466270Y8358116D01*
X54476978Y8347409D01*
X54491682Y8320482D01*
X54508277Y8294660D01*
X54509168Y8288462D01*
X54510465Y8286087D01*
X54513300Y8259725D01*
X54513300Y8047846D01*
X54493615Y7980807D01*
X54445596Y7937362D01*
X54382182Y7905051D01*
X54210213Y7780110D01*
X54059890Y7629787D01*
X53934949Y7457818D01*
X53930484Y7449054D01*
X53882509Y7398258D01*
X53814688Y7381464D01*
X53748553Y7404002D01*
X53709516Y7449054D01*
X53705050Y7457818D01*
X53580109Y7629787D01*
X53429786Y7780110D01*
X53257820Y7905049D01*
X53068414Y8001556D01*
X53068413Y8001557D01*
X53068412Y8001557D01*
X52866243Y8067246D01*
X52866241Y8067247D01*
X52866240Y8067247D01*
X52704957Y8092792D01*
X52656287Y8100500D01*
X52443713Y8100500D01*
X52320097Y8080922D01*
X52250804Y8089877D01*
X52197352Y8134873D01*
X52176713Y8201625D01*
X52176700Y8203395D01*
X52176700Y11006415D01*
X52196385Y11073454D01*
X52249189Y11119209D01*
X52318347Y11129153D01*
X52356994Y11116900D01*
X52380781Y11104780D01*
X52513764Y11061572D01*
X52575465Y11041523D01*
X52676557Y11025512D01*
X52777648Y11009500D01*
X52777649Y11009500D01*
X52982351Y11009500D01*
X52982352Y11009500D01*
X53184534Y11041523D01*
X53379219Y11104780D01*
X53561610Y11197713D01*
X53675190Y11280233D01*
X53727213Y11318029D01*
X53727215Y11318032D01*
X53727219Y11318034D01*
X53871966Y11462781D01*
X53871968Y11462785D01*
X53871971Y11462787D01*
X53961101Y11585466D01*
X53992287Y11628390D01*
X54085220Y11810781D01*
X54148477Y12005466D01*
X54180500Y12207648D01*
X54180500Y12412352D01*
X54169886Y12479363D01*
X54148477Y12614535D01*
X54114732Y12718391D01*
X54085220Y12809219D01*
X54085218Y12809222D01*
X54085218Y12809224D01*
X54030773Y12916077D01*
X53992287Y12991610D01*
X53953462Y13045049D01*
X53871971Y13157214D01*
X53727213Y13301972D01*
X53561613Y13422285D01*
X53561612Y13422286D01*
X53561610Y13422287D01*
X53452042Y13478115D01*
X53379223Y13515219D01*
X53184534Y13578478D01*
X53009995Y13606122D01*
X52982352Y13610500D01*
X52777648Y13610500D01*
X52753329Y13606649D01*
X52575465Y13578478D01*
X52425976Y13529905D01*
X52380781Y13515220D01*
X52380778Y13515219D01*
X52380773Y13515217D01*
X52356994Y13503101D01*
X52288324Y13490205D01*
X52223584Y13516482D01*
X52183328Y13573589D01*
X52176700Y13613586D01*
X52176700Y33449725D01*
X52196385Y33516764D01*
X52213022Y33537409D01*
X52223729Y33548116D01*
X52223731Y33548118D01*
X52311609Y33679637D01*
X52372141Y33825774D01*
X52388798Y33909515D01*
X52403000Y33980909D01*
X52403000Y34139092D01*
X52372142Y34294221D01*
X52372141Y34294222D01*
X52372141Y34294226D01*
X52317652Y34425774D01*
X52311610Y34440361D01*
X52311605Y34440370D01*
X52223731Y34571882D01*
X52223728Y34571886D01*
X52111885Y34683729D01*
X52111881Y34683732D01*
X51980369Y34771606D01*
X51980360Y34771611D01*
X51834226Y34832141D01*
X51834220Y34832143D01*
X51679091Y34863000D01*
X51679089Y34863000D01*
X51520911Y34863000D01*
X51520909Y34863000D01*
X51365779Y34832143D01*
X51365773Y34832141D01*
X51219639Y34771611D01*
X51219630Y34771606D01*
X51088118Y34683732D01*
X51088114Y34683729D01*
X50976271Y34571886D01*
X50976268Y34571882D01*
X50888394Y34440370D01*
X50888389Y34440361D01*
X50827859Y34294227D01*
X50827857Y34294221D01*
X50797000Y34139092D01*
X50797000Y34139089D01*
X50797000Y33980911D01*
X50797000Y33980909D01*
X50796999Y33980909D01*
X50827857Y33825780D01*
X50827859Y33825774D01*
X50888389Y33679640D01*
X50888394Y33679631D01*
X50976268Y33548119D01*
X50976270Y33548116D01*
X50986978Y33537409D01*
X51020465Y33476087D01*
X51023300Y33449725D01*
X51023300Y12983116D01*
X51003615Y12916077D01*
X50950811Y12870322D01*
X50881653Y12860378D01*
X50818097Y12889403D01*
X50809625Y12897475D01*
X50802181Y12905269D01*
X50787139Y12927782D01*
X50647782Y13067139D01*
X50647778Y13067142D01*
X50637781Y13077139D01*
X50637780Y13077140D01*
X50473920Y13186628D01*
X50473910Y13186633D01*
X50291836Y13262051D01*
X50291828Y13262053D01*
X50098543Y13300500D01*
X50098540Y13300500D01*
X49901460Y13300500D01*
X49901457Y13300500D01*
X49708171Y13262053D01*
X49708163Y13262051D01*
X49526089Y13186633D01*
X49526079Y13186628D01*
X49362219Y13077140D01*
X49362215Y13077137D01*
X49222863Y12937785D01*
X49222860Y12937781D01*
X49113372Y12773921D01*
X49113367Y12773911D01*
X49037949Y12591837D01*
X49037947Y12591829D01*
X48999500Y12398545D01*
X48999500Y12201459D01*
X49007117Y12163169D01*
X49009500Y12138976D01*
X49009500Y7710200D01*
X48989815Y7643161D01*
X48980506Y7630635D01*
X48854949Y7457818D01*
X48850202Y7448501D01*
X48802227Y7397707D01*
X48734405Y7380913D01*
X48668271Y7403452D01*
X48629234Y7448505D01*
X48624626Y7457548D01*
X48585270Y7511718D01*
X48585269Y7511718D01*
X47952962Y6879410D01*
X47935925Y6942993D01*
X47870099Y7057007D01*
X47777007Y7150099D01*
X47662993Y7215925D01*
X47599409Y7232963D01*
X48231716Y7865272D01*
X48177550Y7904625D01*
X47988217Y8001096D01*
X47786129Y8066758D01*
X47576246Y8100000D01*
X47363754Y8100000D01*
X47153872Y8066758D01*
X47153869Y8066758D01*
X46951782Y8001096D01*
X46762439Y7904620D01*
X46708282Y7865273D01*
X46708282Y7865272D01*
X47340591Y7232963D01*
X47277007Y7215925D01*
X47162993Y7150099D01*
X47069901Y7057007D01*
X47004075Y6942993D01*
X46987037Y6879409D01*
X46354728Y7511718D01*
X46354727Y7511718D01*
X46315380Y7457561D01*
X46218904Y7268218D01*
X46153242Y7066131D01*
X46153242Y7066128D01*
X46120000Y6856247D01*
X46120000Y6643754D01*
X46153242Y6433873D01*
X46153242Y6433870D01*
X46218904Y6231783D01*
X46315375Y6042450D01*
X46354728Y5988284D01*
X46987037Y6620592D01*
X47004075Y6557007D01*
X47069901Y6442993D01*
X47162993Y6349901D01*
X47277007Y6284075D01*
X47340590Y6267038D01*
X46708282Y5634731D01*
X46708282Y5634730D01*
X46762449Y5595376D01*
X46951782Y5498905D01*
X47153870Y5433243D01*
X47363754Y5400000D01*
X47576246Y5400000D01*
X47786127Y5433243D01*
X47786130Y5433243D01*
X47988217Y5498905D01*
X48177554Y5595378D01*
X48231716Y5634730D01*
X48231717Y5634730D01*
X47599408Y6267038D01*
X47662993Y6284075D01*
X47777007Y6349901D01*
X47870099Y6442993D01*
X47935925Y6557007D01*
X47952962Y6620592D01*
X48585270Y5988283D01*
X48585270Y5988284D01*
X48624622Y6042445D01*
X48629232Y6051493D01*
X48677205Y6102291D01*
X48745025Y6119088D01*
X48811161Y6096553D01*
X48850204Y6051496D01*
X48854949Y6042183D01*
X48979890Y5870214D01*
X49130213Y5719891D01*
X49302179Y5594952D01*
X49302181Y5594951D01*
X49302184Y5594949D01*
X49491588Y5498443D01*
X49693757Y5432754D01*
X49903713Y5399500D01*
X49903714Y5399500D01*
X50116286Y5399500D01*
X50116287Y5399500D01*
X50326243Y5432754D01*
X50528412Y5498443D01*
X50717816Y5594949D01*
X50772572Y5634731D01*
X50889786Y5719891D01*
X50889788Y5719894D01*
X50889792Y5719896D01*
X51040104Y5870208D01*
X51040106Y5870212D01*
X51040109Y5870214D01*
X51165048Y6042180D01*
X51165050Y6042183D01*
X51165051Y6042184D01*
X51169514Y6050946D01*
X51217488Y6101741D01*
X51285308Y6118537D01*
X51351444Y6096001D01*
X51390486Y6050944D01*
X51394951Y6042180D01*
X51519890Y5870214D01*
X51670213Y5719891D01*
X51842179Y5594952D01*
X51842181Y5594951D01*
X51842184Y5594949D01*
X52031588Y5498443D01*
X52233757Y5432754D01*
X52443713Y5399500D01*
X52443714Y5399500D01*
X52656286Y5399500D01*
X52656287Y5399500D01*
X52866243Y5432754D01*
X53068412Y5498443D01*
X53257816Y5594949D01*
X53312572Y5634731D01*
X53429786Y5719891D01*
X53429788Y5719894D01*
X53429792Y5719896D01*
X53580104Y5870208D01*
X53580106Y5870212D01*
X53580109Y5870214D01*
X53705048Y6042180D01*
X53705050Y6042183D01*
X53705051Y6042184D01*
X53709514Y6050946D01*
X53757488Y6101741D01*
X53825308Y6118537D01*
X53891444Y6096001D01*
X53930486Y6050944D01*
X53934951Y6042180D01*
X54059890Y5870214D01*
X54210213Y5719891D01*
X54382179Y5594952D01*
X54382181Y5594951D01*
X54382184Y5594949D01*
X54571588Y5498443D01*
X54773757Y5432754D01*
X54983713Y5399500D01*
X54983714Y5399500D01*
X55196286Y5399500D01*
X55196287Y5399500D01*
X55406243Y5432754D01*
X55608412Y5498443D01*
X55797816Y5594949D01*
X55852572Y5634731D01*
X55969786Y5719891D01*
X55969788Y5719894D01*
X55969792Y5719896D01*
X56120104Y5870208D01*
X56120106Y5870212D01*
X56120109Y5870214D01*
X56245048Y6042180D01*
X56245050Y6042183D01*
X56245051Y6042184D01*
X56249514Y6050946D01*
X56297488Y6101741D01*
X56365308Y6118537D01*
X56431444Y6096001D01*
X56470486Y6050944D01*
X56474951Y6042180D01*
X56599890Y5870214D01*
X56750213Y5719891D01*
X56922179Y5594952D01*
X56922181Y5594951D01*
X56922184Y5594949D01*
X57111588Y5498443D01*
X57313757Y5432754D01*
X57523713Y5399500D01*
X57523714Y5399500D01*
X57704560Y5399500D01*
X57771599Y5379815D01*
X57817354Y5327011D01*
X57827298Y5257853D01*
X57798273Y5194297D01*
X57792241Y5187819D01*
X55707442Y3103019D01*
X55646119Y3069534D01*
X55619761Y3066700D01*
X41281639Y3066700D01*
X41214600Y3086385D01*
X41168845Y3139189D01*
X41158901Y3208347D01*
X41187926Y3271903D01*
X41193948Y3278372D01*
X41509755Y3594180D01*
X41571075Y3627662D01*
X41635751Y3624428D01*
X41650647Y3619588D01*
X41675465Y3611523D01*
X41776557Y3595512D01*
X41877648Y3579500D01*
X41877649Y3579500D01*
X42082351Y3579500D01*
X42082352Y3579500D01*
X42284534Y3611523D01*
X42479219Y3674780D01*
X42661610Y3767713D01*
X42787282Y3859018D01*
X42827213Y3888029D01*
X42827215Y3888032D01*
X42827219Y3888034D01*
X42971966Y4032781D01*
X42971968Y4032785D01*
X42971971Y4032787D01*
X43024732Y4105410D01*
X43092287Y4198390D01*
X43185220Y4380781D01*
X43248477Y4575466D01*
X43280500Y4777648D01*
X43280500Y4982352D01*
X43259139Y5117219D01*
X43248477Y5184535D01*
X43205561Y5316616D01*
X43185220Y5379219D01*
X43185218Y5379222D01*
X43185218Y5379224D01*
X43103298Y5540000D01*
X43092287Y5561610D01*
X43092284Y5561614D01*
X43057781Y5609105D01*
X43057780Y5609106D01*
X42971971Y5727213D01*
X42971967Y5727218D01*
X42827213Y5871972D01*
X42661614Y5992285D01*
X42605424Y6020915D01*
X42568917Y6039517D01*
X42518123Y6087489D01*
X42501328Y6155310D01*
X42523865Y6221445D01*
X42568917Y6260484D01*
X42661610Y6307713D01*
X42711661Y6344077D01*
X42827213Y6428029D01*
X42827215Y6428032D01*
X42827219Y6428034D01*
X42971966Y6572781D01*
X42971968Y6572785D01*
X42971971Y6572787D01*
X43052897Y6684174D01*
X43092287Y6738390D01*
X43180330Y6911183D01*
X43183505Y6917414D01*
X43183506Y6917416D01*
X43185216Y6920773D01*
X43185216Y6920774D01*
X43185220Y6920781D01*
X43248477Y7115466D01*
X43280500Y7317648D01*
X43280500Y7522352D01*
X43263349Y7630635D01*
X43248477Y7724535D01*
X43235573Y7764249D01*
X43185220Y7919219D01*
X43092287Y8101610D01*
X43062572Y8142510D01*
X42971971Y8267214D01*
X42827213Y8411972D01*
X42661614Y8532285D01*
X42655006Y8535652D01*
X42568917Y8579517D01*
X42518123Y8627489D01*
X42501328Y8695310D01*
X42523865Y8761445D01*
X42568917Y8800484D01*
X42661610Y8847713D01*
X42742473Y8906463D01*
X42827213Y8968029D01*
X42827215Y8968032D01*
X42827219Y8968034D01*
X42971966Y9112781D01*
X42971968Y9112785D01*
X42971971Y9112787D01*
X43024732Y9185410D01*
X43092287Y9278390D01*
X43185220Y9460781D01*
X43248477Y9655466D01*
X43280500Y9857648D01*
X43280500Y10062352D01*
X43255064Y10222949D01*
X43248477Y10264535D01*
X43185218Y10459224D01*
X43133729Y10560276D01*
X43092287Y10641610D01*
X43062572Y10682510D01*
X42971971Y10807214D01*
X42827213Y10951972D01*
X42661614Y11072285D01*
X42628628Y11089092D01*
X42568917Y11119517D01*
X42518123Y11167489D01*
X42501328Y11235310D01*
X42523865Y11301445D01*
X42568917Y11340484D01*
X42661610Y11387713D01*
X42718510Y11429053D01*
X42827213Y11508029D01*
X42827215Y11508032D01*
X42827219Y11508034D01*
X42971966Y11652781D01*
X42971968Y11652785D01*
X42971971Y11652787D01*
X43031087Y11734155D01*
X43092287Y11818390D01*
X43185220Y12000781D01*
X43248477Y12195466D01*
X43280500Y12397648D01*
X43280500Y12602352D01*
X43254911Y12763914D01*
X43248477Y12804535D01*
X43185218Y12999224D01*
X43150611Y13067142D01*
X43092287Y13181610D01*
X43065860Y13217984D01*
X42971971Y13347214D01*
X42827213Y13491972D01*
X42661614Y13612285D01*
X42655006Y13615652D01*
X42568917Y13659517D01*
X42518123Y13707489D01*
X42501328Y13775310D01*
X42523865Y13841445D01*
X42568917Y13880484D01*
X42661610Y13927713D01*
X42724269Y13973237D01*
X42827213Y14048029D01*
X42827215Y14048032D01*
X42827219Y14048034D01*
X42971966Y14192781D01*
X42983521Y14208687D01*
X43038849Y14251352D01*
X43108462Y14257333D01*
X43170258Y14224728D01*
X43204617Y14163890D01*
X43205458Y14111612D01*
X43197000Y14069089D01*
X43197000Y13910911D01*
X43197000Y13910909D01*
X43196999Y13910909D01*
X43227857Y13755780D01*
X43227859Y13755774D01*
X43288389Y13609640D01*
X43288394Y13609631D01*
X43376268Y13478119D01*
X43376271Y13478115D01*
X43488114Y13366272D01*
X43488118Y13366269D01*
X43619630Y13278395D01*
X43619639Y13278390D01*
X43638721Y13270486D01*
X43765774Y13217859D01*
X43765778Y13217859D01*
X43765779Y13217858D01*
X43920908Y13187000D01*
X44046308Y13187000D01*
X44113347Y13167315D01*
X44159102Y13114511D01*
X44169046Y13045353D01*
X44149187Y12996423D01*
X44150259Y12995766D01*
X44147717Y12991619D01*
X44054781Y12809224D01*
X43991522Y12614535D01*
X43969943Y12478285D01*
X43959500Y12412352D01*
X43959500Y12207648D01*
X43961577Y12194534D01*
X43991522Y12005466D01*
X44054781Y11810777D01*
X44118691Y11685347D01*
X44140965Y11641633D01*
X44147715Y11628387D01*
X44268028Y11462787D01*
X44412786Y11318029D01*
X44556699Y11213472D01*
X44578390Y11197713D01*
X44671724Y11150157D01*
X44760776Y11104782D01*
X44760778Y11104782D01*
X44760781Y11104780D01*
X44857193Y11073454D01*
X44955465Y11041523D01*
X45056557Y11025512D01*
X45157648Y11009500D01*
X45157649Y11009500D01*
X45362351Y11009500D01*
X45362352Y11009500D01*
X45564534Y11041523D01*
X45759219Y11104780D01*
X45941610Y11197713D01*
X46055190Y11280233D01*
X46107213Y11318029D01*
X46107215Y11318032D01*
X46107219Y11318034D01*
X46251966Y11462781D01*
X46251968Y11462785D01*
X46251971Y11462787D01*
X46341101Y11585466D01*
X46372287Y11628390D01*
X46465220Y11810781D01*
X46528477Y12005466D01*
X46560500Y12207648D01*
X46560500Y12412352D01*
X46549886Y12479363D01*
X46528477Y12614535D01*
X46494732Y12718391D01*
X46465220Y12809219D01*
X46465218Y12809222D01*
X46465218Y12809224D01*
X46410773Y12916077D01*
X46372287Y12991610D01*
X46333462Y13045049D01*
X46251971Y13157214D01*
X46107213Y13301972D01*
X45941613Y13422285D01*
X45941612Y13422286D01*
X45941610Y13422287D01*
X45832042Y13478115D01*
X45759223Y13515219D01*
X45564534Y13578478D01*
X45389995Y13606122D01*
X45362352Y13610500D01*
X45157648Y13610500D01*
X45090254Y13599826D01*
X44955464Y13578477D01*
X44955461Y13578477D01*
X44914583Y13565194D01*
X44844742Y13563199D01*
X44784909Y13599279D01*
X44754081Y13661980D01*
X44761703Y13730577D01*
X44772141Y13755774D01*
X44786885Y13829894D01*
X44803000Y13910909D01*
X44803000Y14069092D01*
X44772142Y14224221D01*
X44772141Y14224222D01*
X44772141Y14224226D01*
X44711609Y14370363D01*
X44711608Y14370364D01*
X44711605Y14370370D01*
X44623731Y14501882D01*
X44623728Y14501886D01*
X44613019Y14512595D01*
X44579534Y14573918D01*
X44576700Y14600276D01*
X44576700Y17294790D01*
X44585345Y17324234D01*
X44591868Y17354216D01*
X44595622Y17359232D01*
X44596385Y17361829D01*
X44613013Y17382466D01*
X44713885Y17483338D01*
X44775204Y17516820D01*
X44844896Y17511836D01*
X44900830Y17469965D01*
X44922596Y17412241D01*
X44924237Y17412500D01*
X44957009Y17205583D01*
X45020244Y17010969D01*
X45113141Y16828650D01*
X45113147Y16828641D01*
X45145523Y16784079D01*
X45145524Y16784078D01*
X45825000Y17463554D01*
X45825000Y17457339D01*
X45852259Y17355606D01*
X45904920Y17264394D01*
X45979394Y17189920D01*
X46070606Y17137259D01*
X46172339Y17110000D01*
X46178553Y17110000D01*
X45499076Y16430526D01*
X45543650Y16398141D01*
X45725968Y16305245D01*
X45920582Y16242010D01*
X46122683Y16210000D01*
X46327317Y16210000D01*
X46529417Y16242010D01*
X46724031Y16305245D01*
X46906349Y16398141D01*
X46950921Y16430526D01*
X46271447Y17110000D01*
X46277661Y17110000D01*
X46379394Y17137259D01*
X46470606Y17189920D01*
X46545080Y17264394D01*
X46597741Y17355606D01*
X46625000Y17457339D01*
X46625000Y17463553D01*
X47304474Y16784079D01*
X47336859Y16828651D01*
X47429755Y17010969D01*
X47492990Y17205583D01*
X47525000Y17407683D01*
X47525000Y17612318D01*
X47492990Y17814418D01*
X47429755Y18009032D01*
X47336859Y18191350D01*
X47304474Y18235923D01*
X47304474Y18235924D01*
X46625000Y17556449D01*
X46625000Y17562661D01*
X46597741Y17664394D01*
X46545080Y17755606D01*
X46470606Y17830080D01*
X46379394Y17882741D01*
X46277661Y17910000D01*
X46271446Y17910000D01*
X46950922Y18589476D01*
X46950921Y18589477D01*
X46906359Y18621853D01*
X46906350Y18621859D01*
X46813369Y18669235D01*
X46762573Y18717210D01*
X46745778Y18785031D01*
X46768315Y18851165D01*
X46813370Y18890205D01*
X46852012Y18909894D01*
X46906610Y18937713D01*
X46989751Y18998118D01*
X47072213Y19058029D01*
X47072215Y19058032D01*
X47072219Y19058034D01*
X47216966Y19202781D01*
X47216968Y19202785D01*
X47216971Y19202787D01*
X47323417Y19349300D01*
X47337287Y19368390D01*
X47430220Y19550781D01*
X47493477Y19745466D01*
X47525500Y19947648D01*
X47525500Y20152352D01*
X47493477Y20354534D01*
X47492606Y20357214D01*
X47434760Y20535245D01*
X47430220Y20549219D01*
X47430218Y20549222D01*
X47430218Y20549224D01*
X47380711Y20646385D01*
X47337287Y20731610D01*
X47323417Y20750700D01*
X47216971Y20897214D01*
X47072213Y21041972D01*
X46906614Y21162285D01*
X46891052Y21170214D01*
X46813917Y21209517D01*
X46763123Y21257489D01*
X46746328Y21325310D01*
X46768865Y21391445D01*
X46813917Y21430484D01*
X46906610Y21477713D01*
X46975987Y21528118D01*
X47072213Y21598029D01*
X47072215Y21598032D01*
X47072219Y21598034D01*
X47216966Y21742781D01*
X47216968Y21742785D01*
X47216971Y21742787D01*
X47281489Y21831590D01*
X47337287Y21908390D01*
X47430220Y22090781D01*
X47493477Y22285466D01*
X47525500Y22487648D01*
X47525500Y22692352D01*
X47493477Y22894534D01*
X47492606Y22897214D01*
X47434760Y23075245D01*
X47430220Y23089219D01*
X47430218Y23089222D01*
X47430218Y23089224D01*
X47385382Y23177219D01*
X47337287Y23271610D01*
X47322012Y23292635D01*
X47216971Y23437214D01*
X47072213Y23581972D01*
X46906614Y23702285D01*
X46885957Y23712810D01*
X46813917Y23749517D01*
X46763123Y23797489D01*
X46746328Y23865310D01*
X46768865Y23931445D01*
X46813917Y23970484D01*
X46906610Y24017713D01*
X46961352Y24057485D01*
X47072213Y24138029D01*
X47072215Y24138032D01*
X47072219Y24138034D01*
X47216966Y24282781D01*
X47216968Y24282785D01*
X47216971Y24282787D01*
X47290999Y24384680D01*
X47337287Y24448390D01*
X47430220Y24630781D01*
X47493477Y24825466D01*
X47525500Y25027648D01*
X47525500Y25232352D01*
X47501970Y25380911D01*
X47493477Y25434535D01*
X47442389Y25591766D01*
X47430220Y25629219D01*
X47430218Y25629222D01*
X47430218Y25629224D01*
X47385063Y25717845D01*
X47337287Y25811610D01*
X47322012Y25832635D01*
X47216971Y25977214D01*
X47072213Y26121972D01*
X46906614Y26242285D01*
X46871803Y26260022D01*
X46813917Y26289517D01*
X46763123Y26337489D01*
X46746328Y26405310D01*
X46768865Y26471445D01*
X46813917Y26510484D01*
X46906610Y26557713D01*
X46962865Y26598584D01*
X47072213Y26678029D01*
X47072215Y26678032D01*
X47072219Y26678034D01*
X47216966Y26822781D01*
X47216968Y26822785D01*
X47216971Y26822787D01*
X47273269Y26900276D01*
X47337287Y26988390D01*
X47430220Y27170781D01*
X47493477Y27365466D01*
X47525500Y27567648D01*
X47525500Y27772352D01*
X47514499Y27841808D01*
X47493477Y27974535D01*
X47434760Y28155245D01*
X47430220Y28169219D01*
X47430218Y28169222D01*
X47430218Y28169224D01*
X47392989Y28242288D01*
X47337287Y28351610D01*
X47324289Y28369500D01*
X47216971Y28517214D01*
X47072213Y28661972D01*
X46906614Y28782285D01*
X46891052Y28790214D01*
X46813917Y28829517D01*
X46763123Y28877489D01*
X46746328Y28945310D01*
X46768865Y29011445D01*
X46813917Y29050484D01*
X46906610Y29097713D01*
X46961352Y29137485D01*
X47072213Y29218029D01*
X47072215Y29218032D01*
X47072219Y29218034D01*
X47216966Y29362781D01*
X47216968Y29362785D01*
X47216971Y29362787D01*
X47281704Y29451886D01*
X47337287Y29528390D01*
X47430220Y29710781D01*
X47493477Y29905466D01*
X47525500Y30107648D01*
X47525500Y30312352D01*
X47493477Y30514534D01*
X47492606Y30517214D01*
X47464127Y30604863D01*
X47430220Y30709219D01*
X47430218Y30709222D01*
X47430218Y30709224D01*
X47396503Y30775393D01*
X47337287Y30891610D01*
X47316661Y30920000D01*
X47216971Y31057214D01*
X47072213Y31201972D01*
X46906614Y31322285D01*
X46891052Y31330214D01*
X46813917Y31369517D01*
X46763123Y31417489D01*
X46746328Y31485310D01*
X46768865Y31551445D01*
X46813917Y31590484D01*
X46906610Y31637713D01*
X46955941Y31673554D01*
X47072213Y31758029D01*
X47072215Y31758032D01*
X47072219Y31758034D01*
X47216966Y31902781D01*
X47216968Y31902785D01*
X47216971Y31902787D01*
X47315492Y32038391D01*
X47337287Y32068390D01*
X47397760Y32187076D01*
X47445733Y32237870D01*
X47513554Y32254666D01*
X47579689Y32232129D01*
X47595925Y32218461D01*
X47688114Y32126272D01*
X47688118Y32126269D01*
X47819630Y32038395D01*
X47819636Y32038392D01*
X47819637Y32038391D01*
X47965774Y31977859D01*
X47965778Y31977859D01*
X47965779Y31977858D01*
X48120908Y31947000D01*
X48169300Y31947000D01*
X48236339Y31927315D01*
X48282094Y31874511D01*
X48293300Y31823000D01*
X48293300Y28280276D01*
X48273615Y28213237D01*
X48256981Y28192595D01*
X48246271Y28181886D01*
X48246268Y28181882D01*
X48158394Y28050370D01*
X48158389Y28050361D01*
X48097859Y27904227D01*
X48097857Y27904221D01*
X48067000Y27749092D01*
X48067000Y27749089D01*
X48067000Y27590911D01*
X48067000Y27590909D01*
X48066999Y27590909D01*
X48097857Y27435780D01*
X48097859Y27435774D01*
X48158389Y27289640D01*
X48158394Y27289631D01*
X48246268Y27158119D01*
X48246271Y27158115D01*
X48358114Y27046272D01*
X48358118Y27046269D01*
X48489630Y26958395D01*
X48489636Y26958392D01*
X48489637Y26958391D01*
X48635774Y26897859D01*
X48635778Y26897859D01*
X48635779Y26897858D01*
X48790908Y26867000D01*
X48790911Y26867000D01*
X48949091Y26867000D01*
X49078697Y26892781D01*
X49104226Y26897859D01*
X49250363Y26958391D01*
X49381882Y27046269D01*
X49493731Y27158118D01*
X49581609Y27289637D01*
X49642141Y27435774D01*
X49655462Y27502741D01*
X49673000Y27590909D01*
X49673000Y27749092D01*
X49642142Y27904221D01*
X49642141Y27904222D01*
X49642141Y27904226D01*
X49592405Y28024300D01*
X49581610Y28050361D01*
X49581605Y28050370D01*
X49493731Y28181882D01*
X49493728Y28181886D01*
X49483019Y28192595D01*
X49449534Y28253918D01*
X49446700Y28280276D01*
X49446700Y29324740D01*
X49466385Y29391779D01*
X49519189Y29437534D01*
X49588347Y29447478D01*
X49618149Y29439302D01*
X49645774Y29427859D01*
X49645778Y29427859D01*
X49645779Y29427858D01*
X49800908Y29397000D01*
X49800911Y29397000D01*
X49959091Y29397000D01*
X50113577Y29427730D01*
X50114226Y29427859D01*
X50260363Y29488391D01*
X50391882Y29576269D01*
X50503731Y29688118D01*
X50591609Y29819637D01*
X50652141Y29965774D01*
X50672893Y30070099D01*
X50683000Y30120909D01*
X50683000Y30279092D01*
X50652142Y30434221D01*
X50652141Y30434222D01*
X50652141Y30434226D01*
X50591609Y30580363D01*
X50591608Y30580364D01*
X50591605Y30580370D01*
X50503731Y30711882D01*
X50503728Y30711886D01*
X50493019Y30722595D01*
X50459534Y30783918D01*
X50456700Y30810276D01*
X50456700Y36918575D01*
X50476385Y36985614D01*
X50529189Y37031369D01*
X50556509Y37040192D01*
X50558008Y37040491D01*
X50645326Y37057859D01*
X50791463Y37118391D01*
X50922982Y37206269D01*
X51034831Y37318118D01*
X51122709Y37449637D01*
X51183241Y37595774D01*
X51197545Y37667683D01*
X51214100Y37750909D01*
X51214100Y37909092D01*
X51183242Y38064221D01*
X51183241Y38064222D01*
X51183241Y38064226D01*
X51122709Y38210363D01*
X51122708Y38210364D01*
X51122705Y38210370D01*
X51034831Y38341882D01*
X51034828Y38341886D01*
X51024119Y38352595D01*
X50990634Y38413918D01*
X50987800Y38440276D01*
X50987800Y55807326D01*
X50987800Y55807328D01*
X50948499Y55954002D01*
X50946269Y55957864D01*
X50872577Y56085503D01*
X50872572Y56085509D01*
X47767271Y59190810D01*
X47733786Y59252133D01*
X47738770Y59321825D01*
X47780642Y59377758D01*
X47791609Y59384807D01*
X47840771Y59421610D01*
X47908690Y59472454D01*
X47994940Y59587669D01*
X48045235Y59722517D01*
X48051644Y59782127D01*
X48051643Y59794388D01*
X48055219Y59808948D01*
X48065486Y59826620D01*
X48071211Y59846240D01*
X48082683Y59856217D01*
X48090321Y59869360D01*
X48108511Y59878675D01*
X48123936Y59892087D01*
X48140424Y59895016D01*
X48152511Y59901205D01*
X48167162Y59899766D01*
X48167398Y59899808D01*
X48851144Y60583554D01*
X48851144Y60577339D01*
X48878403Y60475606D01*
X48931064Y60384394D01*
X49005538Y60309920D01*
X49096750Y60257259D01*
X49198483Y60230000D01*
X49204697Y60230000D01*
X48525220Y59550526D01*
X48569794Y59518141D01*
X48752112Y59425245D01*
X48946726Y59362010D01*
X49148827Y59330000D01*
X49353461Y59330000D01*
X49555561Y59362010D01*
X49750175Y59425245D01*
X49932493Y59518141D01*
X49977065Y59550526D01*
X49977066Y59550526D01*
X49843056Y59684536D01*
X49297591Y60230000D01*
X49303805Y60230000D01*
X49405538Y60257259D01*
X49496750Y60309920D01*
X49571224Y60384394D01*
X49623885Y60475606D01*
X49651144Y60577339D01*
X49651144Y60583553D01*
X50330618Y59904079D01*
X50363003Y59948651D01*
X50455899Y60130969D01*
X50519134Y60325583D01*
X50551144Y60527683D01*
X50551144Y60732318D01*
X50519134Y60934418D01*
X50455899Y61129032D01*
X50363003Y61311350D01*
X50330618Y61355923D01*
X50330618Y61355924D01*
X49651144Y60676449D01*
X49651144Y60682661D01*
X49623885Y60784394D01*
X49571224Y60875606D01*
X49496750Y60950080D01*
X49405538Y61002741D01*
X49303805Y61030000D01*
X49297590Y61030000D01*
X49977066Y61709476D01*
X49977065Y61709477D01*
X49932503Y61741853D01*
X49932494Y61741859D01*
X49750175Y61834756D01*
X49555561Y61897991D01*
X49353461Y61930000D01*
X49148827Y61930000D01*
X48946726Y61897991D01*
X48752112Y61834756D01*
X48569788Y61741857D01*
X48525221Y61709477D01*
X48525221Y61709476D01*
X49204698Y61030000D01*
X49198483Y61030000D01*
X49096750Y61002741D01*
X49005538Y60950080D01*
X48931064Y60875606D01*
X48878403Y60784394D01*
X48851144Y60682661D01*
X48851144Y60676447D01*
X48166657Y61360934D01*
X48116993Y61371367D01*
X48067237Y61420419D01*
X48055220Y61451053D01*
X48051643Y61465622D01*
X48051643Y61477872D01*
X48045235Y61537483D01*
X48012356Y61625635D01*
X48012355Y61625641D01*
X47994941Y61672329D01*
X47994937Y61672336D01*
X47908691Y61787545D01*
X47903063Y61791758D01*
X47864450Y61820664D01*
X47801332Y61867915D01*
X47759462Y61923849D01*
X47751644Y61967181D01*
X47751644Y62815500D01*
X47771329Y62882539D01*
X47824133Y62928294D01*
X47875644Y62939500D01*
X60335500Y62939500D01*
X60402539Y62919815D01*
X60448294Y62867011D01*
X60459500Y62815500D01*
X60459500Y59615763D01*
X60454320Y59598125D01*
X60454153Y59579743D01*
X60441385Y59554072D01*
X60439815Y59548724D01*
X60439199Y59547774D01*
X60437565Y59545282D01*
X60347713Y59421610D01*
X60317137Y59361602D01*
X60313418Y59355929D01*
X60291755Y59337503D01*
X60272227Y59316826D01*
X60265486Y59315158D01*
X60260198Y59310658D01*
X60232009Y59306868D01*
X60204406Y59300032D01*
X60197834Y59302272D01*
X60190952Y59301346D01*
X60165185Y59313399D01*
X60138272Y59322571D01*
X60133293Y59328317D01*
X60127664Y59330950D01*
X60118754Y59345096D01*
X60099234Y59367624D01*
X60071861Y59421348D01*
X60039474Y59465923D01*
X60039474Y59465924D01*
X59360000Y58786449D01*
X59360000Y58792661D01*
X59332741Y58894394D01*
X59280080Y58985606D01*
X59205606Y59060080D01*
X59114394Y59112741D01*
X59012661Y59140000D01*
X59006446Y59140000D01*
X59685922Y59819476D01*
X59685921Y59819477D01*
X59641359Y59851853D01*
X59641350Y59851859D01*
X59459031Y59944756D01*
X59264417Y60007991D01*
X59062317Y60040000D01*
X58857683Y60040000D01*
X58655582Y60007991D01*
X58460968Y59944756D01*
X58278644Y59851857D01*
X58234077Y59819477D01*
X58234077Y59819476D01*
X58913554Y59140000D01*
X58907339Y59140000D01*
X58805606Y59112741D01*
X58714394Y59060080D01*
X58639920Y58985606D01*
X58587259Y58894394D01*
X58560000Y58792661D01*
X58560000Y58786447D01*
X57880524Y59465923D01*
X57880523Y59465923D01*
X57848143Y59421356D01*
X57755244Y59239032D01*
X57692009Y59044418D01*
X57660000Y58842318D01*
X57660000Y58637683D01*
X57692009Y58435583D01*
X57755244Y58240969D01*
X57848141Y58058650D01*
X57848147Y58058641D01*
X57880523Y58014079D01*
X57880524Y58014078D01*
X58560000Y58693554D01*
X58560000Y58687339D01*
X58587259Y58585606D01*
X58639920Y58494394D01*
X58714394Y58419920D01*
X58805606Y58367259D01*
X58907339Y58340000D01*
X58913553Y58340000D01*
X58234076Y57660526D01*
X58278650Y57628141D01*
X58460968Y57535245D01*
X58655582Y57472010D01*
X58857683Y57440000D01*
X59062317Y57440000D01*
X59264417Y57472010D01*
X59459031Y57535245D01*
X59641349Y57628141D01*
X59685921Y57660526D01*
X59006447Y58340000D01*
X59012661Y58340000D01*
X59114394Y58367259D01*
X59205606Y58419920D01*
X59280080Y58494394D01*
X59332741Y58585606D01*
X59360000Y58687339D01*
X59360000Y58693552D01*
X60039474Y58014078D01*
X60039474Y58014079D01*
X60071859Y58058651D01*
X60099233Y58112376D01*
X60103213Y58116592D01*
X60104796Y58122167D01*
X60126930Y58141703D01*
X60147207Y58163173D01*
X60152834Y58164567D01*
X60157180Y58168402D01*
X60186367Y58172872D01*
X60215028Y58179969D01*
X60220513Y58178100D01*
X60226244Y58178977D01*
X60253215Y58166957D01*
X60281163Y58157433D01*
X60286144Y58152281D01*
X60290063Y58150534D01*
X60300019Y58137931D01*
X60313418Y58124072D01*
X60317134Y58118404D01*
X60347713Y58058390D01*
X60437573Y57934708D01*
X60439199Y57932228D01*
X60448515Y57901539D01*
X60459298Y57871319D01*
X60459464Y57865471D01*
X60459495Y57865371D01*
X60459470Y57865284D01*
X60459500Y57864239D01*
X60459500Y56478881D01*
X60439815Y56411842D01*
X60435818Y56405996D01*
X60352715Y56291614D01*
X60259781Y56109224D01*
X60196522Y55914535D01*
X60164500Y55712352D01*
X60164500Y55507649D01*
X60196522Y55305466D01*
X60259781Y55110777D01*
X60323691Y54985347D01*
X60348576Y54936509D01*
X60352715Y54928387D01*
X60473028Y54762787D01*
X60617786Y54618029D01*
X60772749Y54505444D01*
X60783390Y54497713D01*
X60860252Y54458550D01*
X60876080Y54450485D01*
X60926876Y54402510D01*
X60943671Y54334689D01*
X60921134Y54268554D01*
X60876080Y54229515D01*
X60783386Y54182285D01*
X60617786Y54061972D01*
X60473028Y53917214D01*
X60352715Y53751614D01*
X60259781Y53569224D01*
X60196522Y53374535D01*
X60164500Y53172352D01*
X60164500Y52967649D01*
X60196522Y52765466D01*
X60259781Y52570777D01*
X60352715Y52388387D01*
X60473028Y52222787D01*
X60617786Y52078029D01*
X60726261Y51999219D01*
X60783390Y51957713D01*
X60874840Y51911117D01*
X60876080Y51910485D01*
X60926876Y51862510D01*
X60943671Y51794689D01*
X60921134Y51728554D01*
X60876080Y51689515D01*
X60783386Y51642285D01*
X60617786Y51521972D01*
X60473028Y51377214D01*
X60352715Y51211614D01*
X60259781Y51029224D01*
X60196522Y50834535D01*
X60184048Y50755774D01*
X60164500Y50632352D01*
X60164500Y50427648D01*
X60181576Y50319836D01*
X60196523Y50225466D01*
X60209426Y50185754D01*
X60211421Y50115913D01*
X60179176Y50059755D01*
X58445898Y48326475D01*
X58338527Y48219105D01*
X58338522Y48219099D01*
X58262602Y48087602D01*
X58262602Y48087601D01*
X58262601Y48087599D01*
X58262601Y48087598D01*
X58242529Y48012689D01*
X58223300Y47940924D01*
X58223300Y45317000D01*
X58203615Y45249961D01*
X58150811Y45204206D01*
X58099300Y45193000D01*
X57990909Y45193000D01*
X57835779Y45162143D01*
X57835773Y45162141D01*
X57689639Y45101611D01*
X57689630Y45101606D01*
X57558118Y45013732D01*
X57558114Y45013729D01*
X57446271Y44901886D01*
X57446268Y44901882D01*
X57358394Y44770370D01*
X57358389Y44770361D01*
X57297859Y44624227D01*
X57297857Y44624221D01*
X57267000Y44469092D01*
X57267000Y44469089D01*
X57267000Y44310911D01*
X57267000Y44310909D01*
X57266999Y44310909D01*
X57297857Y44155780D01*
X57297859Y44155774D01*
X57358389Y44009640D01*
X57358394Y44009631D01*
X57442402Y43883905D01*
X57463280Y43817227D01*
X57463300Y43815014D01*
X57463300Y42611426D01*
X57443615Y42544387D01*
X57390811Y42498632D01*
X57363492Y42489809D01*
X57274679Y42472143D01*
X57274673Y42472141D01*
X57128539Y42411611D01*
X57128530Y42411606D01*
X56999591Y42325451D01*
X56932913Y42304573D01*
X56865533Y42323058D01*
X56818843Y42375037D01*
X56806700Y42428553D01*
X56806700Y42949725D01*
X56826385Y43016764D01*
X56843022Y43037409D01*
X56853729Y43048116D01*
X56853731Y43048118D01*
X56941609Y43179637D01*
X57002141Y43325774D01*
X57017104Y43400996D01*
X57033000Y43480909D01*
X57033000Y43639092D01*
X57002142Y43794221D01*
X57002141Y43794222D01*
X57002141Y43794226D01*
X56941609Y43940363D01*
X56941608Y43940364D01*
X56941605Y43940370D01*
X56853731Y44071882D01*
X56853728Y44071886D01*
X56741885Y44183729D01*
X56741881Y44183732D01*
X56610369Y44271606D01*
X56610360Y44271611D01*
X56464226Y44332141D01*
X56464220Y44332143D01*
X56309091Y44363000D01*
X56309089Y44363000D01*
X56150911Y44363000D01*
X56150909Y44363000D01*
X55995779Y44332143D01*
X55995773Y44332141D01*
X55849639Y44271611D01*
X55849630Y44271606D01*
X55718118Y44183732D01*
X55718114Y44183729D01*
X55606271Y44071886D01*
X55606268Y44071882D01*
X55518394Y43940370D01*
X55518389Y43940361D01*
X55457859Y43794227D01*
X55457857Y43794221D01*
X55427000Y43639092D01*
X55427000Y43639089D01*
X55427000Y43480911D01*
X55427000Y43480909D01*
X55426999Y43480909D01*
X55457857Y43325780D01*
X55457859Y43325774D01*
X55518389Y43179640D01*
X55518394Y43179631D01*
X55606268Y43048119D01*
X55606270Y43048116D01*
X55616978Y43037409D01*
X55650465Y42976087D01*
X55653300Y42949725D01*
X55653300Y33360276D01*
X55633615Y33293237D01*
X55616981Y33272595D01*
X55606271Y33261886D01*
X55606268Y33261882D01*
X55518394Y33130370D01*
X55518389Y33130361D01*
X55457859Y32984227D01*
X55457857Y32984221D01*
X55427000Y32829092D01*
X55427000Y32829089D01*
X55427000Y32670911D01*
X55427000Y32670909D01*
X55426999Y32670909D01*
X55457857Y32515780D01*
X55457859Y32515774D01*
X55518389Y32369640D01*
X55518394Y32369631D01*
X55606268Y32238119D01*
X55606271Y32238115D01*
X55718114Y32126272D01*
X55718118Y32126269D01*
X55849630Y32038395D01*
X55849636Y32038392D01*
X55849637Y32038391D01*
X55995774Y31977859D01*
X55995778Y31977859D01*
X55995779Y31977858D01*
X56150908Y31947000D01*
X56150911Y31947000D01*
X56309091Y31947000D01*
X56413459Y31967761D01*
X56464226Y31977859D01*
X56610363Y32038391D01*
X56741882Y32126269D01*
X56853731Y32238118D01*
X56941609Y32369637D01*
X57002141Y32515774D01*
X57027171Y32641606D01*
X57033000Y32670909D01*
X57033000Y32829092D01*
X57002142Y32984221D01*
X57002141Y32984222D01*
X57002141Y32984226D01*
X56941609Y33130363D01*
X56941608Y33130364D01*
X56941605Y33130370D01*
X56853731Y33261882D01*
X56853728Y33261886D01*
X56843019Y33272595D01*
X56809534Y33333918D01*
X56806700Y33360276D01*
X56806700Y37101448D01*
X56826385Y37168487D01*
X56879189Y37214242D01*
X56948347Y37224186D01*
X56999590Y37204551D01*
X57002406Y37202669D01*
X57128530Y37118395D01*
X57128536Y37118392D01*
X57128537Y37118391D01*
X57274674Y37057859D01*
X57343950Y37044079D01*
X57363491Y37040192D01*
X57425402Y37007808D01*
X57459976Y36947092D01*
X57463300Y36918575D01*
X57463300Y30820276D01*
X57443615Y30753237D01*
X57426981Y30732595D01*
X57416271Y30721886D01*
X57416268Y30721882D01*
X57328394Y30590370D01*
X57328389Y30590361D01*
X57267859Y30444227D01*
X57267857Y30444221D01*
X57237000Y30289092D01*
X57237000Y30289089D01*
X57237000Y30130911D01*
X57237000Y30130909D01*
X57236999Y30130909D01*
X57267857Y29975780D01*
X57267859Y29975774D01*
X57328389Y29829640D01*
X57328394Y29829631D01*
X57416268Y29698119D01*
X57416271Y29698115D01*
X57528114Y29586272D01*
X57528118Y29586269D01*
X57659630Y29498395D01*
X57659639Y29498390D01*
X57692744Y29484678D01*
X57805774Y29437859D01*
X57805778Y29437859D01*
X57805779Y29437858D01*
X57960908Y29407000D01*
X58099300Y29407000D01*
X58166339Y29387315D01*
X58212094Y29334511D01*
X58223300Y29283000D01*
X58223300Y26900276D01*
X58203615Y26833237D01*
X58186981Y26812595D01*
X58176271Y26801886D01*
X58176268Y26801882D01*
X58088394Y26670370D01*
X58088389Y26670361D01*
X58027859Y26524227D01*
X58027857Y26524221D01*
X57997000Y26369092D01*
X57997000Y26369089D01*
X57997000Y26210911D01*
X57997000Y26210909D01*
X57996999Y26210909D01*
X58027857Y26055780D01*
X58027859Y26055774D01*
X58088389Y25909640D01*
X58088394Y25909631D01*
X58176268Y25778119D01*
X58176271Y25778115D01*
X58288114Y25666272D01*
X58288118Y25666269D01*
X58419630Y25578395D01*
X58419636Y25578392D01*
X58419637Y25578391D01*
X58565774Y25517859D01*
X58565778Y25517859D01*
X58565779Y25517858D01*
X58720908Y25487000D01*
X58720911Y25487000D01*
X58879091Y25487000D01*
X58983459Y25507761D01*
X59034226Y25517859D01*
X59180363Y25578391D01*
X59311882Y25666269D01*
X59423731Y25778118D01*
X59511609Y25909637D01*
X59572141Y26055774D01*
X59588504Y26138034D01*
X59603000Y26210909D01*
X59603000Y26369092D01*
X59572142Y26524221D01*
X59572141Y26524222D01*
X59572141Y26524226D01*
X59513456Y26665904D01*
X59511610Y26670361D01*
X59511605Y26670370D01*
X59423731Y26801882D01*
X59423728Y26801886D01*
X59413019Y26812595D01*
X59379534Y26873918D01*
X59376700Y26900276D01*
X59376700Y38078575D01*
X59396385Y38145614D01*
X59449189Y38191369D01*
X59476509Y38200192D01*
X59478008Y38200491D01*
X59565326Y38217859D01*
X59711463Y38278391D01*
X59842982Y38366269D01*
X59954831Y38478118D01*
X60042709Y38609637D01*
X60103241Y38755774D01*
X60122893Y38854569D01*
X60134100Y38910909D01*
X60134100Y39069092D01*
X60103242Y39224221D01*
X60103241Y39224222D01*
X60103241Y39224226D01*
X60043060Y39369515D01*
X60042710Y39370361D01*
X60042705Y39370370D01*
X59954831Y39501882D01*
X59954828Y39501886D01*
X59944119Y39512595D01*
X59910634Y39573918D01*
X59907800Y39600276D01*
X59907800Y43025862D01*
X59927485Y43092901D01*
X59944115Y43113539D01*
X59955163Y43124588D01*
X60016485Y43158071D01*
X60086177Y43153087D01*
X60142110Y43111215D01*
X60166527Y43045751D01*
X60165318Y43017515D01*
X60164500Y43012349D01*
X60164500Y42807649D01*
X60196522Y42605466D01*
X60259781Y42410777D01*
X60302260Y42327409D01*
X60340515Y42252329D01*
X60352715Y42228387D01*
X60473028Y42062787D01*
X60617786Y41918029D01*
X60759668Y41814948D01*
X60783390Y41797713D01*
X60856949Y41760233D01*
X60876080Y41750485D01*
X60926876Y41702510D01*
X60943671Y41634689D01*
X60921134Y41568554D01*
X60876080Y41529515D01*
X60783386Y41482285D01*
X60617786Y41361972D01*
X60473028Y41217214D01*
X60352715Y41051614D01*
X60259781Y40869224D01*
X60196522Y40674535D01*
X60164500Y40472352D01*
X60164500Y40267649D01*
X60196522Y40065466D01*
X60259781Y39870777D01*
X60323691Y39745347D01*
X60334714Y39723714D01*
X60352715Y39688387D01*
X60473028Y39522787D01*
X60617786Y39378029D01*
X60759668Y39274948D01*
X60783390Y39257713D01*
X60849110Y39224227D01*
X60876080Y39210485D01*
X60926876Y39162510D01*
X60943671Y39094689D01*
X60921134Y39028554D01*
X60876080Y38989515D01*
X60783386Y38942285D01*
X60617786Y38821972D01*
X60473028Y38677214D01*
X60352715Y38511614D01*
X60259781Y38329224D01*
X60196522Y38134535D01*
X60164500Y37932352D01*
X60164500Y37727649D01*
X60196522Y37525466D01*
X60259781Y37330777D01*
X60352715Y37148387D01*
X60473028Y36982787D01*
X60617786Y36838029D01*
X60783385Y36717716D01*
X60783387Y36717715D01*
X60783390Y36717713D01*
X60876080Y36670485D01*
X60876630Y36670205D01*
X60927426Y36622230D01*
X60944221Y36554409D01*
X60921684Y36488275D01*
X60876630Y36449235D01*
X60783644Y36401857D01*
X60739077Y36369477D01*
X60739077Y36369476D01*
X61418554Y35690000D01*
X61412339Y35690000D01*
X61310606Y35662741D01*
X61219394Y35610080D01*
X61144920Y35535606D01*
X61092259Y35444394D01*
X61065000Y35342661D01*
X61065000Y35336447D01*
X60385524Y36015923D01*
X60385523Y36015923D01*
X60353143Y35971356D01*
X60260244Y35789032D01*
X60197009Y35594418D01*
X60165000Y35392318D01*
X60165000Y35187683D01*
X60197009Y34985583D01*
X60260244Y34790969D01*
X60353141Y34608650D01*
X60353147Y34608641D01*
X60385523Y34564079D01*
X60385524Y34564078D01*
X61065000Y35243554D01*
X61065000Y35237339D01*
X61092259Y35135606D01*
X61144920Y35044394D01*
X61219394Y34969920D01*
X61310606Y34917259D01*
X61412339Y34890000D01*
X61418553Y34890000D01*
X60739076Y34210526D01*
X60783652Y34178139D01*
X60876628Y34130766D01*
X60927425Y34082792D01*
X60944220Y34014971D01*
X60921683Y33948836D01*
X60876630Y33909797D01*
X60783388Y33862287D01*
X60617786Y33741972D01*
X60473028Y33597214D01*
X60352715Y33431614D01*
X60259781Y33249224D01*
X60196522Y33054535D01*
X60170718Y32891612D01*
X60164500Y32852352D01*
X60164500Y32647648D01*
X60165457Y32641606D01*
X60196522Y32445466D01*
X60259781Y32250777D01*
X60316366Y32139725D01*
X60342520Y32088394D01*
X60352715Y32068387D01*
X60473028Y31902787D01*
X60617786Y31758029D01*
X60741901Y31667856D01*
X60783390Y31637713D01*
X60874840Y31591117D01*
X60876080Y31590485D01*
X60926876Y31542510D01*
X60943671Y31474689D01*
X60921134Y31408554D01*
X60876080Y31369515D01*
X60783386Y31322285D01*
X60617786Y31201972D01*
X60473028Y31057214D01*
X60352715Y30891614D01*
X60259781Y30709224D01*
X60196522Y30514535D01*
X60164500Y30312352D01*
X60164500Y30107649D01*
X60196522Y29905466D01*
X60259781Y29710777D01*
X60316807Y29598860D01*
X60334714Y29563714D01*
X60352715Y29528387D01*
X60473028Y29362787D01*
X60617786Y29218029D01*
X60759050Y29115397D01*
X60783390Y29097713D01*
X60856949Y29060233D01*
X60876080Y29050485D01*
X60926876Y29002510D01*
X60943671Y28934689D01*
X60921134Y28868554D01*
X60876080Y28829515D01*
X60783386Y28782285D01*
X60617786Y28661972D01*
X60473028Y28517214D01*
X60352715Y28351614D01*
X60259781Y28169224D01*
X60196522Y27974535D01*
X60164500Y27772352D01*
X60164500Y27567649D01*
X60196522Y27365466D01*
X60259781Y27170777D01*
X60280558Y27130001D01*
X60334714Y27023714D01*
X60352715Y26988387D01*
X60473028Y26822787D01*
X60617786Y26678029D01*
X60727135Y26598584D01*
X60783390Y26557713D01*
X60849110Y26524227D01*
X60876080Y26510485D01*
X60926876Y26462510D01*
X60943671Y26394689D01*
X60921134Y26328554D01*
X60876080Y26289515D01*
X60783386Y26242285D01*
X60617786Y26121972D01*
X60473028Y25977214D01*
X60352715Y25811614D01*
X60259781Y25629224D01*
X60196522Y25434535D01*
X60170718Y25271612D01*
X60164500Y25232352D01*
X60164500Y25027648D01*
X60168878Y25000005D01*
X60196522Y24825466D01*
X60259781Y24630777D01*
X60314831Y24522737D01*
X60348989Y24455698D01*
X60352715Y24448387D01*
X60473028Y24282787D01*
X60617786Y24138029D01*
X60752047Y24040485D01*
X60783390Y24017713D01*
X60856949Y23980233D01*
X60876080Y23970485D01*
X60926876Y23922510D01*
X60943671Y23854689D01*
X60921134Y23788554D01*
X60876080Y23749515D01*
X60783386Y23702285D01*
X60617786Y23581972D01*
X60473028Y23437214D01*
X60352715Y23271614D01*
X60259781Y23089224D01*
X60196522Y22894535D01*
X60170718Y22731612D01*
X60164500Y22692352D01*
X60164500Y22487648D01*
X60185386Y22355780D01*
X60196523Y22285466D01*
X60209426Y22245754D01*
X60211421Y22175913D01*
X60179176Y22119755D01*
X59194798Y21135375D01*
X59087427Y21028005D01*
X59087422Y21027999D01*
X59011502Y20896502D01*
X59011502Y20896501D01*
X58972200Y20749824D01*
X58972200Y14040276D01*
X58952515Y13973237D01*
X58935881Y13952595D01*
X58925171Y13941886D01*
X58925168Y13941882D01*
X58837294Y13810370D01*
X58837289Y13810361D01*
X58776759Y13664227D01*
X58776757Y13664221D01*
X58745900Y13509092D01*
X58745900Y13350909D01*
X58776757Y13195780D01*
X58776759Y13195774D01*
X58837289Y13049640D01*
X58837294Y13049631D01*
X58925168Y12918119D01*
X58925171Y12918115D01*
X59037014Y12806272D01*
X59037018Y12806269D01*
X59168530Y12718395D01*
X59168536Y12718392D01*
X59168537Y12718391D01*
X59314674Y12657859D01*
X59401249Y12640638D01*
X59403491Y12640192D01*
X59465402Y12607808D01*
X59499976Y12547092D01*
X59503300Y12518575D01*
X59503300Y10560276D01*
X59483615Y10493237D01*
X59466981Y10472595D01*
X59456271Y10461886D01*
X59456268Y10461882D01*
X59368394Y10330370D01*
X59368389Y10330361D01*
X59307859Y10184227D01*
X59307857Y10184221D01*
X59277000Y10029092D01*
X59277000Y10029089D01*
X59277000Y9870911D01*
X59277000Y9870909D01*
X59276999Y9870909D01*
X59307857Y9715780D01*
X59307859Y9715774D01*
X59368389Y9569640D01*
X59368394Y9569631D01*
X59456268Y9438119D01*
X59456271Y9438115D01*
X59568114Y9326272D01*
X59568118Y9326269D01*
X59699630Y9238395D01*
X59699636Y9238392D01*
X59699637Y9238391D01*
X59845774Y9177859D01*
X59845778Y9177859D01*
X59845779Y9177858D01*
X60000908Y9147000D01*
X60000911Y9147000D01*
X60159091Y9147000D01*
X60263459Y9167761D01*
X60314226Y9177859D01*
X60460363Y9238391D01*
X60591882Y9326269D01*
X60703731Y9438118D01*
X60791609Y9569637D01*
X60852141Y9715774D01*
X60862239Y9766541D01*
X60883000Y9870909D01*
X60883000Y10029092D01*
X60852142Y10184221D01*
X60852141Y10184222D01*
X60852141Y10184226D01*
X60852139Y10184231D01*
X60850373Y10190053D01*
X60851595Y10190424D01*
X60844829Y10253296D01*
X60876097Y10315779D01*
X60936181Y10351438D01*
X61006007Y10348952D01*
X61035752Y10334395D01*
X61089630Y10298395D01*
X61089636Y10298392D01*
X61089637Y10298391D01*
X61235774Y10237859D01*
X61235778Y10237859D01*
X61235779Y10237858D01*
X61390908Y10207000D01*
X61390911Y10207000D01*
X61549091Y10207000D01*
X61669829Y10231017D01*
X61704226Y10237859D01*
X61850363Y10298391D01*
X61981882Y10386269D01*
X62093731Y10498118D01*
X62181609Y10629637D01*
X62242141Y10775774D01*
X62262322Y10877231D01*
X62273000Y10930909D01*
X62273000Y11089092D01*
X62242142Y11244221D01*
X62242141Y11244222D01*
X62242141Y11244226D01*
X62182707Y11387713D01*
X62181610Y11390361D01*
X62181605Y11390370D01*
X62093731Y11521882D01*
X62093728Y11521886D01*
X62078019Y11537595D01*
X62044534Y11598918D01*
X62041700Y11625276D01*
X62041700Y16268272D01*
X62061385Y16335311D01*
X62109405Y16378757D01*
X62146610Y16397713D01*
X62312219Y16518034D01*
X62456966Y16662781D01*
X62456968Y16662785D01*
X62456971Y16662787D01*
X62539950Y16777000D01*
X62577287Y16828390D01*
X62670220Y17010781D01*
X62733477Y17205466D01*
X62765500Y17407648D01*
X62765500Y17612352D01*
X62743821Y17749224D01*
X62733477Y17814535D01*
X62674760Y17995245D01*
X62670220Y18009219D01*
X62670218Y18009222D01*
X62670218Y18009224D01*
X62611475Y18124512D01*
X62577287Y18191610D01*
X62569556Y18202251D01*
X62456971Y18357214D01*
X62312213Y18501972D01*
X62146614Y18622285D01*
X62131052Y18630214D01*
X62053917Y18669517D01*
X62003123Y18717489D01*
X61986328Y18785310D01*
X62008865Y18851445D01*
X62053917Y18890484D01*
X62146610Y18937713D01*
X62201352Y18977485D01*
X62312213Y19058029D01*
X62312215Y19058032D01*
X62312219Y19058034D01*
X62456966Y19202781D01*
X62456968Y19202785D01*
X62456971Y19202787D01*
X62563417Y19349300D01*
X62577287Y19368390D01*
X62670220Y19550781D01*
X62733477Y19745466D01*
X62765500Y19947648D01*
X62765500Y20152352D01*
X62733477Y20354534D01*
X62732606Y20357214D01*
X62674760Y20535245D01*
X62670220Y20549219D01*
X62670218Y20549222D01*
X62670218Y20549224D01*
X62620711Y20646385D01*
X62577287Y20731610D01*
X62563417Y20750700D01*
X62456971Y20897214D01*
X62312213Y21041972D01*
X62146614Y21162285D01*
X62131052Y21170214D01*
X62053917Y21209517D01*
X62003123Y21257489D01*
X61986328Y21325310D01*
X62008865Y21391445D01*
X62053917Y21430484D01*
X62146610Y21477713D01*
X62215987Y21528118D01*
X62312213Y21598029D01*
X62312215Y21598032D01*
X62312219Y21598034D01*
X62456966Y21742781D01*
X62456968Y21742785D01*
X62456971Y21742787D01*
X62521489Y21831590D01*
X62577287Y21908390D01*
X62670220Y22090781D01*
X62733477Y22285466D01*
X62765500Y22487648D01*
X62765500Y22692352D01*
X62733477Y22894534D01*
X62732606Y22897214D01*
X62674760Y23075245D01*
X62670220Y23089219D01*
X62670218Y23089222D01*
X62670218Y23089224D01*
X62625382Y23177219D01*
X62577287Y23271610D01*
X62562012Y23292635D01*
X62456971Y23437214D01*
X62312213Y23581972D01*
X62146614Y23702285D01*
X62125957Y23712810D01*
X62053917Y23749517D01*
X62003123Y23797489D01*
X61986328Y23865310D01*
X62008865Y23931445D01*
X62053917Y23970484D01*
X62146610Y24017713D01*
X62201352Y24057485D01*
X62312213Y24138029D01*
X62312215Y24138032D01*
X62312219Y24138034D01*
X62456966Y24282781D01*
X62456968Y24282785D01*
X62456971Y24282787D01*
X62530999Y24384680D01*
X62577287Y24448390D01*
X62670220Y24630781D01*
X62733477Y24825466D01*
X62765500Y25027648D01*
X62765500Y25232352D01*
X62741970Y25380911D01*
X62733477Y25434535D01*
X62682389Y25591766D01*
X62670220Y25629219D01*
X62670218Y25629222D01*
X62670218Y25629224D01*
X62625063Y25717845D01*
X62577287Y25811610D01*
X62562012Y25832635D01*
X62456971Y25977214D01*
X62312213Y26121972D01*
X62146614Y26242285D01*
X62111803Y26260022D01*
X62053917Y26289517D01*
X62003123Y26337489D01*
X61986328Y26405310D01*
X62008865Y26471445D01*
X62053917Y26510484D01*
X62146610Y26557713D01*
X62202865Y26598584D01*
X62312213Y26678029D01*
X62312215Y26678032D01*
X62312219Y26678034D01*
X62456966Y26822781D01*
X62456968Y26822785D01*
X62456971Y26822787D01*
X62513269Y26900276D01*
X62577287Y26988390D01*
X62670220Y27170781D01*
X62733477Y27365466D01*
X62765500Y27567648D01*
X62765500Y27772352D01*
X62754499Y27841808D01*
X62733477Y27974535D01*
X62674760Y28155245D01*
X62670220Y28169219D01*
X62670218Y28169222D01*
X62670218Y28169224D01*
X62632989Y28242288D01*
X62577287Y28351610D01*
X62564289Y28369500D01*
X62456971Y28517214D01*
X62312213Y28661972D01*
X62146614Y28782285D01*
X62131052Y28790214D01*
X62053917Y28829517D01*
X62003123Y28877489D01*
X61986328Y28945310D01*
X62008865Y29011445D01*
X62053917Y29050484D01*
X62146610Y29097713D01*
X62201352Y29137485D01*
X62312213Y29218029D01*
X62312215Y29218032D01*
X62312219Y29218034D01*
X62456966Y29362781D01*
X62456968Y29362785D01*
X62456971Y29362787D01*
X62521704Y29451886D01*
X62577287Y29528390D01*
X62670220Y29710781D01*
X62733477Y29905466D01*
X62765500Y30107648D01*
X62765500Y30312352D01*
X62733477Y30514534D01*
X62732606Y30517214D01*
X62704127Y30604863D01*
X62670220Y30709219D01*
X62670218Y30709222D01*
X62670218Y30709224D01*
X62636503Y30775393D01*
X62577287Y30891610D01*
X62556661Y30920000D01*
X62456971Y31057214D01*
X62312213Y31201972D01*
X62146614Y31322285D01*
X62131052Y31330214D01*
X62053917Y31369517D01*
X62003123Y31417489D01*
X61986328Y31485310D01*
X62008865Y31551445D01*
X62053917Y31590484D01*
X62146610Y31637713D01*
X62195941Y31673554D01*
X62312213Y31758029D01*
X62312215Y31758032D01*
X62312219Y31758034D01*
X62456966Y31902781D01*
X62456968Y31902785D01*
X62456971Y31902787D01*
X62528584Y32001356D01*
X62577287Y32068390D01*
X62670220Y32250781D01*
X62733477Y32445466D01*
X62765500Y32647648D01*
X62765500Y32852352D01*
X62733477Y33054534D01*
X62732606Y33057214D01*
X62674760Y33235245D01*
X62670220Y33249219D01*
X62670218Y33249222D01*
X62670218Y33249224D01*
X62628815Y33330481D01*
X62577287Y33431610D01*
X62562669Y33451730D01*
X62456971Y33597214D01*
X62312213Y33741972D01*
X62146611Y33862287D01*
X62053369Y33909797D01*
X62002574Y33957771D01*
X61985779Y34025593D01*
X62008317Y34091727D01*
X62053371Y34130766D01*
X62146346Y34178139D01*
X62146347Y34178139D01*
X62190921Y34210526D01*
X61511447Y34890000D01*
X61517661Y34890000D01*
X61619394Y34917259D01*
X61710606Y34969920D01*
X61785080Y35044394D01*
X61837741Y35135606D01*
X61865000Y35237339D01*
X61865000Y35243553D01*
X62544474Y34564079D01*
X62576859Y34608651D01*
X62669755Y34790969D01*
X62732990Y34985583D01*
X62765000Y35187683D01*
X62765000Y35392318D01*
X62732990Y35594418D01*
X62669755Y35789032D01*
X62576859Y35971350D01*
X62544474Y36015923D01*
X62544474Y36015924D01*
X61865000Y35336449D01*
X61865000Y35342661D01*
X61837741Y35444394D01*
X61785080Y35535606D01*
X61710606Y35610080D01*
X61619394Y35662741D01*
X61517661Y35690000D01*
X61511446Y35690000D01*
X62190922Y36369476D01*
X62190921Y36369477D01*
X62146359Y36401853D01*
X62146350Y36401859D01*
X62053369Y36449235D01*
X62002573Y36497210D01*
X61985778Y36565031D01*
X62008315Y36631165D01*
X62053370Y36670205D01*
X62053920Y36670485D01*
X62146610Y36717713D01*
X62201352Y36757485D01*
X62312213Y36838029D01*
X62312215Y36838032D01*
X62312219Y36838034D01*
X62456966Y36982781D01*
X62456968Y36982785D01*
X62456971Y36982787D01*
X62511514Y37057860D01*
X62577287Y37148390D01*
X62670220Y37330781D01*
X62733477Y37525466D01*
X62765500Y37727648D01*
X62765500Y37932352D01*
X62733477Y38134534D01*
X62732606Y38137214D01*
X62685571Y38281972D01*
X62670220Y38329219D01*
X62670218Y38329222D01*
X62670218Y38329224D01*
X62628815Y38410481D01*
X62577287Y38511610D01*
X62569556Y38522251D01*
X62456971Y38677214D01*
X62312213Y38821972D01*
X62146614Y38942285D01*
X62081975Y38975220D01*
X62053917Y38989517D01*
X62003123Y39037489D01*
X61986328Y39105310D01*
X62008865Y39171445D01*
X62053917Y39210484D01*
X62146610Y39257713D01*
X62204366Y39299675D01*
X62312213Y39378029D01*
X62312215Y39378032D01*
X62312219Y39378034D01*
X62456966Y39522781D01*
X62456968Y39522785D01*
X62456971Y39522787D01*
X62513269Y39600276D01*
X62577287Y39688390D01*
X62670220Y39870781D01*
X62733477Y40065466D01*
X62765500Y40267648D01*
X62765500Y40472352D01*
X62749509Y40573313D01*
X62733477Y40674535D01*
X62699821Y40778116D01*
X62670220Y40869219D01*
X62670218Y40869222D01*
X62670218Y40869224D01*
X62626777Y40954480D01*
X62577287Y41051610D01*
X62558682Y41077218D01*
X62456971Y41217214D01*
X62312213Y41361972D01*
X62146614Y41482285D01*
X62074794Y41518879D01*
X62053917Y41529517D01*
X62003123Y41577489D01*
X61986328Y41645310D01*
X62008865Y41711445D01*
X62053917Y41750484D01*
X62146610Y41797713D01*
X62204366Y41839675D01*
X62312213Y41918029D01*
X62312215Y41918032D01*
X62312219Y41918034D01*
X62456966Y42062781D01*
X62456968Y42062785D01*
X62456971Y42062787D01*
X62509732Y42135410D01*
X62577287Y42228390D01*
X62670220Y42410781D01*
X62733477Y42605466D01*
X62765500Y42807648D01*
X62765500Y43012352D01*
X62747532Y43125794D01*
X62733477Y43214535D01*
X62689715Y43349219D01*
X62670220Y43409219D01*
X62670218Y43409222D01*
X62670218Y43409224D01*
X62628815Y43490481D01*
X62577287Y43591610D01*
X62569556Y43602251D01*
X62456971Y43757214D01*
X62312213Y43901972D01*
X62146614Y44022285D01*
X62077522Y44057489D01*
X62053917Y44069517D01*
X62003123Y44117489D01*
X61986328Y44185310D01*
X62008865Y44251445D01*
X62053917Y44290484D01*
X62146610Y44337713D01*
X62217145Y44388959D01*
X62312213Y44458029D01*
X62312215Y44458032D01*
X62312219Y44458034D01*
X62456966Y44602781D01*
X62456968Y44602785D01*
X62456971Y44602787D01*
X62533692Y44708386D01*
X62577287Y44768390D01*
X62670220Y44950781D01*
X62733477Y45145466D01*
X62765500Y45347648D01*
X62765500Y45552352D01*
X62754116Y45624226D01*
X62733477Y45754535D01*
X62694748Y45873729D01*
X62670220Y45949219D01*
X62670218Y45949222D01*
X62670218Y45949224D01*
X62628815Y46030481D01*
X62577287Y46131610D01*
X62569556Y46142251D01*
X62456971Y46297214D01*
X62312213Y46441972D01*
X62146614Y46562285D01*
X62069436Y46601609D01*
X62053917Y46609517D01*
X62003123Y46657489D01*
X61986328Y46725310D01*
X62008865Y46791445D01*
X62053917Y46830484D01*
X62146610Y46877713D01*
X62214044Y46926706D01*
X62312213Y46998029D01*
X62312215Y46998032D01*
X62312219Y46998034D01*
X62456966Y47142781D01*
X62456968Y47142785D01*
X62456971Y47142787D01*
X62509732Y47215410D01*
X62577287Y47308390D01*
X62670220Y47490781D01*
X62733477Y47685466D01*
X62765500Y47887648D01*
X62765500Y48092352D01*
X62749451Y48193678D01*
X62733477Y48294535D01*
X62699821Y48398116D01*
X62670220Y48489219D01*
X62670218Y48489222D01*
X62670218Y48489224D01*
X62628815Y48570481D01*
X62577287Y48671610D01*
X62569556Y48682251D01*
X62456971Y48837214D01*
X62312213Y48981972D01*
X62146614Y49102285D01*
X62077522Y49137489D01*
X62053917Y49149517D01*
X62003123Y49197489D01*
X61986328Y49265310D01*
X62008865Y49331445D01*
X62053917Y49370484D01*
X62146610Y49417713D01*
X62201352Y49457485D01*
X62312213Y49538029D01*
X62312215Y49538032D01*
X62312219Y49538034D01*
X62456966Y49682781D01*
X62456968Y49682785D01*
X62456971Y49682787D01*
X62521611Y49771758D01*
X62577287Y49848390D01*
X62670220Y50030781D01*
X62733477Y50225466D01*
X62765500Y50427648D01*
X62765500Y50632352D01*
X62733477Y50834534D01*
X62730463Y50843809D01*
X62689715Y50969219D01*
X62670220Y51029219D01*
X62670218Y51029222D01*
X62670218Y51029224D01*
X62623871Y51120183D01*
X62577287Y51211610D01*
X62568120Y51224227D01*
X62456971Y51377214D01*
X62312213Y51521972D01*
X62146614Y51642285D01*
X62077522Y51677489D01*
X62053917Y51689517D01*
X62003123Y51737489D01*
X61986328Y51805310D01*
X62008865Y51871445D01*
X62053917Y51910484D01*
X62146610Y51957713D01*
X62203739Y51999219D01*
X62312213Y52078029D01*
X62312215Y52078032D01*
X62312219Y52078034D01*
X62456966Y52222781D01*
X62456968Y52222785D01*
X62456971Y52222787D01*
X62509732Y52295410D01*
X62577287Y52388390D01*
X62670220Y52570781D01*
X62733477Y52765466D01*
X62765500Y52967648D01*
X62765500Y53172352D01*
X62733477Y53374534D01*
X62732606Y53377214D01*
X62689715Y53509219D01*
X62670220Y53569219D01*
X62670218Y53569222D01*
X62670218Y53569224D01*
X62614053Y53679452D01*
X62577287Y53751610D01*
X62563300Y53770862D01*
X62456971Y53917214D01*
X62312213Y54061972D01*
X62146614Y54182285D01*
X62140006Y54185652D01*
X62053917Y54229517D01*
X62003123Y54277489D01*
X61986328Y54345310D01*
X62008865Y54411445D01*
X62053917Y54450484D01*
X62146610Y54497713D01*
X62195149Y54532978D01*
X62312213Y54618029D01*
X62312215Y54618032D01*
X62312219Y54618034D01*
X62456966Y54762781D01*
X62456968Y54762785D01*
X62456971Y54762787D01*
X62544735Y54883586D01*
X62577287Y54928390D01*
X62670220Y55110781D01*
X62733477Y55305466D01*
X62765500Y55507648D01*
X62765500Y55712352D01*
X62734460Y55908329D01*
X62733477Y55914535D01*
X62689715Y56049219D01*
X62670220Y56109219D01*
X62670218Y56109222D01*
X62670218Y56109224D01*
X62627593Y56192879D01*
X62577287Y56291610D01*
X62545989Y56334689D01*
X62484182Y56419760D01*
X62460702Y56485566D01*
X62460500Y56492645D01*
X62460500Y57864239D01*
X62480185Y57931278D01*
X62484165Y57937101D01*
X62572287Y58058390D01*
X62665220Y58240781D01*
X62728477Y58435466D01*
X62760500Y58637648D01*
X62760500Y58842352D01*
X62753521Y58886415D01*
X62728477Y59044535D01*
X62670700Y59222352D01*
X62665220Y59239219D01*
X62665218Y59239222D01*
X62665218Y59239224D01*
X62619822Y59328317D01*
X62572287Y59421610D01*
X62502154Y59518141D01*
X62484182Y59542878D01*
X62460702Y59608684D01*
X62460500Y59615763D01*
X62460500Y64038544D01*
X62422052Y64231830D01*
X62422051Y64231831D01*
X62422051Y64231835D01*
X62410178Y64260500D01*
X62346635Y64413908D01*
X62346628Y64413921D01*
X62237139Y64577782D01*
X62237136Y64577786D01*
X62097785Y64717137D01*
X62097781Y64717140D01*
X61933920Y64826629D01*
X61933907Y64826636D01*
X61751839Y64902050D01*
X61751829Y64902053D01*
X61558543Y64940500D01*
X61558541Y64940500D01*
X46849685Y64940500D01*
X46652603Y64940500D01*
X46652601Y64940500D01*
X46459314Y64902053D01*
X46459304Y64902050D01*
X46277236Y64826636D01*
X46277223Y64826629D01*
X46113362Y64717140D01*
X46113358Y64717137D01*
X45974007Y64577786D01*
X45974004Y64577782D01*
X45864515Y64413921D01*
X45864508Y64413908D01*
X45789094Y64231840D01*
X45789091Y64231830D01*
X45750644Y64038544D01*
X45750644Y61967181D01*
X45730959Y61900142D01*
X45700956Y61867915D01*
X45593596Y61787545D01*
X45507350Y61672336D01*
X45507346Y61672329D01*
X45457052Y61537483D01*
X45450645Y61477884D01*
X45450644Y61477865D01*
X45450644Y61024295D01*
X45430959Y60957256D01*
X45378155Y60911501D01*
X45308997Y60901557D01*
X45245441Y60930582D01*
X45238963Y60936614D01*
X44489319Y61686258D01*
X44455834Y61747581D01*
X44453000Y61773939D01*
X44453000Y61789092D01*
X44422142Y61944221D01*
X44422141Y61944222D01*
X44422141Y61944226D01*
X44361609Y62090363D01*
X44361608Y62090364D01*
X44361605Y62090370D01*
X44273731Y62221882D01*
X44273728Y62221886D01*
X44161885Y62333729D01*
X44161881Y62333732D01*
X44030369Y62421606D01*
X44030360Y62421611D01*
X43884226Y62482141D01*
X43884220Y62482143D01*
X43729091Y62513000D01*
X43729089Y62513000D01*
X43570911Y62513000D01*
X43570909Y62513000D01*
X43415779Y62482143D01*
X43415773Y62482141D01*
X43269639Y62421611D01*
X43269630Y62421606D01*
X43178391Y62360641D01*
X43111713Y62339763D01*
X43044333Y62358248D01*
X42997643Y62410226D01*
X42985500Y62463743D01*
X42985500Y62800473D01*
X43005185Y62867512D01*
X43009182Y62873358D01*
X43074560Y62963345D01*
X43107287Y63008390D01*
X43200220Y63190781D01*
X43263477Y63385466D01*
X43295500Y63587648D01*
X43295500Y63792352D01*
X43273977Y63928242D01*
X43263477Y63994535D01*
X43210397Y64157897D01*
X43200220Y64189219D01*
X43200218Y64189222D01*
X43200218Y64189224D01*
X43157750Y64272571D01*
X43107287Y64371610D01*
X43075092Y64415923D01*
X42986971Y64537214D01*
X42842213Y64681972D01*
X42676613Y64802285D01*
X42676612Y64802286D01*
X42676610Y64802287D01*
X42607715Y64837391D01*
X42494223Y64895219D01*
X42299534Y64958478D01*
X42124995Y64986122D01*
X42097352Y64990500D01*
X41892648Y64990500D01*
X41868329Y64986649D01*
X41690465Y64958478D01*
X41495776Y64895219D01*
X41313386Y64802285D01*
X41147786Y64681972D01*
X41003028Y64537214D01*
X40882714Y64371614D01*
X40855203Y64317621D01*
X40807227Y64266826D01*
X40739406Y64250032D01*
X40673272Y64272571D01*
X40634234Y64317624D01*
X40606861Y64371348D01*
X40574474Y64415923D01*
X40574474Y64415924D01*
X39895000Y63736449D01*
X39895000Y63742661D01*
X39867741Y63844394D01*
X39815080Y63935606D01*
X39740606Y64010080D01*
X39649394Y64062741D01*
X39547661Y64090000D01*
X39541446Y64090000D01*
X40220922Y64769476D01*
X40220921Y64769477D01*
X40176359Y64801853D01*
X40176350Y64801859D01*
X39994031Y64894756D01*
X39799417Y64957991D01*
X39597317Y64990000D01*
X39392683Y64990000D01*
X39190582Y64957991D01*
X38995968Y64894756D01*
X38813644Y64801857D01*
X38769077Y64769477D01*
X38769077Y64769476D01*
X39448554Y64090000D01*
X39442339Y64090000D01*
X39340606Y64062741D01*
X39249394Y64010080D01*
X39174920Y63935606D01*
X39122259Y63844394D01*
X39095000Y63742661D01*
X39095000Y63736447D01*
X38415524Y64415923D01*
X38415523Y64415923D01*
X38383143Y64371356D01*
X38290244Y64189032D01*
X38227009Y63994418D01*
X38195000Y63792318D01*
X38195000Y63587683D01*
X38227009Y63385583D01*
X38290244Y63190969D01*
X38383141Y63008650D01*
X38383147Y63008641D01*
X38415523Y62964079D01*
X38415524Y62964078D01*
X39095000Y63643554D01*
X39095000Y63637339D01*
X39122259Y63535606D01*
X39174920Y63444394D01*
X39249394Y63369920D01*
X39340606Y63317259D01*
X39442339Y63290000D01*
X39448553Y63290000D01*
X38769076Y62610526D01*
X38813650Y62578141D01*
X38995968Y62485245D01*
X39190582Y62422010D01*
X39392683Y62390000D01*
X39597317Y62390000D01*
X39799417Y62422010D01*
X39994031Y62485245D01*
X40176349Y62578141D01*
X40220921Y62610526D01*
X39541447Y63290000D01*
X39547661Y63290000D01*
X39649394Y63317259D01*
X39740606Y63369920D01*
X39815080Y63444394D01*
X39867741Y63535606D01*
X39895000Y63637339D01*
X39895000Y63643552D01*
X40574474Y62964078D01*
X40574474Y62964079D01*
X40606859Y63008651D01*
X40634233Y63062376D01*
X40638379Y63066767D01*
X40640050Y63072570D01*
X40662092Y63091875D01*
X40682207Y63113173D01*
X40688068Y63114625D01*
X40692611Y63118603D01*
X40721591Y63122927D01*
X40750028Y63129969D01*
X40755742Y63128022D01*
X40761716Y63128913D01*
X40788430Y63116883D01*
X40816163Y63107433D01*
X40821330Y63102068D01*
X40825425Y63100224D01*
X40835775Y63087070D01*
X40848678Y63073673D01*
X40852245Y63068187D01*
X40882713Y63008390D01*
X40962708Y62898287D01*
X40964459Y62895593D01*
X40973590Y62865094D01*
X40984298Y62835083D01*
X40984479Y62828721D01*
X40984498Y62828659D01*
X40984482Y62828607D01*
X40984500Y62828003D01*
X40984500Y61505763D01*
X40964815Y61438724D01*
X40960818Y61432878D01*
X40872715Y61311614D01*
X40779781Y61129224D01*
X40716522Y60934535D01*
X40684500Y60732352D01*
X40684500Y60527649D01*
X40716523Y60325465D01*
X40716523Y60325462D01*
X40741362Y60249018D01*
X40743357Y60179177D01*
X40707277Y60119344D01*
X40644576Y60088516D01*
X40623431Y60086700D01*
X37023470Y60086700D01*
X36956431Y60106385D01*
X36910676Y60159189D01*
X36900732Y60228347D01*
X36908909Y60258152D01*
X36925920Y60299222D01*
X36942051Y60338165D01*
X36954632Y60401418D01*
X36980500Y60531457D01*
X36980500Y65368544D01*
X36942052Y65561830D01*
X36942051Y65561831D01*
X36942051Y65561835D01*
X36885779Y65697689D01*
X36866635Y65743908D01*
X36866628Y65743921D01*
X36757139Y65907782D01*
X36757136Y65907786D01*
X36617785Y66047137D01*
X36617781Y66047140D01*
X36453920Y66156629D01*
X36453907Y66156636D01*
X36271839Y66232050D01*
X36271829Y66232053D01*
X36078543Y66270500D01*
X36078541Y66270500D01*
X35881459Y66270500D01*
X35881457Y66270500D01*
X35688170Y66232053D01*
X35688160Y66232050D01*
X35506092Y66156636D01*
X35506079Y66156629D01*
X35342218Y66047140D01*
X35342214Y66047137D01*
X35202863Y65907786D01*
X35202860Y65907782D01*
X35093371Y65743921D01*
X35093364Y65743908D01*
X35017950Y65561840D01*
X35017947Y65561830D01*
X34979500Y65368544D01*
X34979500Y64940493D01*
X34959815Y64873454D01*
X34907011Y64827699D01*
X34837853Y64817755D01*
X34786610Y64837391D01*
X34750374Y64861603D01*
X34750360Y64861611D01*
X34604226Y64922141D01*
X34604220Y64922143D01*
X34449091Y64953000D01*
X34449089Y64953000D01*
X34290911Y64953000D01*
X34290909Y64953000D01*
X34135779Y64922143D01*
X34135773Y64922141D01*
X33989639Y64861611D01*
X33989630Y64861606D01*
X33858118Y64773732D01*
X33858114Y64773729D01*
X33746271Y64661886D01*
X33746268Y64661882D01*
X33658394Y64530370D01*
X33658389Y64530361D01*
X33597859Y64384227D01*
X33597857Y64384221D01*
X33567000Y64229092D01*
X33567000Y64229089D01*
X33567000Y64070911D01*
X33567000Y64070909D01*
X33566999Y64070909D01*
X33597857Y63915780D01*
X33597859Y63915774D01*
X33658389Y63769640D01*
X33658394Y63769631D01*
X33722103Y63674285D01*
X33746269Y63638118D01*
X33751978Y63632409D01*
X33785465Y63571089D01*
X33788300Y63544725D01*
X33788300Y62044859D01*
X33768615Y61977820D01*
X33715811Y61932065D01*
X33676905Y61921501D01*
X33662201Y61919999D01*
X33662200Y61919999D01*
X33495668Y61864815D01*
X33495663Y61864813D01*
X33346342Y61772711D01*
X33222289Y61648658D01*
X33130187Y61499337D01*
X33130185Y61499332D01*
X33115557Y61455188D01*
X33075001Y61332797D01*
X33075001Y61332796D01*
X33075000Y61332796D01*
X33064500Y61230017D01*
X33064500Y61230009D01*
X33064500Y60682661D01*
X33064501Y60210700D01*
X33044817Y60143661D01*
X32992013Y60097906D01*
X32940501Y60086700D01*
X30805239Y60086700D01*
X30738200Y60106385D01*
X30717558Y60123019D01*
X28620823Y62219754D01*
X28587338Y62281077D01*
X28590573Y62345753D01*
X28594633Y62358248D01*
X28603477Y62385466D01*
X28635500Y62587648D01*
X28635500Y62792352D01*
X28603477Y62994534D01*
X28598893Y63008641D01*
X28563723Y63116883D01*
X28540220Y63189219D01*
X28540218Y63189222D01*
X28540218Y63189224D01*
X28488865Y63290009D01*
X28447287Y63371610D01*
X28431892Y63392800D01*
X28326971Y63537214D01*
X28182213Y63681972D01*
X28016613Y63802285D01*
X28016612Y63802286D01*
X28016610Y63802287D01*
X27956898Y63832712D01*
X27834223Y63895219D01*
X27639534Y63958478D01*
X27464995Y63986122D01*
X27437352Y63990500D01*
X27232648Y63990500D01*
X27208329Y63986649D01*
X27030465Y63958478D01*
X26835776Y63895219D01*
X26653386Y63802285D01*
X26487786Y63681972D01*
X26343028Y63537214D01*
X26222715Y63371614D01*
X26129781Y63189224D01*
X26066522Y62994535D01*
X26034500Y62792352D01*
X26034500Y62587649D01*
X26066522Y62385466D01*
X26129781Y62190777D01*
X26181135Y62089991D01*
X26203695Y62045714D01*
X26222715Y62008387D01*
X26343028Y61842787D01*
X26487786Y61698029D01*
X26619338Y61602453D01*
X26653390Y61577713D01*
X26732346Y61537483D01*
X26746080Y61530485D01*
X26796876Y61482510D01*
X26813671Y61414689D01*
X26791134Y61348554D01*
X26746080Y61309515D01*
X26653386Y61262285D01*
X26487786Y61141972D01*
X26343028Y60997214D01*
X26222715Y60831614D01*
X26129781Y60649224D01*
X26066522Y60454535D01*
X26034500Y60252352D01*
X26034500Y60047649D01*
X26066522Y59845466D01*
X26129781Y59650777D01*
X26181781Y59548724D01*
X26220642Y59472454D01*
X26222715Y59468387D01*
X26240734Y59443585D01*
X26264214Y59377778D01*
X26248388Y59309725D01*
X26198282Y59261030D01*
X26140416Y59246700D01*
X23405924Y59246700D01*
X23254076Y59246700D01*
X23107402Y59207399D01*
X23107401Y59207399D01*
X23107399Y59207398D01*
X23107398Y59207398D01*
X22975901Y59131478D01*
X22975895Y59131473D01*
X22148527Y58304105D01*
X22148522Y58304099D01*
X22072602Y58172602D01*
X22072602Y58172601D01*
X22033300Y58025924D01*
X22033300Y45520276D01*
X22013615Y45453237D01*
X21996981Y45432595D01*
X21986271Y45421886D01*
X21986268Y45421882D01*
X21898394Y45290370D01*
X21898389Y45290361D01*
X21837859Y45144227D01*
X21837857Y45144221D01*
X21807000Y44989092D01*
X21807000Y44989089D01*
X21807000Y44830911D01*
X21807000Y44830909D01*
X21806999Y44830909D01*
X21837857Y44675780D01*
X21837859Y44675774D01*
X21898389Y44529640D01*
X21898394Y44529631D01*
X21986268Y44398119D01*
X21986271Y44398115D01*
X22098114Y44286272D01*
X22098118Y44286269D01*
X22229630Y44198395D01*
X22229639Y44198390D01*
X22246406Y44191445D01*
X22375774Y44137859D01*
X22375778Y44137859D01*
X22375779Y44137858D01*
X22530908Y44107000D01*
X22530911Y44107000D01*
X22689091Y44107000D01*
X22850200Y44139047D01*
X22850479Y44137643D01*
X22913168Y44138204D01*
X22972282Y44100958D01*
X23001875Y44037665D01*
X23003300Y44018919D01*
X23003300Y41921676D01*
X22983615Y41854637D01*
X22930811Y41808882D01*
X22861653Y41798938D01*
X22798097Y41827963D01*
X22791619Y41833995D01*
X22711885Y41913729D01*
X22711881Y41913732D01*
X22580369Y42001606D01*
X22580360Y42001611D01*
X22434226Y42062141D01*
X22434220Y42062143D01*
X22279091Y42093000D01*
X22279089Y42093000D01*
X22120911Y42093000D01*
X22120909Y42093000D01*
X21965779Y42062143D01*
X21965773Y42062141D01*
X21819639Y42001611D01*
X21819630Y42001606D01*
X21688118Y41913732D01*
X21688114Y41913729D01*
X21576271Y41801886D01*
X21576268Y41801882D01*
X21488394Y41670370D01*
X21488389Y41670361D01*
X21450161Y41578068D01*
X21406320Y41523665D01*
X21340026Y41501600D01*
X21272327Y41518879D01*
X21224716Y41570016D01*
X21211600Y41625521D01*
X21211600Y48299725D01*
X21231285Y48366764D01*
X21247922Y48387409D01*
X21258629Y48398116D01*
X21258631Y48398118D01*
X21346509Y48529637D01*
X21407041Y48675774D01*
X21428272Y48782509D01*
X21437900Y48830909D01*
X21437900Y48989092D01*
X21407042Y49144221D01*
X21407041Y49144222D01*
X21407041Y49144226D01*
X21346509Y49290363D01*
X21346508Y49290364D01*
X21346505Y49290370D01*
X21258631Y49421882D01*
X21258628Y49421886D01*
X21146785Y49533729D01*
X21146781Y49533732D01*
X21015269Y49621606D01*
X21015260Y49621611D01*
X20869126Y49682141D01*
X20869120Y49682143D01*
X20780308Y49699809D01*
X20718397Y49732194D01*
X20683823Y49792910D01*
X20680500Y49821426D01*
X20680500Y62124218D01*
X20700185Y62191257D01*
X20716819Y62211899D01*
X23117136Y64612216D01*
X23117139Y64612219D01*
X23226631Y64776086D01*
X23302051Y64958164D01*
X23340500Y65151460D01*
X23340500Y65348540D01*
X23340500Y65348543D01*
X23340499Y65348545D01*
X23327194Y65415435D01*
X23302051Y65541836D01*
X23226631Y65723914D01*
X23226629Y65723917D01*
X23226627Y65723921D01*
X23117139Y65887781D01*
X23117136Y65887785D01*
X22977784Y66027137D01*
X22977780Y66027140D01*
X22813920Y66136628D01*
X22813910Y66136633D01*
X22631836Y66212051D01*
X22631828Y66212053D01*
X22438543Y66250500D01*
X22438540Y66250500D01*
X22241460Y66250500D01*
X22241457Y66250500D01*
X22048171Y66212053D01*
X22048163Y66212051D01*
X21866089Y66136633D01*
X21866079Y66136628D01*
X21702219Y66027140D01*
X21702215Y66027137D01*
X20357051Y64681972D01*
X19042221Y63367142D01*
X19042218Y63367139D01*
X18992338Y63317259D01*
X18902859Y63227781D01*
X18793370Y63063919D01*
X18783385Y63039812D01*
X18739543Y62985409D01*
X18673249Y62963345D01*
X18605550Y62980625D01*
X18557940Y63031762D01*
X18554270Y63039795D01*
X18541609Y63070363D01*
X18541607Y63070366D01*
X18541605Y63070370D01*
X18453731Y63201882D01*
X18453728Y63201886D01*
X18341885Y63313729D01*
X18341881Y63313732D01*
X18210369Y63401606D01*
X18210360Y63401611D01*
X18064226Y63462141D01*
X18064220Y63462143D01*
X17909091Y63493000D01*
X17909089Y63493000D01*
X17750911Y63493000D01*
X17750909Y63493000D01*
X17595779Y63462143D01*
X17595773Y63462141D01*
X17449639Y63401611D01*
X17449630Y63401606D01*
X17318118Y63313732D01*
X17318114Y63313729D01*
X17206271Y63201886D01*
X17206268Y63201882D01*
X17118394Y63070370D01*
X17118389Y63070361D01*
X17057859Y62924227D01*
X17057857Y62924221D01*
X17027000Y62769092D01*
X17027000Y62610909D01*
X17038817Y62551504D01*
X17041200Y62527312D01*
X17041200Y55217000D01*
X17021515Y55149961D01*
X16968711Y55104206D01*
X16917200Y55093000D01*
X16880909Y55093000D01*
X16725779Y55062143D01*
X16725773Y55062141D01*
X16579639Y55001611D01*
X16579630Y55001606D01*
X16448118Y54913732D01*
X16448114Y54913729D01*
X16336271Y54801886D01*
X16336268Y54801882D01*
X16248394Y54670370D01*
X16248389Y54670361D01*
X16187859Y54524227D01*
X16187858Y54524224D01*
X16182451Y54497041D01*
X16178254Y54489020D01*
X16177770Y54479981D01*
X16162315Y54458550D01*
X16150065Y54435131D01*
X16142197Y54430652D01*
X16136904Y54423310D01*
X16112313Y54413635D01*
X16089348Y54400558D01*
X16078590Y54400367D01*
X16071885Y54397728D01*
X16036642Y54399618D01*
X15977608Y54411361D01*
X15915697Y54443746D01*
X15881123Y54504462D01*
X15877800Y54532978D01*
X15877800Y55890825D01*
X15897485Y55957864D01*
X15914122Y55978509D01*
X15923729Y55988116D01*
X15923731Y55988118D01*
X16011609Y56119637D01*
X16072141Y56265774D01*
X16087962Y56345310D01*
X16103000Y56420909D01*
X16103000Y56579092D01*
X16072142Y56734221D01*
X16072141Y56734222D01*
X16072141Y56734226D01*
X16011609Y56880363D01*
X16011608Y56880364D01*
X16011605Y56880370D01*
X15923731Y57011882D01*
X15923728Y57011886D01*
X15811885Y57123729D01*
X15811881Y57123732D01*
X15680369Y57211606D01*
X15680360Y57211611D01*
X15534226Y57272141D01*
X15534220Y57272143D01*
X15379091Y57303000D01*
X15379089Y57303000D01*
X15220911Y57303000D01*
X15220909Y57303000D01*
X15065779Y57272143D01*
X15065773Y57272141D01*
X14919639Y57211611D01*
X14919630Y57211606D01*
X14788118Y57123732D01*
X14788114Y57123729D01*
X14676271Y57011886D01*
X14676268Y57011882D01*
X14588394Y56880370D01*
X14588389Y56880361D01*
X14527859Y56734227D01*
X14527857Y56734221D01*
X14497000Y56579092D01*
X14497000Y56579089D01*
X14497000Y56420911D01*
X14497000Y56420909D01*
X14496999Y56420909D01*
X14527857Y56265780D01*
X14527859Y56265774D01*
X14588389Y56119640D01*
X14588394Y56119631D01*
X14676267Y55988120D01*
X14676268Y55988119D01*
X14676269Y55988118D01*
X14688080Y55976307D01*
X14721565Y55914987D01*
X14724400Y55888625D01*
X14724400Y51743810D01*
X14704715Y51676771D01*
X14651911Y51631016D01*
X14582753Y51621072D01*
X14531509Y51640708D01*
X14440369Y51701606D01*
X14440360Y51701611D01*
X14294226Y51762141D01*
X14294220Y51762143D01*
X14139091Y51793000D01*
X14139089Y51793000D01*
X13980911Y51793000D01*
X13980909Y51793000D01*
X13825779Y51762143D01*
X13825773Y51762141D01*
X13679639Y51701611D01*
X13679630Y51701606D01*
X13548118Y51613732D01*
X13548114Y51613729D01*
X13436271Y51501886D01*
X13436268Y51501882D01*
X13348394Y51370370D01*
X13348389Y51370361D01*
X13287859Y51224227D01*
X13287857Y51224221D01*
X13257000Y51069092D01*
X13257000Y50966547D01*
X13237315Y50899508D01*
X13184511Y50853753D01*
X13115353Y50843809D01*
X13051797Y50872834D01*
X13045319Y50878866D01*
X12942213Y50981972D01*
X12776614Y51102285D01*
X12741487Y51120183D01*
X12683917Y51149517D01*
X12633123Y51197489D01*
X12616328Y51265310D01*
X12638865Y51331445D01*
X12683917Y51370484D01*
X12776610Y51417713D01*
X12797770Y51433087D01*
X12942213Y51538029D01*
X12942215Y51538032D01*
X12942219Y51538034D01*
X13086966Y51682781D01*
X13086968Y51682785D01*
X13086971Y51682787D01*
X13173236Y51801523D01*
X13207287Y51848390D01*
X13300220Y52030781D01*
X13363477Y52225466D01*
X13395500Y52427648D01*
X13395500Y52632352D01*
X13383920Y52705467D01*
X13363477Y52834535D01*
X13322014Y52962143D01*
X13300220Y53029219D01*
X13300218Y53029222D01*
X13300218Y53029224D01*
X13259297Y53109534D01*
X13207287Y53211610D01*
X13194549Y53229142D01*
X13086971Y53377214D01*
X12942213Y53521972D01*
X12776614Y53642285D01*
X12770006Y53645652D01*
X12683917Y53689517D01*
X12633123Y53737489D01*
X12616328Y53805310D01*
X12638865Y53871445D01*
X12683917Y53910484D01*
X12776610Y53957713D01*
X12867697Y54023891D01*
X12942213Y54078029D01*
X12942215Y54078032D01*
X12942219Y54078034D01*
X13086966Y54222781D01*
X13086968Y54222785D01*
X13086971Y54222787D01*
X13139732Y54295410D01*
X13207287Y54388390D01*
X13300220Y54570781D01*
X13363477Y54765466D01*
X13395500Y54967648D01*
X13395500Y55172352D01*
X13378151Y55281886D01*
X13363477Y55374535D01*
X13327897Y55484038D01*
X13300220Y55569219D01*
X13300218Y55569222D01*
X13300218Y55569224D01*
X13263396Y55641490D01*
X13207287Y55751610D01*
X13191300Y55773615D01*
X13086971Y55917214D01*
X12942213Y56061972D01*
X12776614Y56182285D01*
X12752951Y56194342D01*
X12683917Y56229517D01*
X12633123Y56277489D01*
X12616328Y56345310D01*
X12638865Y56411445D01*
X12683917Y56450484D01*
X12776610Y56497713D01*
X12837528Y56541972D01*
X12942213Y56618029D01*
X12942215Y56618032D01*
X12942219Y56618034D01*
X13086966Y56762781D01*
X13086968Y56762785D01*
X13086971Y56762787D01*
X13172392Y56880361D01*
X13207287Y56928390D01*
X13300220Y57110781D01*
X13363477Y57305466D01*
X13395500Y57507648D01*
X13395500Y57712352D01*
X13370322Y57871319D01*
X13363477Y57914535D01*
X13331133Y58014079D01*
X13300220Y58109219D01*
X13300218Y58109222D01*
X13300218Y58109224D01*
X13263522Y58181242D01*
X13207287Y58291610D01*
X13172130Y58340000D01*
X13086971Y58457214D01*
X12942213Y58601972D01*
X12776614Y58722285D01*
X12741844Y58740001D01*
X12683917Y58769517D01*
X12633123Y58817489D01*
X12616328Y58885310D01*
X12638865Y58951445D01*
X12683917Y58990484D01*
X12776610Y59037713D01*
X12807396Y59060080D01*
X12942213Y59158029D01*
X12942215Y59158032D01*
X12942219Y59158034D01*
X13086966Y59302781D01*
X13086968Y59302785D01*
X13086971Y59302787D01*
X13173115Y59421356D01*
X13207287Y59468390D01*
X13300220Y59650781D01*
X13363477Y59845466D01*
X13395500Y60047648D01*
X13395500Y60252352D01*
X13363477Y60454534D01*
X13356630Y60475606D01*
X13322346Y60581123D01*
X13300220Y60649219D01*
X13300218Y60649222D01*
X13300218Y60649224D01*
X13257879Y60732318D01*
X13207287Y60831610D01*
X13183123Y60864869D01*
X13086971Y60997214D01*
X12942219Y61141966D01*
X12897983Y61174105D01*
X12848547Y61210022D01*
X12805882Y61265351D01*
X12799903Y61334964D01*
X12832508Y61396760D01*
X12882426Y61428045D01*
X12964334Y61455186D01*
X13113656Y61547288D01*
X13237712Y61671344D01*
X13329814Y61820666D01*
X13384999Y61987203D01*
X13395500Y62089991D01*
X13395499Y63290008D01*
X13384999Y63392797D01*
X13329814Y63559334D01*
X13237712Y63708656D01*
X13113656Y63832712D01*
X13012314Y63895220D01*
X12964336Y63924813D01*
X12964331Y63924815D01*
X12931766Y63935606D01*
X12797797Y63979999D01*
X12797795Y63980000D01*
X12695010Y63990500D01*
X11494998Y63990500D01*
X11494981Y63990499D01*
X11392203Y63980000D01*
X11392200Y63979999D01*
X11225668Y63924815D01*
X11225663Y63924813D01*
X11076342Y63832711D01*
X10952289Y63708658D01*
X10860187Y63559337D01*
X10860186Y63559334D01*
X10805001Y63392797D01*
X10805001Y63392796D01*
X10805000Y63392796D01*
X10794500Y63290017D01*
X10794500Y62089999D01*
X10794501Y62089982D01*
X10805000Y61987204D01*
X10805001Y61987201D01*
X10860185Y61820669D01*
X10860187Y61820664D01*
X10879661Y61789092D01*
X10952288Y61671344D01*
X11076344Y61547288D01*
X11225666Y61455186D01*
X11307570Y61428046D01*
X11365015Y61388273D01*
X11391838Y61323757D01*
X11379523Y61254982D01*
X11341451Y61210022D01*
X11247787Y61141972D01*
X11247782Y61141968D01*
X11103028Y60997214D01*
X10982715Y60831614D01*
X10889781Y60649224D01*
X10826522Y60454535D01*
X10794500Y60252352D01*
X10794500Y60047649D01*
X10826522Y59845466D01*
X10889781Y59650777D01*
X10941781Y59548724D01*
X10980642Y59472454D01*
X10982715Y59468387D01*
X11103028Y59302787D01*
X11247786Y59158029D01*
X11382604Y59060080D01*
X11413390Y59037713D01*
X11493649Y58996819D01*
X11506080Y58990485D01*
X11556876Y58942510D01*
X11573671Y58874689D01*
X11551134Y58808554D01*
X11506080Y58769515D01*
X11413386Y58722285D01*
X11247788Y58601973D01*
X11108343Y58462528D01*
X11047020Y58429044D01*
X10977328Y58434028D01*
X10921395Y58475900D01*
X10897372Y58536959D01*
X10896787Y58542397D01*
X10894091Y58567483D01*
X10892183Y58572598D01*
X10843797Y58702329D01*
X10843793Y58702336D01*
X10757547Y58817545D01*
X10757544Y58817548D01*
X10642335Y58903794D01*
X10642328Y58903798D01*
X10507482Y58954092D01*
X10507483Y58954092D01*
X10447883Y58960499D01*
X10447881Y58960500D01*
X10447873Y58960500D01*
X10447864Y58960500D01*
X8652129Y58960500D01*
X8652123Y58960499D01*
X8592516Y58954092D01*
X8457671Y58903798D01*
X8457664Y58903794D01*
X8342455Y58817548D01*
X8342452Y58817545D01*
X8256206Y58702336D01*
X8256202Y58702329D01*
X8205908Y58567483D01*
X8199501Y58507884D01*
X8199500Y58507865D01*
X8199500Y57126440D01*
X8190855Y57097000D01*
X8184332Y57067013D01*
X8180577Y57061998D01*
X8179815Y57059401D01*
X8163185Y57038764D01*
X7995898Y56871475D01*
X7995897Y56871475D01*
X7995896Y56871474D01*
X7888527Y56764105D01*
X7888522Y56764099D01*
X7812602Y56632602D01*
X7812602Y56632601D01*
X7812601Y56632599D01*
X7812601Y56632598D01*
X7809469Y56620909D01*
X7773300Y56485924D01*
X7773300Y52200240D01*
X7764655Y52170800D01*
X7758132Y52140813D01*
X7754377Y52135798D01*
X7753615Y52133201D01*
X7736981Y52112559D01*
X7626127Y52001705D01*
X7564804Y51968220D01*
X7495112Y51973204D01*
X7439179Y52015076D01*
X7427961Y52033091D01*
X7412508Y52063420D01*
X7352287Y52181610D01*
X7352285Y52181613D01*
X7352284Y52181615D01*
X7231971Y52347214D01*
X7087213Y52491972D01*
X6921613Y52612285D01*
X6921612Y52612286D01*
X6921610Y52612287D01*
X6864653Y52641309D01*
X6739223Y52705219D01*
X6544534Y52768478D01*
X6356109Y52798321D01*
X6342352Y52800500D01*
X6137648Y52800500D01*
X6123891Y52798321D01*
X5935465Y52768478D01*
X5740776Y52705219D01*
X5558386Y52612285D01*
X5392786Y52491972D01*
X5248028Y52347214D01*
X5127715Y52181614D01*
X5034781Y51999224D01*
X4971522Y51804535D01*
X4945825Y51642287D01*
X4939500Y51602352D01*
X4939500Y51397648D01*
X4943095Y51374949D01*
X4971522Y51195466D01*
X5034781Y51000777D01*
X5114761Y50843809D01*
X5127713Y50818390D01*
X5220818Y50690241D01*
X5244298Y50624436D01*
X5244500Y50617357D01*
X5244500Y47039500D01*
X5224815Y46972461D01*
X5172011Y46926706D01*
X5120500Y46915500D01*
X3930200Y46915500D01*
X3863161Y46935185D01*
X3850634Y46944494D01*
X3677817Y47070051D01*
X3668504Y47074796D01*
X3617707Y47122770D01*
X3600912Y47190591D01*
X3623449Y47256726D01*
X3668507Y47295768D01*
X3677555Y47300378D01*
X3731716Y47339730D01*
X3731717Y47339730D01*
X3099409Y47972038D01*
X3162993Y47989075D01*
X3277007Y48054901D01*
X3370099Y48147993D01*
X3435925Y48262007D01*
X3452962Y48325592D01*
X4085270Y47693283D01*
X4085270Y47693284D01*
X4124622Y47747446D01*
X4221095Y47936783D01*
X4286757Y48138870D01*
X4286757Y48138873D01*
X4320000Y48348754D01*
X4320000Y48561247D01*
X4286757Y48771128D01*
X4286757Y48771131D01*
X4221095Y48973218D01*
X4124624Y49162551D01*
X4085270Y49216718D01*
X4085269Y49216718D01*
X3452962Y48584410D01*
X3435925Y48647993D01*
X3370099Y48762007D01*
X3277007Y48855099D01*
X3162993Y48920925D01*
X3099407Y48937964D01*
X3731716Y49570272D01*
X3677550Y49609625D01*
X3488217Y49706096D01*
X3286129Y49771758D01*
X3076246Y49805000D01*
X2863754Y49805000D01*
X2653872Y49771758D01*
X2653869Y49771758D01*
X2451782Y49706096D01*
X2416993Y49688370D01*
X2348324Y49675475D01*
X2283584Y49701752D01*
X2243328Y49758859D01*
X2236700Y49798856D01*
X2236700Y60529762D01*
X2256385Y60596801D01*
X2273015Y60617439D01*
X3078758Y61423183D01*
X3140081Y61456667D01*
X3166439Y61459501D01*
X4647871Y61459501D01*
X4647872Y61459501D01*
X4707483Y61465909D01*
X4842331Y61516204D01*
X4957546Y61602454D01*
X5043796Y61717669D01*
X5052818Y61741859D01*
X5073601Y61797580D01*
X5115471Y61853514D01*
X5180936Y61877932D01*
X5249209Y61863081D01*
X5277464Y61841929D01*
X5327636Y61791757D01*
X5327641Y61791753D01*
X5505973Y61662188D01*
X5505975Y61662187D01*
X5505978Y61662185D01*
X5595595Y61616523D01*
X5646391Y61568548D01*
X5663300Y61506038D01*
X5663300Y60361730D01*
X5643615Y60294691D01*
X5595597Y60251247D01*
X5558392Y60232290D01*
X5558389Y60232288D01*
X5392786Y60111972D01*
X5248028Y59967214D01*
X5127715Y59801614D01*
X5034781Y59619224D01*
X4971522Y59424535D01*
X4939500Y59222352D01*
X4939500Y59017649D01*
X4971522Y58815466D01*
X5034781Y58620777D01*
X5092310Y58507872D01*
X5111397Y58470411D01*
X5127715Y58438387D01*
X5248028Y58272787D01*
X5392786Y58128029D01*
X5540362Y58020811D01*
X5558390Y58007713D01*
X5668414Y57951653D01*
X5740776Y57914782D01*
X5740778Y57914782D01*
X5740781Y57914780D01*
X5845137Y57880873D01*
X5935465Y57851523D01*
X5981568Y57844221D01*
X6137648Y57819500D01*
X6137649Y57819500D01*
X6342351Y57819500D01*
X6342352Y57819500D01*
X6544534Y57851523D01*
X6739219Y57914780D01*
X6921610Y58007713D01*
X7014590Y58075268D01*
X7087213Y58128029D01*
X7087215Y58128032D01*
X7087219Y58128034D01*
X7231966Y58272781D01*
X7231968Y58272785D01*
X7231971Y58272787D01*
X7304710Y58372906D01*
X7352287Y58438390D01*
X7445220Y58620781D01*
X7508477Y58815466D01*
X7540500Y59017648D01*
X7540500Y59222352D01*
X7533526Y59266385D01*
X7508477Y59424535D01*
X7467540Y59550526D01*
X7445220Y59619219D01*
X7445218Y59619222D01*
X7445218Y59619224D01*
X7392587Y59722517D01*
X7352287Y59801610D01*
X7315781Y59851857D01*
X7231971Y59967214D01*
X7087213Y60111972D01*
X6921610Y60232288D01*
X6921607Y60232290D01*
X6884403Y60251247D01*
X6833608Y60299222D01*
X6816700Y60361730D01*
X6816700Y61506038D01*
X6836385Y61573077D01*
X6884404Y61616523D01*
X6974022Y61662185D01*
X7152365Y61791758D01*
X7308242Y61947635D01*
X7437815Y62125978D01*
X7537895Y62322394D01*
X7606015Y62532049D01*
X7640500Y62749778D01*
X7640500Y62970222D01*
X7606015Y63187951D01*
X7564001Y63317259D01*
X7537896Y63397604D01*
X7537895Y63397607D01*
X7489289Y63493000D01*
X7437815Y63594022D01*
X7379501Y63674285D01*
X7308247Y63772359D01*
X7308243Y63772364D01*
X7152363Y63928244D01*
X7152358Y63928248D01*
X6974025Y64057813D01*
X6974024Y64057814D01*
X6974022Y64057815D01*
X6856791Y64117548D01*
X6777606Y64157896D01*
X6777603Y64157897D01*
X6567952Y64226015D01*
X6416314Y64250032D01*
X6350222Y64260500D01*
X6129778Y64260500D01*
X6063686Y64250032D01*
X5912047Y64226015D01*
X5702396Y64157897D01*
X5702393Y64157896D01*
X5505974Y64057813D01*
X5327641Y63928248D01*
X5327636Y63928244D01*
X5277463Y63878071D01*
X5216140Y63844587D01*
X5146448Y63849572D01*
X5090515Y63891443D01*
X5073601Y63922420D01*
X5043797Y64002329D01*
X5043793Y64002336D01*
X4957547Y64117545D01*
X4957544Y64117548D01*
X4842335Y64203794D01*
X4842328Y64203798D01*
X4707482Y64254092D01*
X4707483Y64254092D01*
X4647883Y64260499D01*
X4647881Y64260500D01*
X4647873Y64260500D01*
X4647864Y64260500D01*
X2752129Y64260500D01*
X2752123Y64260499D01*
X2692516Y64254092D01*
X2557671Y64203798D01*
X2557664Y64203794D01*
X2442455Y64117548D01*
X2442452Y64117545D01*
X2356206Y64002336D01*
X2356202Y64002329D01*
X2305908Y63867483D01*
X2299501Y63807884D01*
X2299500Y63807865D01*
X2299500Y62326440D01*
X2279815Y62259401D01*
X2263181Y62238759D01*
X1305898Y61281475D01*
X1198527Y61174105D01*
X1198522Y61174099D01*
X1122602Y61042602D01*
X1122602Y61042601D01*
X1122601Y61042599D01*
X1122601Y61042598D01*
X1083300Y60895924D01*
X300500Y60895924D01*
X300500Y64995573D01*
X300816Y65004419D01*
X317165Y65233018D01*
X319683Y65250530D01*
X345355Y65368541D01*
X367459Y65470149D01*
X372436Y65487100D01*
X450985Y65697701D01*
X458325Y65713773D01*
X566044Y65911044D01*
X575600Y65925914D01*
X710294Y66105844D01*
X721868Y66119201D01*
X880799Y66278132D01*
X894156Y66289706D01*
X1074086Y66424400D01*
X1088956Y66433956D01*
X1286227Y66541675D01*
X1302299Y66549015D01*
X1512900Y66627564D01*
X1529851Y66632541D01*
X1749472Y66680318D01*
X1766977Y66682835D01*
X1995582Y66699184D01*
X2004428Y66699500D01*
X2047595Y66699500D01*
X62952405Y66699500D01*
X62995572Y66699500D01*
X63004418Y66699184D01*
G37*
%TD.AperFunction*%
M02*
