%TF.GenerationSoftware,KiCad,Pcbnew,9.0.0*%
%TF.CreationDate,2025-04-02T13:50:02+09:00*%
%TF.ProjectId,MEZ68K8_RAM_R2.1,4d455a36-384b-4385-9f52-414d5f52322e,Rev 2.1*%
%TF.SameCoordinates,PX65317e4PY8319cac*%
%TF.FileFunction,Soldermask,Bot*%
%TF.FilePolarity,Negative*%
%FSLAX46Y46*%
G04 Gerber Fmt 4.6, Leading zero omitted, Abs format (unit mm)*
G04 Created by KiCad (PCBNEW 9.0.0) date 2025-04-02 13:50:02*
%MOMM*%
%LPD*%
G01*
G04 APERTURE LIST*
G04 Aperture macros list*
%AMRoundRect*
0 Rectangle with rounded corners*
0 $1 Rounding radius*
0 $2 $3 $4 $5 $6 $7 $8 $9 X,Y pos of 4 corners*
0 Add a 4 corners polygon primitive as box body*
4,1,4,$2,$3,$4,$5,$6,$7,$8,$9,$2,$3,0*
0 Add four circle primitives for the rounded corners*
1,1,$1+$1,$2,$3*
1,1,$1+$1,$4,$5*
1,1,$1+$1,$6,$7*
1,1,$1+$1,$8,$9*
0 Add four rect primitives between the rounded corners*
20,1,$1+$1,$2,$3,$4,$5,0*
20,1,$1+$1,$4,$5,$6,$7,0*
20,1,$1+$1,$6,$7,$8,$9,0*
20,1,$1+$1,$8,$9,$2,$3,0*%
G04 Aperture macros list end*
%ADD10RoundRect,0.250000X-0.550000X-0.550000X0.550000X-0.550000X0.550000X0.550000X-0.550000X0.550000X0*%
%ADD11C,1.600000*%
%ADD12R,1.800000X1.800000*%
%ADD13C,1.800000*%
%ADD14O,1.600000X1.600000*%
%ADD15R,1.600000X1.600000*%
%ADD16R,1.700000X1.700000*%
%ADD17O,1.700000X1.700000*%
%ADD18C,0.605000*%
G04 APERTURE END LIST*
D10*
X34365000Y60630000D03*
D11*
X34365000Y58090000D03*
X34365000Y55550000D03*
X34365000Y53010000D03*
X34365000Y50470000D03*
X34365000Y47930000D03*
X34365000Y45390000D03*
X34365000Y42850000D03*
X34365000Y40310000D03*
X34365000Y37770000D03*
X41985000Y37770000D03*
X41985000Y40310000D03*
X41985000Y42850000D03*
X41985000Y45390000D03*
X41985000Y47930000D03*
X41985000Y50470000D03*
X41985000Y53010000D03*
X41985000Y55550000D03*
X41985000Y58090000D03*
X41985000Y60630000D03*
D10*
X34360000Y27740000D03*
D11*
X34360000Y25200000D03*
X34360000Y22660000D03*
X34360000Y20120000D03*
X34360000Y17580000D03*
X34360000Y15040000D03*
X34360000Y12500000D03*
X34360000Y9960000D03*
X34360000Y7420000D03*
X34360000Y4880000D03*
X41980000Y4880000D03*
X41980000Y7420000D03*
X41980000Y9960000D03*
X41980000Y12500000D03*
X41980000Y15040000D03*
X41980000Y17580000D03*
X41980000Y20120000D03*
X41980000Y22660000D03*
X41980000Y25200000D03*
X41980000Y27740000D03*
D10*
X12095000Y62690000D03*
D11*
X12095000Y60150000D03*
X12095000Y57610000D03*
X12095000Y55070000D03*
X12095000Y52530000D03*
X12095000Y49990000D03*
X12095000Y47450000D03*
X12095000Y44910000D03*
X12095000Y42370000D03*
X12095000Y39830000D03*
X12095000Y37290000D03*
X12095000Y34750000D03*
X12095000Y32210000D03*
X12095000Y29670000D03*
X12095000Y27130000D03*
X12095000Y24590000D03*
X12095000Y22050000D03*
X12095000Y19510000D03*
X12095000Y16970000D03*
X12095000Y14430000D03*
X12095000Y11890000D03*
X12095000Y9350000D03*
X12095000Y6810000D03*
X12095000Y4270000D03*
X27335000Y4270000D03*
X27335000Y6810000D03*
X27335000Y9350000D03*
X27335000Y11890000D03*
X27335000Y14430000D03*
X27335000Y16970000D03*
X27335000Y19510000D03*
X27335000Y22050000D03*
X27335000Y24590000D03*
X27335000Y27130000D03*
X27335000Y29670000D03*
X27335000Y32210000D03*
X27335000Y34750000D03*
X27335000Y37290000D03*
X27335000Y39830000D03*
X27335000Y42370000D03*
X27335000Y44910000D03*
X27335000Y47450000D03*
X27335000Y49990000D03*
X27335000Y52530000D03*
X27335000Y55070000D03*
X27335000Y57610000D03*
X27335000Y60150000D03*
X27335000Y62690000D03*
D12*
X3700000Y62860000D03*
D13*
X6240000Y62860000D03*
D10*
X46225000Y55610000D03*
D11*
X46225000Y53070000D03*
X46225000Y50530000D03*
X46225000Y47990000D03*
X46225000Y45450000D03*
X46225000Y42910000D03*
X46225000Y40370000D03*
X46225000Y37830000D03*
X46225000Y35290000D03*
X46225000Y32750000D03*
X46225000Y30210000D03*
X46225000Y27670000D03*
X46225000Y25130000D03*
X46225000Y22590000D03*
X46225000Y20050000D03*
X46225000Y17510000D03*
X61465000Y17510000D03*
X61465000Y20050000D03*
X61465000Y22590000D03*
X61465000Y25130000D03*
X61465000Y27670000D03*
X61465000Y30210000D03*
X61465000Y32750000D03*
X61465000Y35290000D03*
X61465000Y37830000D03*
X61465000Y40370000D03*
X61465000Y42910000D03*
X61465000Y45450000D03*
X61465000Y47990000D03*
X61465000Y50530000D03*
X61465000Y53070000D03*
X61465000Y55610000D03*
X6240000Y51500000D03*
D14*
X6240000Y59120000D03*
D11*
X61460000Y58740000D03*
X58960000Y58740000D03*
X6245000Y33820000D03*
X6245000Y31320000D03*
D15*
X6200000Y24870000D03*
D14*
X6200000Y22330000D03*
X6200000Y19790000D03*
X6200000Y17250000D03*
X6200000Y14710000D03*
D11*
X41980000Y30850000D03*
X39480000Y30850000D03*
D15*
X46751144Y60630000D03*
D11*
X49251144Y60630000D03*
D16*
X60170000Y6750000D03*
D17*
X57630000Y6750000D03*
X55090000Y6750000D03*
X52550000Y6750000D03*
X50010000Y6750000D03*
X47470000Y6750000D03*
D11*
X41995000Y63690000D03*
X39495000Y63690000D03*
D16*
X2970000Y38295000D03*
D17*
X2970000Y40835000D03*
X2970000Y43375000D03*
X2970000Y45915000D03*
X2970000Y48455000D03*
D11*
X52880000Y12310000D03*
D14*
X45260000Y12310000D03*
D16*
X29870000Y57610000D03*
D17*
X29870000Y55070000D03*
X29870000Y52530000D03*
X29870000Y49990000D03*
X29870000Y47450000D03*
X29870000Y44910000D03*
X29870000Y42370000D03*
X29870000Y39830000D03*
X29870000Y37290000D03*
X29870000Y34750000D03*
X29870000Y32210000D03*
X29870000Y29670000D03*
X29870000Y27130000D03*
X29870000Y24590000D03*
X29870000Y22050000D03*
X29870000Y19510000D03*
X29870000Y16970000D03*
X29870000Y14430000D03*
X29870000Y11890000D03*
X29870000Y9350000D03*
D16*
X9550000Y57610000D03*
D17*
X9550000Y55070000D03*
X9550000Y52530000D03*
X9550000Y49990000D03*
X9550000Y47450000D03*
X9550000Y44910000D03*
X9550000Y42370000D03*
X9550000Y39830000D03*
X9550000Y37290000D03*
X9550000Y34750000D03*
X9550000Y32210000D03*
X9550000Y29670000D03*
X9550000Y27130000D03*
X9550000Y24590000D03*
X9550000Y22050000D03*
X9550000Y19510000D03*
X9550000Y16970000D03*
X9550000Y14430000D03*
X9550000Y11890000D03*
X9550000Y9350000D03*
D18*
X16760000Y42140000D03*
X16530000Y34420000D03*
X18440000Y38370000D03*
X18450000Y42030000D03*
X18400000Y34860000D03*
X18430000Y29960000D03*
X18340000Y48770000D03*
X21630000Y47520000D03*
X51600000Y34060000D03*
X39770000Y34340000D03*
X39770000Y45390000D03*
X40110000Y23490000D03*
X19680000Y4110000D03*
X50000000Y12300000D03*
X35980000Y65270000D03*
X19680000Y42370000D03*
X22340000Y65250000D03*
X38180000Y4450000D03*
X19680000Y32210000D03*
X38590000Y26880000D03*
X35980000Y60630000D03*
X34798000Y29670000D03*
X17220000Y17730000D03*
X17000000Y13790000D03*
X14732000Y65532000D03*
X23670000Y62550000D03*
X58928000Y61976000D03*
X15890000Y4290000D03*
X36390000Y4880000D03*
X15890000Y7630000D03*
X5588000Y9144000D03*
X44840000Y4850000D03*
X53340000Y32766000D03*
X16500000Y10600000D03*
X21950000Y59920000D03*
X3556000Y31496000D03*
X3048000Y57658000D03*
X14010000Y53730000D03*
X44704000Y64516000D03*
X53340000Y18288000D03*
X54102000Y53086000D03*
X62484000Y3048000D03*
X16970000Y24100000D03*
X32750000Y820000D03*
X39980000Y6180000D03*
X32010000Y4500000D03*
X15070000Y59440000D03*
X24200000Y8020000D03*
X34370000Y64150000D03*
X2900000Y27130000D03*
X14770000Y43470000D03*
X14770000Y39810000D03*
X36170000Y48488900D03*
X36170000Y43920000D03*
X59331100Y38990000D03*
X7750000Y38570000D03*
X25390000Y50508900D03*
X36240000Y51100000D03*
X55090000Y8870000D03*
X31068900Y7341100D03*
X35900000Y31930000D03*
X35908900Y22660000D03*
X21166000Y33600000D03*
X57630000Y22590000D03*
X32800000Y6810000D03*
X21160000Y6810000D03*
X31590000Y12510000D03*
X44000000Y13990000D03*
X28940000Y4270000D03*
X22730000Y38310000D03*
X22730000Y4270000D03*
X32131100Y9960000D03*
X61470000Y11010000D03*
X30760545Y5339455D03*
X25800000Y38780000D03*
X25760000Y5249300D03*
X39820000Y16080000D03*
X20634900Y48910000D03*
X39870000Y22670000D03*
X20634900Y15840000D03*
X23580000Y45890000D03*
X23580000Y17850000D03*
X23582597Y11890000D03*
X24670000Y47010000D03*
X35930000Y56700000D03*
X37225100Y6210000D03*
X22198900Y5841100D03*
X60080000Y9950000D03*
X37225100Y9960000D03*
X22200000Y41290000D03*
X35908900Y12500000D03*
X33333200Y13580000D03*
X25190000Y44760000D03*
X25228900Y13320000D03*
X59548900Y13430000D03*
X25228900Y9380000D03*
X15832200Y25460000D03*
X15840000Y53620000D03*
X15832200Y19510000D03*
X7200000Y44200000D03*
X57508900Y41700000D03*
X57508900Y37830000D03*
X37950000Y43940000D03*
X56230000Y43560000D03*
X22610000Y44910000D03*
X56230000Y32750000D03*
X44550000Y54770000D03*
X16940000Y47460000D03*
X16960000Y54290000D03*
X44680000Y41168900D03*
X16398346Y51723500D03*
X37303200Y47350000D03*
X16363300Y50000000D03*
X33110000Y35600000D03*
X25770000Y39940000D03*
X31770000Y37880000D03*
X18700000Y28590000D03*
X18700000Y22040000D03*
X24340000Y45540000D03*
X24340000Y23160000D03*
X24340000Y11890000D03*
X17620000Y33170000D03*
X17628900Y26221100D03*
X32980000Y33294200D03*
X14738700Y12930000D03*
X14740000Y22572100D03*
X58800000Y26290000D03*
X32440000Y42850000D03*
X31700000Y16970000D03*
X14060000Y50990000D03*
X14060000Y24590000D03*
X14060000Y10430000D03*
X48870000Y27670000D03*
X48879266Y55370464D03*
X38200000Y28940000D03*
X49880000Y30200000D03*
X39134900Y17580000D03*
X49860000Y55530000D03*
X48200000Y32750000D03*
X36971100Y15070000D03*
X36971100Y32750000D03*
X33511100Y31020000D03*
X16640000Y31020000D03*
X33511100Y34660000D03*
X36340000Y7420000D03*
X36510000Y34660000D03*
X17830000Y62690000D03*
X43038900Y36440000D03*
X43650000Y61710000D03*
X50411100Y37830000D03*
X44632200Y40370000D03*
X32440000Y45250000D03*
X37200000Y39478300D03*
X37220000Y44660000D03*
X43430000Y15040000D03*
X23150000Y57610000D03*
X36610000Y53768320D03*
X44101100Y42910000D03*
X43430000Y18200000D03*
X25452212Y55070000D03*
X40268863Y53767320D03*
X43570000Y45450000D03*
X43570000Y25200000D03*
X25370000Y52190000D03*
X36770000Y46018900D03*
X39160000Y41420000D03*
X39230000Y57661300D03*
X40280000Y53010000D03*
X40280000Y49020000D03*
X39710000Y50470000D03*
X39710000Y46550000D03*
X15301100Y16970000D03*
X15300000Y56500000D03*
X58040000Y30210000D03*
X58070000Y44390000D03*
M02*
