M48
; DRILL file {KiCad 9.0.0} date 2025-04-02T13:49:58+0900
; FORMAT={-:-/ absolute / metric / decimal}
; #@! TF.CreationDate,2025-04-02T13:49:58+09:00
; #@! TF.GenerationSoftware,Kicad,Pcbnew,9.0.0
; #@! TF.FileFunction,MixedPlating,1,2
FMAT,2
METRIC
; #@! TA.AperFunction,Plated,PTH,ViaDrill
T1C0.300
; #@! TA.AperFunction,Plated,PTH,ComponentDrill
T2C0.800
; #@! TA.AperFunction,Plated,PTH,ComponentDrill
T3C0.900
; #@! TA.AperFunction,Plated,PTH,ComponentDrill
T4C1.000
%
G90
G05
T1
X2.9Y27.13
X3.048Y57.658
X3.556Y31.496
X5.588Y9.144
X7.2Y44.2
X7.75Y38.57
X14.01Y53.73
X14.06Y50.99
X14.06Y24.59
X14.06Y10.43
X14.732Y65.532
X14.739Y12.93
X14.74Y22.572
X14.77Y43.47
X14.77Y39.81
X15.07Y59.44
X15.3Y56.5
X15.301Y16.97
X15.832Y25.46
X15.832Y19.51
X15.84Y53.62
X15.89Y7.63
X15.89Y4.29
X16.363Y50.0
X16.398Y51.723
X16.5Y10.6
X16.53Y34.42
X16.64Y31.02
X16.76Y42.14
X16.94Y47.46
X16.96Y54.29
X16.97Y24.1
X17.0Y13.79
X17.22Y17.73
X17.62Y33.17
X17.629Y26.221
X17.83Y62.69
X18.34Y48.77
X18.4Y34.86
X18.43Y29.96
X18.44Y38.37
X18.45Y42.03
X18.7Y28.59
X18.7Y22.04
X19.68Y42.37
X19.68Y32.21
X19.68Y4.11
X20.635Y48.91
X20.635Y15.84
X21.16Y6.81
X21.166Y33.6
X21.63Y47.52
X21.95Y59.92
X22.199Y5.841
X22.2Y41.29
X22.34Y65.25
X22.61Y44.91
X22.73Y38.31
X22.73Y4.27
X23.15Y57.61
X23.58Y45.89
X23.58Y17.85
X23.583Y11.89
X23.67Y62.55
X24.2Y8.02
X24.34Y45.54
X24.34Y23.16
X24.34Y11.89
X24.67Y47.01
X25.19Y44.76
X25.229Y13.32
X25.229Y9.38
X25.37Y52.19
X25.39Y50.509
X25.452Y55.07
X25.76Y5.249
X25.77Y39.94
X25.8Y38.78
X28.94Y4.27
X30.761Y5.339
X31.069Y7.341
X31.59Y12.51
X31.7Y16.97
X31.77Y37.88
X32.01Y4.5
X32.131Y9.96
X32.44Y45.25
X32.44Y42.85
X32.75Y0.82
X32.8Y6.81
X32.98Y33.294
X33.11Y35.6
X33.333Y13.58
X33.511Y34.66
X33.511Y31.02
X34.37Y64.15
X34.798Y29.67
X35.9Y31.93
X35.909Y22.66
X35.909Y12.5
X35.93Y56.7
X35.98Y65.27
X35.98Y60.63
X36.17Y48.489
X36.17Y43.92
X36.24Y51.1
X36.34Y7.42
X36.39Y4.88
X36.51Y34.66
X36.61Y53.768
X36.77Y46.019
X36.971Y32.75
X36.971Y15.07
X37.2Y39.478
X37.22Y44.66
X37.225Y9.96
X37.225Y6.21
X37.303Y47.35
X37.95Y43.94
X38.18Y4.45
X38.2Y28.94
X38.59Y26.88
X39.135Y17.58
X39.16Y41.42
X39.23Y57.661
X39.71Y50.47
X39.71Y46.55
X39.77Y45.39
X39.77Y34.34
X39.82Y16.08
X39.87Y22.67
X39.98Y6.18
X40.11Y23.49
X40.269Y53.767
X40.28Y53.01
X40.28Y49.02
X43.039Y36.44
X43.43Y18.2
X43.43Y15.04
X43.57Y45.45
X43.57Y25.2
X43.65Y61.71
X44.0Y13.99
X44.101Y42.91
X44.55Y54.77
X44.632Y40.37
X44.68Y41.169
X44.704Y64.516
X44.84Y4.85
X48.2Y32.75
X48.87Y27.67
X48.879Y55.37
X49.86Y55.53
X49.88Y30.2
X50.0Y12.3
X50.411Y37.83
X51.6Y34.06
X53.34Y32.766
X53.34Y18.288
X54.102Y53.086
X55.09Y8.87
X56.23Y43.56
X56.23Y32.75
X57.509Y41.7
X57.509Y37.83
X57.63Y22.59
X58.04Y30.21
X58.07Y44.39
X58.8Y26.29
X58.928Y61.976
X59.331Y38.99
X59.549Y13.43
X60.08Y9.95
X61.47Y11.01
X62.484Y3.048
T2
X6.2Y24.87
X6.2Y22.33
X6.2Y19.79
X6.2Y17.25
X6.2Y14.71
X6.24Y59.12
X6.24Y51.5
X6.245Y33.82
X6.245Y31.32
X12.095Y62.69
X12.095Y60.15
X12.095Y57.61
X12.095Y55.07
X12.095Y52.53
X12.095Y49.99
X12.095Y47.45
X12.095Y44.91
X12.095Y42.37
X12.095Y39.83
X12.095Y37.29
X12.095Y34.75
X12.095Y32.21
X12.095Y29.67
X12.095Y27.13
X12.095Y24.59
X12.095Y22.05
X12.095Y19.51
X12.095Y16.97
X12.095Y14.43
X12.095Y11.89
X12.095Y9.35
X12.095Y6.81
X12.095Y4.27
X27.335Y62.69
X27.335Y60.15
X27.335Y57.61
X27.335Y55.07
X27.335Y52.53
X27.335Y49.99
X27.335Y47.45
X27.335Y44.91
X27.335Y42.37
X27.335Y39.83
X27.335Y37.29
X27.335Y34.75
X27.335Y32.21
X27.335Y29.67
X27.335Y27.13
X27.335Y24.59
X27.335Y22.05
X27.335Y19.51
X27.335Y16.97
X27.335Y14.43
X27.335Y11.89
X27.335Y9.35
X27.335Y6.81
X27.335Y4.27
X34.36Y27.74
X34.36Y25.2
X34.36Y22.66
X34.36Y20.12
X34.36Y17.58
X34.36Y15.04
X34.36Y12.5
X34.36Y9.96
X34.36Y7.42
X34.36Y4.88
X34.365Y60.63
X34.365Y58.09
X34.365Y55.55
X34.365Y53.01
X34.365Y50.47
X34.365Y47.93
X34.365Y45.39
X34.365Y42.85
X34.365Y40.31
X34.365Y37.77
X39.48Y30.85
X39.495Y63.69
X41.98Y30.85
X41.98Y27.74
X41.98Y25.2
X41.98Y22.66
X41.98Y20.12
X41.98Y17.58
X41.98Y15.04
X41.98Y12.5
X41.98Y9.96
X41.98Y7.42
X41.98Y4.88
X41.985Y60.63
X41.985Y58.09
X41.985Y55.55
X41.985Y53.01
X41.985Y50.47
X41.985Y47.93
X41.985Y45.39
X41.985Y42.85
X41.985Y40.31
X41.985Y37.77
X41.995Y63.69
X45.26Y12.31
X46.225Y55.61
X46.225Y53.07
X46.225Y50.53
X46.225Y47.99
X46.225Y45.45
X46.225Y42.91
X46.225Y40.37
X46.225Y37.83
X46.225Y35.29
X46.225Y32.75
X46.225Y30.21
X46.225Y27.67
X46.225Y25.13
X46.225Y22.59
X46.225Y20.05
X46.225Y17.51
X46.751Y60.63
X49.251Y60.63
X52.88Y12.31
X58.96Y58.74
X61.46Y58.74
X61.465Y55.61
X61.465Y53.07
X61.465Y50.53
X61.465Y47.99
X61.465Y45.45
X61.465Y42.91
X61.465Y40.37
X61.465Y37.83
X61.465Y35.29
X61.465Y32.75
X61.465Y30.21
X61.465Y27.67
X61.465Y25.13
X61.465Y22.59
X61.465Y20.05
X61.465Y17.51
T3
X3.7Y62.86
X6.24Y62.86
T4
X2.97Y48.455
X2.97Y45.915
X2.97Y43.375
X2.97Y40.835
X2.97Y38.295
X9.55Y57.61
X9.55Y55.07
X9.55Y52.53
X9.55Y49.99
X9.55Y47.45
X9.55Y44.91
X9.55Y42.37
X9.55Y39.83
X9.55Y37.29
X9.55Y34.75
X9.55Y32.21
X9.55Y29.67
X9.55Y27.13
X9.55Y24.59
X9.55Y22.05
X9.55Y19.51
X9.55Y16.97
X9.55Y14.43
X9.55Y11.89
X9.55Y9.35
X29.87Y57.61
X29.87Y55.07
X29.87Y52.53
X29.87Y49.99
X29.87Y47.45
X29.87Y44.91
X29.87Y42.37
X29.87Y39.83
X29.87Y37.29
X29.87Y34.75
X29.87Y32.21
X29.87Y29.67
X29.87Y27.13
X29.87Y24.59
X29.87Y22.05
X29.87Y19.51
X29.87Y16.97
X29.87Y14.43
X29.87Y11.89
X29.87Y9.35
X47.47Y6.75
X50.01Y6.75
X52.55Y6.75
X55.09Y6.75
X57.63Y6.75
X60.17Y6.75
M30
